<svg width="903" height="1111" viewBox="0 0 903 1111" fill="none" xmlns="http://www.w3.org/2000/svg">
<g clip-path="url(#clip0_1_89)">
<rect width="903" height="1111" fill="white"/>
<g clip-path="url(#clip1_1_89)">
<path d="M961.24 264.263V-5.41986H595.515C597.663 -5.00984 600.212 -4.40072 603.088 -3.49628C612.278 -0.605514 624.783 5.29787 638.13 17.3401C664.818 41.4202 694.847 90.0231 708.528 188.124C712.699 218.046 730.559 237.742 755.011 250.48C779.485 263.23 810.583 269.017 841.212 271.054C871.835 273.09 901.943 271.375 924.4 269.149C935.626 268.036 944.939 266.797 951.442 265.835C954.694 265.355 957.245 264.943 958.981 264.653C959.849 264.507 960.513 264.391 960.96 264.312C961.065 264.294 961.159 264.277 961.24 264.263Z" stroke="url(#paint0_linear_1_89)"/>
<path d="M961.24 256.7V-5.41907H608.542C610.589 -5.02068 613.009 -4.4343 615.731 -3.57165C624.6 -0.760793 636.667 4.97883 649.545 16.6857C675.296 40.0949 704.267 87.3405 717.466 182.699C721.491 211.78 738.72 230.923 762.304 243.302C785.913 255.693 815.912 261.318 845.46 263.298C875.002 265.277 904.047 263.61 925.712 261.447C936.544 260.365 945.527 259.16 951.802 258.225C954.939 257.758 957.399 257.358 959.074 257.076C959.911 256.934 960.552 256.822 960.983 256.746C961.08 256.728 961.165 256.713 961.24 256.7Z" stroke="url(#paint1_linear_1_89)" stroke-opacity="0.6"/>
<path d="M961.24 250.17V-5.41907H623.532C625.473 -5.0308 627.757 -4.46396 630.321 -3.63682C638.82 -0.894505 650.381 4.7043 662.719 16.1219C687.387 38.9518 715.138 85.025 727.78 178.014C731.636 206.373 748.138 225.036 770.723 237.105C793.331 249.186 822.062 254.671 850.363 256.601C878.657 258.531 906.476 256.905 927.228 254.796C937.601 253.742 946.206 252.566 952.216 251.655C955.22 251.199 957.576 250.81 959.18 250.533C959.983 250.396 960.596 250.286 961.01 250.212C961.095 250.196 961.172 250.182 961.24 250.17Z" stroke="url(#paint2_linear_1_89)" stroke-opacity="0.4"/>
<path d="M961.24 245.275V-5.41907H645.435C647.238 -5.03819 649.353 -4.48549 651.722 -3.68385C659.681 -0.99152 670.5 4.50333 682.043 15.7043C705.122 38.0998 731.081 83.2923 742.907 174.502C746.515 202.324 761.954 220.628 783.074 232.462C804.217 244.306 831.084 249.685 857.554 251.578C884.017 253.471 910.037 251.877 929.448 249.808C939.151 248.774 947.199 247.621 952.821 246.727C955.63 246.28 957.834 245.898 959.334 245.628C960.085 245.492 960.658 245.386 961.045 245.312C961.116 245.298 961.181 245.287 961.24 245.275Z" stroke="url(#paint3_linear_1_89)" stroke-opacity="0.2"/>
</g>
<g clip-path="url(#clip2_1_89)">
<path d="M-1.4375 266.357V-0.415344H314.508C312.653 -0.00975195 310.45 0.592797 307.966 1.48748C300.027 4.34705 289.224 10.1867 277.694 22.099C254.637 45.9193 228.696 93.9977 216.878 191.04C213.274 220.639 197.845 240.122 176.721 252.723C155.579 265.335 128.713 271.06 102.253 273.075C75.7982 275.089 49.7889 273.392 30.3882 271.191C20.6892 270.09 12.6447 268.864 7.02596 267.912C4.21665 267.437 2.01389 267.03 0.5141 266.743C-0.235792 266.599 -0.809932 266.484 -1.19627 266.406C-1.28712 266.388 -1.36758 266.371 -1.4375 266.357Z" stroke="url(#paint4_linear_1_89)"/>
<path d="M-1.4375 258.875V-0.414551H303.254C301.485 -0.0204585 299.395 0.559594 297.043 1.41293C289.382 4.19345 278.957 9.87114 267.831 21.4517C245.585 44.6083 220.558 91.344 209.156 185.673C205.678 214.441 190.795 233.377 170.42 245.622C150.025 257.88 124.109 263.444 98.5829 265.402C73.0619 267.361 47.9702 265.711 29.2538 263.571C19.8968 262.501 12.1361 261.309 6.71564 260.384C4.00545 259.922 1.88044 259.527 0.433609 259.248C-0.289797 259.107 -0.843655 258.997 -1.21632 258.921C-1.29901 258.904 -1.37278 258.889 -1.4375 258.875Z" stroke="url(#paint5_linear_1_89)" stroke-opacity="0.6"/>
<path d="M-1.4375 252.416V-0.414551H290.304C288.628 -0.0304686 286.655 0.530254 284.44 1.34846C277.097 4.06118 267.11 9.59957 256.451 20.8939C235.141 43.4775 211.166 89.0535 200.246 181.039C196.914 209.092 182.659 227.554 163.147 239.493C143.617 251.443 118.796 256.868 94.3479 258.777C69.9048 260.687 45.8721 259.079 27.9453 256.992C18.9832 255.949 11.55 254.786 6.35829 253.885C3.76249 253.434 1.72721 253.049 0.341524 252.776C-0.351319 252.639 -0.881744 252.531 -1.23863 252.457C-1.31236 252.442 -1.37868 252.428 -1.4375 252.416Z" stroke="url(#paint6_linear_1_89)" stroke-opacity="0.4"/>
<path d="M-1.4375 247.574V-0.414551H271.382C269.825 -0.0377841 267.998 0.50895 265.951 1.30195C259.075 3.96522 249.73 9.40077 239.757 20.4809C219.819 42.6346 197.394 87.3395 187.177 177.565C184.061 205.087 170.723 223.193 152.478 234.899C134.213 246.616 111.003 251.937 88.1356 253.809C65.2743 255.682 42.7958 254.105 26.0274 252.058C17.6446 251.035 10.6919 249.894 5.83587 249.01C3.40793 248.568 1.50433 248.19 0.208366 247.923C-0.439606 247.789 -0.935653 247.684 -1.26936 247.61C-1.33096 247.597 -1.38703 247.586 -1.4375 247.574Z" stroke="url(#paint7_linear_1_89)" stroke-opacity="0.2"/>
</g>
<g clip-path="url(#clip3_1_89)">
<path d="M942.142 845.266V1119.8H593.171C595.22 1119.38 597.653 1118.76 600.397 1117.84C609.166 1114.9 621.098 1108.89 633.833 1096.63C659.299 1072.12 687.952 1022.64 701.006 922.774C704.987 892.314 722.029 872.264 745.36 859.297C768.713 846.317 798.387 840.426 827.613 838.353C856.833 836.28 885.561 838.026 906.99 840.291C917.702 841.424 926.588 842.686 932.793 843.665C935.897 844.155 938.33 844.573 939.987 844.87C940.815 845.018 941.449 845.135 941.875 845.215C941.976 845.234 942.064 845.251 942.142 845.266Z" stroke="url(#paint8_linear_1_89)"/>
<path d="M942.142 852.965V1119.8H605.601C607.555 1119.39 609.863 1118.8 612.461 1117.92C620.923 1115.06 632.438 1109.21 644.726 1097.3C669.297 1073.47 696.941 1025.37 709.535 928.297C713.376 898.692 729.816 879.206 752.32 866.604C774.847 853.99 803.472 848.264 831.666 846.248C859.855 844.233 887.569 845.93 908.242 848.133C918.577 849.234 927.149 850.461 933.136 851.412C936.129 851.888 938.477 852.295 940.075 852.582C940.874 852.726 941.486 852.84 941.897 852.918C941.989 852.936 942.07 852.951 942.142 852.965Z" stroke="url(#paint9_linear_1_89)" stroke-opacity="0.6"/>
<path d="M942.142 859.612V1119.8H619.905C621.757 1119.4 623.936 1118.83 626.382 1117.98C634.492 1115.19 645.524 1109.49 657.296 1097.87C680.834 1074.63 707.314 1027.73 719.377 933.066C723.056 904.197 738.802 885.198 760.353 872.912C781.925 860.614 809.34 855.031 836.344 853.066C863.342 851.101 889.887 852.756 909.688 854.903C919.587 855.977 927.797 857.173 933.532 858.101C936.398 858.565 938.646 858.961 940.177 859.242C940.942 859.382 941.528 859.494 941.922 859.57C942.004 859.585 942.077 859.6 942.142 859.612Z" stroke="url(#paint10_linear_1_89)" stroke-opacity="0.4"/>
<path d="M942.142 864.595V1119.8H640.804C642.525 1119.41 644.542 1118.85 646.803 1118.03C654.397 1115.29 664.721 1109.7 675.735 1098.29C697.757 1075.5 722.526 1029.49 733.811 936.641C737.253 908.319 751.985 889.686 772.138 877.64C792.312 865.581 817.948 860.106 843.206 858.179C868.457 856.252 893.285 857.875 911.806 859.981C921.065 861.034 928.745 862.207 934.108 863.117C936.789 863.572 938.892 863.961 940.324 864.236C941.04 864.374 941.587 864.483 941.956 864.557C942.024 864.571 942.086 864.584 942.142 864.595Z" stroke="url(#paint11_linear_1_89)" stroke-opacity="0.2"/>
</g>
<g clip-path="url(#clip4_1_89)">
<path d="M-5.65601 845.076V1113.31H308.543C306.699 1112.9 304.509 1112.3 302.038 1111.4C294.143 1108.52 283.399 1102.65 271.933 1090.67C249.004 1066.72 223.206 1018.38 211.453 920.806C207.869 891.045 192.525 871.454 171.518 858.785C150.493 846.104 123.775 840.348 97.4613 838.322C71.153 836.296 45.2873 838.002 25.9938 840.216C16.3484 841.323 8.34839 842.556 2.76069 843.512C-0.0331004 843.991 -2.22368 844.4 -3.71519 844.689C-4.46094 844.834 -5.03191 844.948 -5.41611 845.027C-5.50646 845.045 -5.58647 845.062 -5.65601 845.076Z" stroke="url(#paint12_linear_1_89)"/>
<path d="M-5.65601 852.599V1113.31H297.352C295.593 1112.91 293.515 1112.33 291.176 1111.47C283.557 1108.68 273.189 1102.97 262.125 1091.32C240.002 1068.04 215.113 1021.05 203.774 926.202C200.316 897.276 185.514 878.237 165.252 865.924C144.97 853.6 119.197 848.005 93.8118 846.036C68.4318 844.067 43.4787 845.725 24.8658 847.877C15.5605 848.953 7.84264 850.152 2.45209 851.081C-0.24313 851.546 -2.3564 851.944 -3.79523 852.225C-4.51464 852.365 -5.06544 852.477 -5.43605 852.553C-5.51828 852.57 -5.59164 852.585 -5.65601 852.599Z" stroke="url(#paint13_linear_1_89)" stroke-opacity="0.6"/>
<path d="M-5.65601 859.094V1113.31H284.474C282.807 1112.92 280.844 1112.36 278.642 1111.54C271.34 1108.81 261.407 1103.24 250.808 1091.88C229.615 1069.18 205.773 1023.35 194.913 930.862C191.6 902.655 177.423 884.092 158.02 872.088C138.597 860.072 113.913 854.617 89.6002 852.697C65.2921 850.778 41.3922 852.394 23.5645 854.492C14.6518 855.541 7.25973 856.71 2.09671 857.617C-0.484742 858.07 -2.50878 858.458 -3.88681 858.732C-4.57583 858.869 -5.10332 858.977 -5.45823 859.052C-5.53155 859.067 -5.59751 859.081 -5.65601 859.094Z" stroke="url(#paint14_linear_1_89)" stroke-opacity="0.4"/>
<path d="M-5.65601 863.962V1113.31H265.657C264.108 1112.93 262.291 1112.38 260.255 1111.58C253.418 1108.9 244.123 1103.44 234.206 1092.3C214.378 1070.02 192.077 1025.07 181.917 934.354C178.817 906.682 165.553 888.477 147.409 876.707C129.245 864.925 106.163 859.576 83.4223 857.693C60.6872 855.81 38.3329 857.396 21.6572 859.453C13.3207 860.482 6.40635 861.629 1.57718 862.518C-0.837338 862.962 -2.73043 863.342 -4.01923 863.611C-4.66363 863.746 -5.15693 863.852 -5.48879 863.925C-5.55005 863.939 -5.60581 863.951 -5.65601 863.962Z" stroke="url(#paint15_linear_1_89)" stroke-opacity="0.2"/>
</g>
</g>
<defs>
<linearGradient id="paint0_linear_1_89" x1="774.873" y1="-5.84073" x2="774.873" y2="272.383" gradientUnits="userSpaceOnUse">
<stop stop-color="#6769D0"/>
<stop offset="1" stop-color="#8F6AC0"/>
</linearGradient>
<linearGradient id="paint1_linear_1_89" x1="781.457" y1="-5.8399" x2="781.457" y2="264.601" gradientUnits="userSpaceOnUse">
<stop stop-color="#6769D0"/>
<stop offset="1" stop-color="#8F6AC0"/>
</linearGradient>
<linearGradient id="paint2_linear_1_89" x1="789.053" y1="-5.83988" x2="789.053" y2="257.882" gradientUnits="userSpaceOnUse">
<stop stop-color="#6769D0"/>
<stop offset="1" stop-color="#8F6AC0"/>
</linearGradient>
<linearGradient id="paint3_linear_1_89" x1="800.195" y1="-5.83987" x2="800.195" y2="252.843" gradientUnits="userSpaceOnUse">
<stop stop-color="#6769D0"/>
<stop offset="1" stop-color="#8F6AC0"/>
</linearGradient>
<linearGradient id="paint4_linear_1_89" x1="159.563" y1="-0.831667" x2="159.563" y2="274.389" gradientUnits="userSpaceOnUse">
<stop stop-color="#6769D0"/>
<stop offset="1" stop-color="#8F6AC0"/>
</linearGradient>
<linearGradient id="paint5_linear_1_89" x1="153.875" y1="-0.830846" x2="153.875" y2="266.692" gradientUnits="userSpaceOnUse">
<stop stop-color="#6769D0"/>
<stop offset="1" stop-color="#8F6AC0"/>
</linearGradient>
<linearGradient id="paint6_linear_1_89" x1="147.312" y1="-0.830824" x2="147.312" y2="260.045" gradientUnits="userSpaceOnUse">
<stop stop-color="#6769D0"/>
<stop offset="1" stop-color="#8F6AC0"/>
</linearGradient>
<linearGradient id="paint7_linear_1_89" x1="137.688" y1="-0.830808" x2="137.688" y2="255.06" gradientUnits="userSpaceOnUse">
<stop stop-color="#6769D0"/>
<stop offset="1" stop-color="#8F6AC0"/>
</linearGradient>
<linearGradient id="paint8_linear_1_89" x1="764.313" y1="1120.23" x2="764.313" y2="837" gradientUnits="userSpaceOnUse">
<stop stop-color="#6769D0"/>
<stop offset="1" stop-color="#8F6AC0"/>
</linearGradient>
<linearGradient id="paint9_linear_1_89" x1="770.595" y1="1120.23" x2="770.595" y2="844.921" gradientUnits="userSpaceOnUse">
<stop stop-color="#6769D0"/>
<stop offset="1" stop-color="#8F6AC0"/>
</linearGradient>
<linearGradient id="paint10_linear_1_89" x1="777.843" y1="1120.23" x2="777.843" y2="851.761" gradientUnits="userSpaceOnUse">
<stop stop-color="#6769D0"/>
<stop offset="1" stop-color="#8F6AC0"/>
</linearGradient>
<linearGradient id="paint11_linear_1_89" x1="788.474" y1="1120.23" x2="788.474" y2="856.891" gradientUnits="userSpaceOnUse">
<stop stop-color="#6769D0"/>
<stop offset="1" stop-color="#8F6AC0"/>
</linearGradient>
<linearGradient id="paint12_linear_1_89" x1="154.455" y1="1113.73" x2="154.455" y2="837" gradientUnits="userSpaceOnUse">
<stop stop-color="#6769D0"/>
<stop offset="1" stop-color="#8F6AC0"/>
</linearGradient>
<linearGradient id="paint13_linear_1_89" x1="148.798" y1="1113.73" x2="148.798" y2="844.74" gradientUnits="userSpaceOnUse">
<stop stop-color="#6769D0"/>
<stop offset="1" stop-color="#8F6AC0"/>
</linearGradient>
<linearGradient id="paint14_linear_1_89" x1="142.272" y1="1113.73" x2="142.272" y2="851.423" gradientUnits="userSpaceOnUse">
<stop stop-color="#6769D0"/>
<stop offset="1" stop-color="#8F6AC0"/>
</linearGradient>
<linearGradient id="paint15_linear_1_89" x1="132.7" y1="1113.73" x2="132.7" y2="856.435" gradientUnits="userSpaceOnUse">
<stop stop-color="#6769D0"/>
<stop offset="1" stop-color="#8F6AC0"/>
</linearGradient>
<clipPath id="clip0_1_89">
<rect width="903" height="1111" fill="white"/>
</clipPath>
<clipPath id="clip1_1_89">
<rect width="315" height="278" fill="white" transform="translate(588 -5)"/>
</clipPath>
<clipPath id="clip2_1_89">
<rect width="315" height="275" fill="white" transform="translate(6)"/>
</clipPath>
<clipPath id="clip3_1_89">
<rect width="317" height="283" fill="white" transform="translate(586 837)"/>
</clipPath>
<clipPath id="clip4_1_89">
<rect width="315" height="274" fill="white" transform="translate(0 837)"/>
</clipPath>
</defs>
</svg>
