<svg width="1121" height="814" viewBox="0 0 1121 814" fill="none" xmlns="http://www.w3.org/2000/svg">
<g clip-path="url(#clip0_1_89)">
<rect width="1121" height="814" fill="white"/>
<g clip-path="url(#clip1_1_89)">
<path d="M1189.22 326.408V-0.509033H760.804C763.319 -0.0119982 766.306 0.726398 769.674 1.82279C780.44 5.32706 795.089 12.4833 810.723 27.0813C841.987 56.272 877.163 115.19 893.189 234.111C898.077 270.383 918.998 294.259 947.641 309.701C976.31 325.156 1012.74 332.172 1048.62 334.641C1084.49 337.109 1119.76 335.03 1146.07 332.332C1159.22 330.983 1170.13 329.48 1177.75 328.314C1181.56 327.732 1184.54 327.233 1186.58 326.881C1187.59 326.705 1188.37 326.564 1188.9 326.469C1189.02 326.446 1189.13 326.426 1189.22 326.408Z" stroke="url(#paint0_linear_1_89)"/>
<path d="M1189.22 317.24V-0.507935H776.063C778.462 -0.0249923 781.296 0.685836 784.485 1.73156C794.874 5.13897 809.01 12.0967 824.096 26.2882C854.262 54.6655 888.199 111.938 903.66 227.534C908.375 262.788 928.558 285.993 956.185 300.999C983.841 316.021 1018.98 322.839 1053.6 325.239C1088.2 327.638 1122.23 325.617 1147.61 322.995C1160.29 321.683 1170.82 320.222 1178.17 319.089C1181.84 318.523 1184.72 318.038 1186.69 317.696C1187.67 317.524 1188.42 317.389 1188.92 317.296C1189.04 317.275 1189.14 317.257 1189.22 317.24Z" stroke="url(#paint1_linear_1_89)" stroke-opacity="0.6"/>
<path d="M1189.22 309.324V-0.508057H793.623C795.897 -0.0373813 798.572 0.649759 801.576 1.65244C811.532 4.97675 825.075 11.7638 839.527 25.6045C868.425 53.2797 900.934 109.131 915.742 221.855C920.259 256.233 939.59 278.857 966.047 293.487C992.531 308.132 1026.19 314.78 1059.34 317.12C1092.48 319.46 1125.07 317.49 1149.38 314.932C1161.53 313.654 1171.61 312.229 1178.65 311.124C1182.17 310.572 1184.93 310.1 1186.81 309.765C1187.75 309.598 1188.47 309.466 1188.95 309.375C1189.05 309.357 1189.14 309.34 1189.22 309.324Z" stroke="url(#paint2_linear_1_89)" stroke-opacity="0.4"/>
<path d="M1189.22 303.391V-0.508057H819.281C821.393 -0.0463462 823.87 0.623651 826.646 1.59543C835.969 4.85915 848.643 11.5202 862.164 25.0983C889.2 52.2468 919.609 107.031 933.463 217.598C937.689 251.325 955.775 273.513 980.515 287.858C1005.28 302.217 1036.76 308.737 1067.76 311.032C1098.76 313.326 1129.24 311.394 1151.98 308.885C1163.35 307.632 1172.78 306.234 1179.36 305.151C1182.65 304.609 1185.23 304.146 1186.99 303.818C1187.87 303.654 1188.54 303.525 1189 303.435C1189.08 303.419 1189.15 303.405 1189.22 303.391Z" stroke="url(#paint3_linear_1_89)" stroke-opacity="0.2"/>
</g>
<g clip-path="url(#clip2_1_89)">
<path d="M-3.01953 327.377V-0.510498H380.127C377.877 -0.0119882 375.206 0.728599 372.194 1.82825C362.566 5.34292 349.465 12.5204 335.482 27.1617C307.522 56.439 276.063 115.532 261.731 234.806C257.36 271.185 238.65 295.132 213.033 310.62C187.394 326.121 154.813 333.158 122.725 335.634C90.6441 338.109 59.1026 336.024 35.5754 333.318C23.8134 331.965 14.0579 330.458 7.24409 329.289C3.83724 328.705 1.16597 328.204 -0.652828 327.851C-1.56222 327.674 -2.25848 327.533 -2.72699 327.437C-2.83717 327.415 -2.93474 327.394 -3.01953 327.377Z" stroke="url(#paint4_linear_1_89)"/>
<path d="M-3.01953 318.182V-0.509521H366.48C364.334 -0.0251462 361.8 0.687791 358.948 1.73662C349.657 5.15413 337.015 12.1325 323.523 26.3661C296.545 54.8276 266.194 112.27 252.367 228.209C248.15 263.567 230.1 286.841 205.392 301.892C180.659 316.958 149.231 323.797 118.275 326.204C87.3258 328.61 56.8971 326.583 34.1998 323.953C22.8526 322.638 13.4412 321.172 6.86777 320.036C3.58112 319.468 1.00413 318.982 -0.750441 318.639C-1.62771 318.466 -2.29938 318.331 -2.7513 318.238C-2.85159 318.216 -2.94104 318.198 -3.01953 318.182Z" stroke="url(#paint5_linear_1_89)" stroke-opacity="0.6"/>
<path d="M-3.01953 310.242V-0.509521H350.775C348.742 -0.0374496 346.349 0.65173 343.664 1.65738C334.759 4.99156 322.647 11.7987 309.722 25.6805C283.878 53.4378 254.805 109.455 241.561 222.513C237.522 256.993 220.234 279.684 196.572 294.358C172.887 309.046 142.788 315.714 113.139 318.061C83.4971 320.408 54.3527 318.432 32.613 315.867C21.7446 314.585 12.7304 313.155 6.4344 312.047C3.28649 311.494 0.818306 311.02 -0.862112 310.684C-1.70232 310.517 -2.34557 310.384 -2.77836 310.293C-2.86777 310.275 -2.9482 310.257 -3.01953 310.242Z" stroke="url(#paint6_linear_1_89)" stroke-opacity="0.4"/>
<path d="M-3.01953 304.291V-0.509521H327.829C325.94 -0.046441 323.724 0.625545 321.242 1.60021C312.904 4.87361 301.57 11.5544 289.477 25.1728C265.298 52.4019 238.103 107.348 225.714 218.244C221.934 252.07 205.759 274.324 183.633 288.712C161.483 303.114 133.336 309.653 105.606 311.955C77.8817 314.256 50.6221 312.318 30.2872 309.802C20.1213 308.545 11.6897 307.143 5.80087 306.056C2.85652 305.513 0.54802 305.049 -1.02359 304.72C-1.80939 304.555 -2.41094 304.426 -2.81563 304.336C-2.89033 304.319 -2.95833 304.305 -3.01953 304.291Z" stroke="url(#paint7_linear_1_89)" stroke-opacity="0.2"/>
</g>
<g clip-path="url(#clip3_1_89)">
<path d="M1166.56 482.96V813.758H760.347C762.733 813.255 765.564 812.507 768.758 811.399C778.966 807.853 792.855 800.611 807.68 785.84C837.323 756.303 870.676 696.686 885.872 576.353C890.505 539.65 910.343 515.491 937.501 499.866C964.685 484.227 999.227 477.128 1033.25 474.63C1067.26 472.132 1100.7 474.236 1125.64 476.966C1138.11 478.331 1148.46 479.852 1155.68 481.031C1159.29 481.621 1162.13 482.126 1164.05 482.482C1165.02 482.661 1165.76 482.802 1166.25 482.899C1166.37 482.922 1166.47 482.942 1166.56 482.96Z" stroke="url(#paint8_linear_1_89)"/>
<path d="M1166.56 492.237V813.757H774.816C777.09 813.269 779.778 812.549 782.801 811.49C792.652 808.043 806.055 801.003 820.359 786.643C848.961 757.929 881.14 699.976 895.8 583.008C900.271 547.335 919.407 523.855 945.602 508.671C971.825 493.472 1005.15 486.572 1037.96 484.144C1070.78 481.716 1103.04 483.761 1127.1 486.414C1139.13 487.741 1149.11 489.219 1156.08 490.366C1159.56 490.939 1162.3 491.429 1164.16 491.776C1165.09 491.949 1165.8 492.087 1166.28 492.181C1166.38 492.202 1166.48 492.221 1166.56 492.237Z" stroke="url(#paint9_linear_1_89)" stroke-opacity="0.6"/>
<path d="M1166.56 500.247V813.757H791.466C793.622 813.281 796.159 812.586 799.006 811.571C808.447 808.207 821.288 801.34 834.991 787.334C862.391 759.331 893.215 702.817 907.256 588.755C911.539 553.969 929.867 531.076 954.953 516.272C980.065 501.454 1011.98 494.726 1043.41 492.358C1074.84 489.991 1105.74 491.985 1128.79 494.572C1140.31 495.866 1149.86 497.308 1156.54 498.425C1159.88 498.984 1162.49 499.462 1164.28 499.801C1165.17 499.97 1165.85 500.104 1166.31 500.195C1166.4 500.214 1166.49 500.232 1166.56 500.247Z" stroke="url(#paint10_linear_1_89)" stroke-opacity="0.4"/>
<path d="M1166.56 506.251V813.757H815.794C817.797 813.289 820.145 812.611 822.777 811.628C831.617 808.326 843.634 801.586 856.455 787.846C882.089 760.375 910.922 704.942 924.057 593.062C928.065 558.935 945.213 536.483 968.672 521.968C992.155 507.438 1022 500.841 1051.4 498.519C1080.79 496.198 1109.69 498.153 1131.25 500.691C1142.03 501.959 1150.97 503.373 1157.21 504.47C1160.33 505.018 1162.78 505.487 1164.45 505.818C1165.28 505.984 1165.92 506.115 1166.35 506.205C1166.43 506.222 1166.5 506.237 1166.56 506.251Z" stroke="url(#paint11_linear_1_89)" stroke-opacity="0.2"/>
</g>
<g clip-path="url(#clip4_1_89)">
<path d="M-6.9668 481.962V812.849H380.047C377.775 812.346 375.077 811.598 372.034 810.489C362.31 806.943 349.076 799.699 334.952 784.924C306.71 755.379 274.933 695.746 260.456 575.381C256.041 538.668 237.142 514.502 211.267 498.873C185.369 483.23 152.459 476.129 120.047 473.63C87.6424 471.132 55.7825 473.236 32.0178 475.967C20.137 477.332 10.2831 478.854 3.40043 480.034C-0.0408058 480.624 -2.73904 481.128 -4.5762 481.485C-5.49478 481.663 -6.19806 481.805 -6.67131 481.902C-6.78259 481.924 -6.88115 481.945 -6.9668 481.962Z" stroke="url(#paint12_linear_1_89)"/>
<path d="M-6.9668 491.242V812.848H366.262C364.095 812.36 361.536 811.64 358.655 810.581C349.27 807.133 336.5 800.091 322.872 785.727C295.622 757.005 264.964 699.037 250.997 582.038C246.738 546.355 228.506 522.869 203.549 507.68C178.566 492.477 146.821 485.576 115.552 483.147C84.2906 480.718 53.5547 482.763 30.6283 485.418C19.1665 486.745 9.66011 488.224 3.02031 489.37C-0.299509 489.944 -2.90252 490.434 -4.6748 490.781C-5.56093 490.954 -6.23937 491.092 -6.69586 491.186C-6.79716 491.207 -6.88751 491.226 -6.9668 491.242Z" stroke="url(#paint13_linear_1_89)" stroke-opacity="0.6"/>
<path d="M-6.9668 499.254V812.848H350.399C348.346 812.372 345.929 811.677 343.216 810.662C334.221 807.297 321.988 800.428 308.932 786.418C282.827 758.408 253.461 701.878 240.083 587.786C236.003 552.99 218.541 530.091 194.64 515.284C170.716 500.461 140.312 493.732 110.365 491.363C80.4232 488.996 50.9846 490.99 29.0255 493.578C18.0473 494.872 8.9421 496.314 2.58258 497.432C-0.597114 497.991 -3.09022 498.47 -4.7876 498.808C-5.63629 498.977 -6.28603 499.111 -6.72319 499.203C-6.8135 499.222 -6.89475 499.239 -6.9668 499.254Z" stroke="url(#paint14_linear_1_89)" stroke-opacity="0.4"/>
<path d="M-6.9668 505.26V812.848H327.221C325.313 812.38 323.075 811.702 320.568 810.719C312.146 807.416 300.698 800.674 288.482 786.93C264.06 759.452 236.59 704.004 224.075 592.094C220.258 557.958 203.92 535.5 181.57 520.982C159.197 506.448 130.766 499.849 102.755 497.526C74.7512 495.204 47.2163 497.16 26.6761 499.698C16.4076 500.967 7.89096 502.381 1.94265 503.478C-1.03142 504.026 -3.36323 504.495 -4.95071 504.827C-5.74444 504.993 -6.35206 505.124 -6.76084 505.214C-6.83629 505.231 -6.90497 505.246 -6.9668 505.26Z" stroke="url(#paint15_linear_1_89)" stroke-opacity="0.2"/>
</g>
</g>
<defs>
<linearGradient id="paint0_linear_1_89" x1="970.908" y1="-1.01922" x2="970.908" y2="336.252" gradientUnits="userSpaceOnUse">
<stop stop-color="#6769D0"/>
<stop offset="1" stop-color="#8F6AC0"/>
</linearGradient>
<linearGradient id="paint1_linear_1_89" x1="978.621" y1="-1.01809" x2="978.621" y2="326.819" gradientUnits="userSpaceOnUse">
<stop stop-color="#6769D0"/>
<stop offset="1" stop-color="#8F6AC0"/>
</linearGradient>
<linearGradient id="paint2_linear_1_89" x1="987.519" y1="-1.01818" x2="987.519" y2="318.674" gradientUnits="userSpaceOnUse">
<stop stop-color="#6769D0"/>
<stop offset="1" stop-color="#8F6AC0"/>
</linearGradient>
<linearGradient id="paint3_linear_1_89" x1="1000.57" y1="-1.01816" x2="1000.57" y2="312.565" gradientUnits="userSpaceOnUse">
<stop stop-color="#6769D0"/>
<stop offset="1" stop-color="#8F6AC0"/>
</linearGradient>
<linearGradient id="paint4_linear_1_89" x1="192.225" y1="-1.0222" x2="192.225" y2="337.249" gradientUnits="userSpaceOnUse">
<stop stop-color="#6769D0"/>
<stop offset="1" stop-color="#8F6AC0"/>
</linearGradient>
<linearGradient id="paint5_linear_1_89" x1="185.328" y1="-1.02119" x2="185.328" y2="327.788" gradientUnits="userSpaceOnUse">
<stop stop-color="#6769D0"/>
<stop offset="1" stop-color="#8F6AC0"/>
</linearGradient>
<linearGradient id="paint6_linear_1_89" x1="177.369" y1="-1.02116" x2="177.369" y2="319.619" gradientUnits="userSpaceOnUse">
<stop stop-color="#6769D0"/>
<stop offset="1" stop-color="#8F6AC0"/>
</linearGradient>
<linearGradient id="paint7_linear_1_89" x1="165.697" y1="-1.02114" x2="165.697" y2="313.492" gradientUnits="userSpaceOnUse">
<stop stop-color="#6769D0"/>
<stop offset="1" stop-color="#8F6AC0"/>
</linearGradient>
<linearGradient id="paint8_linear_1_89" x1="959.562" y1="814.274" x2="959.562" y2="473" gradientUnits="userSpaceOnUse">
<stop stop-color="#6769D0"/>
<stop offset="1" stop-color="#8F6AC0"/>
</linearGradient>
<linearGradient id="paint9_linear_1_89" x1="966.875" y1="814.273" x2="966.875" y2="482.545" gradientUnits="userSpaceOnUse">
<stop stop-color="#6769D0"/>
<stop offset="1" stop-color="#8F6AC0"/>
</linearGradient>
<linearGradient id="paint10_linear_1_89" x1="975.313" y1="814.273" x2="975.313" y2="490.787" gradientUnits="userSpaceOnUse">
<stop stop-color="#6769D0"/>
<stop offset="1" stop-color="#8F6AC0"/>
</linearGradient>
<linearGradient id="paint11_linear_1_89" x1="987.687" y1="814.273" x2="987.687" y2="496.968" gradientUnits="userSpaceOnUse">
<stop stop-color="#6769D0"/>
<stop offset="1" stop-color="#8F6AC0"/>
</linearGradient>
<linearGradient id="paint12_linear_1_89" x1="190.249" y1="813.366" x2="190.249" y2="472" gradientUnits="userSpaceOnUse">
<stop stop-color="#6769D0"/>
<stop offset="1" stop-color="#8F6AC0"/>
</linearGradient>
<linearGradient id="paint13_linear_1_89" x1="183.282" y1="813.365" x2="183.282" y2="481.547" gradientUnits="userSpaceOnUse">
<stop stop-color="#6769D0"/>
<stop offset="1" stop-color="#8F6AC0"/>
</linearGradient>
<linearGradient id="paint14_linear_1_89" x1="175.243" y1="813.365" x2="175.243" y2="489.791" gradientUnits="userSpaceOnUse">
<stop stop-color="#6769D0"/>
<stop offset="1" stop-color="#8F6AC0"/>
</linearGradient>
<linearGradient id="paint15_linear_1_89" x1="163.453" y1="813.365" x2="163.453" y2="495.974" gradientUnits="userSpaceOnUse">
<stop stop-color="#6769D0"/>
<stop offset="1" stop-color="#8F6AC0"/>
</linearGradient>
<clipPath id="clip0_1_89">
<rect width="1121" height="814" fill="white"/>
</clipPath>
<clipPath id="clip1_1_89">
<rect width="369" height="337" fill="white" transform="translate(752)"/>
</clipPath>
<clipPath id="clip2_1_89">
<rect width="382" height="338" fill="white" transform="translate(6)"/>
</clipPath>
<clipPath id="clip3_1_89">
<rect width="369" height="341" fill="white" transform="translate(752 473)"/>
</clipPath>
<clipPath id="clip4_1_89">
<rect width="388" height="338" fill="white" transform="translate(0 472)"/>
</clipPath>
</defs>
</svg>
