<svg width="508" height="814" viewBox="0 0 508 814" fill="none" xmlns="http://www.w3.org/2000/svg">
<g clip-path="url(#clip0_1_89)">
<rect width="508" height="814" fill="white"/>
<g clip-path="url(#clip1_1_89)">
<path d="M549.415 182.028V-2.28699H289.344C290.871 -2.00676 292.684 -1.59045 294.729 -0.972308C301.264 1.00339 310.157 5.03808 319.648 13.2684C338.626 29.726 359.98 62.9438 369.708 129.991C372.675 150.441 385.376 163.903 402.763 172.609C420.167 181.322 442.282 185.278 464.062 186.67C485.838 188.061 507.248 186.889 523.218 185.368C531.201 184.608 537.823 183.76 542.448 183.103C544.761 182.775 546.574 182.493 547.809 182.295C548.426 182.196 548.898 182.116 549.216 182.062C549.291 182.05 549.357 182.038 549.415 182.028Z" stroke="url(#paint0_linear_1_89)"/>
<path d="M549.415 176.859V-2.28638H298.607C300.064 -2.01409 301.784 -1.61333 303.72 -1.02375C310.027 0.897335 318.608 4.8201 327.766 12.8212C346.077 28.8203 366.679 61.1104 376.065 126.283C378.927 146.159 391.179 159.242 407.95 167.703C424.738 176.172 446.071 180.016 467.083 181.369C488.091 182.722 508.745 181.582 524.151 180.104C531.854 179.364 538.241 178.541 542.703 177.902C544.934 177.583 546.684 177.31 547.875 177.117C548.47 177.02 548.926 176.943 549.233 176.891C549.301 176.879 549.362 176.869 549.415 176.859Z" stroke="url(#paint1_linear_1_89)" stroke-opacity="0.6"/>
<path d="M549.415 172.396V-2.28638H309.267C310.648 -2.02101 312.272 -1.6336 314.095 -1.06829C320.139 0.805949 328.36 4.63247 337.133 12.4358C354.675 28.039 374.41 59.5279 383.399 123.081C386.141 142.464 397.876 155.219 413.937 163.468C430.013 171.724 450.444 175.473 470.569 176.792C490.689 178.111 510.472 177 525.229 175.558C532.605 174.838 538.724 174.034 542.998 173.411C545.134 173.1 546.81 172.834 547.951 172.645C548.521 172.551 548.957 172.476 549.251 172.425C549.312 172.415 549.367 172.405 549.415 172.396Z" stroke="url(#paint2_linear_1_89)" stroke-opacity="0.4"/>
<path d="M549.415 169.051V-2.28638H324.843C326.125 -2.02607 327.629 -1.64832 329.314 -1.10043C334.973 0.739644 342.667 4.49512 350.875 12.1505C367.287 27.4567 385.746 58.3437 394.156 120.681C396.722 139.696 407.701 152.206 422.719 160.294C437.754 168.389 456.86 172.065 475.683 173.359C494.501 174.653 513.004 173.563 526.807 172.149C533.707 171.442 539.431 170.654 543.428 170.044C545.426 169.738 546.993 169.477 548.06 169.292C548.594 169.2 549.001 169.127 549.277 169.076C549.327 169.067 549.373 169.059 549.415 169.051Z" stroke="url(#paint3_linear_1_89)" stroke-opacity="0.2"/>
</g>
<g clip-path="url(#clip2_1_89)">
<path d="M-4.3833 182.091V-0.283936H224.301C222.958 -0.00665789 221.364 0.405266 219.566 1.0169C213.82 2.97181 206 6.96403 197.654 15.1077C180.966 31.3921 162.19 64.2602 153.635 130.602C151.027 150.837 139.859 164.156 124.57 172.771C109.266 181.393 89.8206 185.307 70.6686 186.684C51.5207 188.061 32.6948 186.901 18.6524 185.396C11.6322 184.643 5.80953 183.805 1.74263 183.155C-0.290776 182.83 -1.88515 182.551 -2.97071 182.355C-3.51349 182.257 -3.92906 182.178 -4.2087 182.125C-4.27446 182.112 -4.33269 182.101 -4.3833 182.091Z" stroke="url(#paint4_linear_1_89)"/>
<path d="M-4.3833 176.977V-0.283325H216.155C214.875 -0.0139093 213.362 0.382636 211.66 0.966007C206.115 2.86687 198.569 6.74835 190.516 14.6652C174.414 30.4959 156.299 62.4462 148.046 126.933C145.529 146.6 134.756 159.545 120.009 167.916C105.247 176.296 86.4886 180.1 68.0124 181.439C49.5401 182.778 31.3784 181.65 17.8314 180.187C11.0587 179.455 5.44143 178.64 1.51802 178.008C-0.443644 177.692 -1.98174 177.422 -3.02897 177.231C-3.55258 177.135 -3.95347 177.06 -4.22321 177.008C-4.28306 176.996 -4.33645 176.986 -4.3833 176.977Z" stroke="url(#paint5_linear_1_89)" stroke-opacity="0.6"/>
<path d="M-4.3833 172.561V-0.283447H206.782C205.569 -0.0208747 204.14 0.362456 202.537 0.921813C197.223 2.77633 189.994 6.56257 182.279 14.2838C166.854 29.7227 149.501 60.8801 141.597 123.765C139.186 142.943 128.867 155.564 114.745 163.726C100.608 171.896 82.643 175.604 64.9471 176.91C47.2549 178.215 29.8598 177.116 16.8843 175.689C10.3974 174.976 5.01716 174.181 1.25936 173.565C-0.619496 173.257 -2.09265 172.993 -3.09563 172.807C-3.59711 172.713 -3.98104 172.64 -4.23936 172.589C-4.29272 172.579 -4.34073 172.569 -4.3833 172.561Z" stroke="url(#paint6_linear_1_89)" stroke-opacity="0.4"/>
<path d="M-4.3833 169.251V-0.283447H193.086C191.959 -0.0258758 190.637 0.347891 189.155 0.890012C184.178 2.71072 177.414 6.42666 170.196 14.0014C155.765 29.1465 139.533 59.7084 132.138 121.39C129.882 140.205 120.228 152.583 107.022 160.585C93.8017 168.596 77.0019 172.233 60.4506 173.513C43.9033 174.793 27.6332 173.715 15.4961 172.316C9.4285 171.617 4.39605 170.837 0.881234 170.233C-0.876129 169.93 -2.25398 169.672 -3.19201 169.489C-3.66102 169.398 -4.02006 169.325 -4.2616 169.275C-4.30619 169.266 -4.34677 169.258 -4.3833 169.251Z" stroke="url(#paint7_linear_1_89)" stroke-opacity="0.2"/>
</g>
<g clip-path="url(#clip3_1_89)">
<path d="M540.659 629.666V817.862H294.067C295.515 817.576 297.234 817.151 299.173 816.52C305.369 814.503 313.801 810.383 322.8 801.979C340.795 785.175 361.042 751.258 370.266 682.799C373.079 661.918 385.121 648.174 401.608 639.285C418.109 630.387 439.078 626.349 459.73 624.927C480.377 623.506 500.677 624.703 515.819 626.256C523.389 627.033 529.668 627.898 534.053 628.569C536.246 628.905 537.965 629.192 539.136 629.395C539.721 629.496 540.169 629.577 540.47 629.632C540.541 629.645 540.604 629.656 540.659 629.666Z" stroke="url(#paint8_linear_1_89)"/>
<path d="M540.659 634.944V817.862H302.85C304.231 817.584 305.862 817.174 307.698 816.572C313.678 814.611 321.814 810.606 330.497 802.436C347.86 786.1 367.394 753.13 376.293 686.585C379.007 666.291 390.624 652.932 406.526 644.294C422.444 635.647 442.671 631.721 462.594 630.34C482.513 628.959 502.096 630.122 516.704 631.632C524.007 632.386 530.064 633.227 534.295 633.88C536.41 634.206 538.069 634.485 539.198 634.682C539.763 634.781 540.195 634.859 540.486 634.912C540.551 634.924 540.608 634.935 540.659 634.944Z" stroke="url(#paint9_linear_1_89)" stroke-opacity="0.6"/>
<path d="M540.659 639.501V817.862H312.958C314.266 817.591 315.806 817.195 317.535 816.618C323.266 814.704 331.061 810.797 339.379 802.829C356.012 786.898 374.724 754.746 383.247 689.855C385.847 670.064 396.973 657.04 412.202 648.618C427.446 640.188 446.818 636.36 465.899 635.013C484.977 633.666 503.734 634.801 517.726 636.273C524.72 637.009 530.522 637.829 534.574 638.465C536.6 638.783 538.188 639.055 539.27 639.247C539.811 639.343 540.225 639.42 540.504 639.472C540.561 639.483 540.613 639.492 540.659 639.501Z" stroke="url(#paint10_linear_1_89)" stroke-opacity="0.4"/>
<path d="M540.658 642.917V817.862H327.726C328.942 817.596 330.367 817.21 331.965 816.651C337.331 814.772 344.626 810.937 352.409 803.121C367.97 787.492 385.473 755.955 393.447 692.305C395.879 672.89 406.289 660.117 420.53 651.859C434.785 643.593 452.9 639.839 470.748 638.518C488.591 637.197 506.135 638.31 519.223 639.754C525.765 640.475 531.192 641.28 534.982 641.904C536.876 642.215 538.362 642.482 539.374 642.671C539.88 642.765 540.267 642.84 540.527 642.891C540.575 642.9 540.619 642.909 540.658 642.917Z" stroke="url(#paint11_linear_1_89)" stroke-opacity="0.2"/>
</g>
<g clip-path="url(#clip4_1_89)">
<path d="M-2.86047 625.718V815.635H211.593C210.334 815.347 208.839 814.917 207.153 814.281C201.764 812.245 194.431 808.088 186.605 799.607C170.955 782.649 153.347 748.422 145.325 679.337C142.879 658.265 132.406 644.395 118.068 635.424C103.717 626.446 85.4814 622.37 67.5211 620.936C49.5647 619.502 31.9104 620.71 18.7418 622.277C12.1584 623.061 6.69808 623.934 2.88426 624.611C0.977382 624.95 -0.517775 625.239 -1.53579 625.444C-2.04479 625.546 -2.4345 625.628 -2.69674 625.683C-2.7584 625.696 -2.81301 625.708 -2.86047 625.718Z" stroke="url(#paint12_linear_1_89)"/>
<path d="M-2.86047 631.044V815.635H203.955C202.754 815.354 201.335 814.941 199.739 814.334C194.539 812.355 187.463 808.313 179.911 800.068C164.811 783.583 147.823 750.311 140.084 683.158C137.723 662.677 127.621 649.197 113.791 640.479C99.9475 631.753 82.3567 627.792 65.0302 626.398C47.7074 625.004 30.6759 626.178 17.9718 627.701C11.6206 628.463 6.35289 629.312 2.67362 629.97C0.834028 630.299 -0.60836 630.581 -1.59042 630.78C-2.08145 630.879 -2.45739 630.958 -2.71034 631.012C-2.76647 631.024 -2.81654 631.035 -2.86047 631.044Z" stroke="url(#paint13_linear_1_89)" stroke-opacity="0.6"/>
<path d="M-2.86047 635.643V815.635H195.165C194.027 815.362 192.687 814.962 191.184 814.38C186.2 812.449 179.421 808.506 172.186 800.465C157.721 784.388 141.448 751.942 134.036 686.457C131.775 666.486 122.098 653.342 108.855 644.843C95.5977 636.336 78.7504 632.473 62.1556 631.114C45.5644 629.755 29.2518 630.9 17.0837 632.385C11.0004 633.128 5.95503 633.955 2.43106 634.597C0.669119 634.918 -0.712368 635.193 -1.65293 635.387C-2.12321 635.484 -2.48324 635.561 -2.72549 635.613C-2.77553 635.624 -2.82055 635.634 -2.86047 635.643Z" stroke="url(#paint14_linear_1_89)" stroke-opacity="0.4"/>
<path d="M-2.86047 639.09V815.635H182.321C181.264 815.366 180.024 814.977 178.635 814.413C173.968 812.517 167.624 808.647 160.855 800.759C147.322 784.988 132.1 753.162 125.165 688.93C123.05 669.337 113.997 656.447 101.612 648.114C89.2148 639.772 73.4604 635.984 57.939 634.651C42.4214 633.318 27.1637 634.441 15.7819 635.898C10.0919 636.626 5.37256 637.438 2.07646 638.067C0.428458 638.382 -0.863652 638.651 -1.74331 638.841C-2.18313 638.937 -2.51984 639.012 -2.74635 639.064C-2.78816 639.073 -2.82622 639.082 -2.86047 639.09Z" stroke="url(#paint15_linear_1_89)" stroke-opacity="0.2"/>
</g>
</g>
<defs>
<linearGradient id="paint0_linear_1_89" x1="416.888" y1="-2.57463" x2="416.888" y2="187.578" gradientUnits="userSpaceOnUse">
<stop stop-color="#6769D0"/>
<stop offset="1" stop-color="#8F6AC0"/>
</linearGradient>
<linearGradient id="paint1_linear_1_89" x1="421.569" y1="-2.574" x2="421.569" y2="182.26" gradientUnits="userSpaceOnUse">
<stop stop-color="#6769D0"/>
<stop offset="1" stop-color="#8F6AC0"/>
</linearGradient>
<linearGradient id="paint2_linear_1_89" x1="426.971" y1="-2.57398" x2="426.971" y2="177.668" gradientUnits="userSpaceOnUse">
<stop stop-color="#6769D0"/>
<stop offset="1" stop-color="#8F6AC0"/>
</linearGradient>
<linearGradient id="paint3_linear_1_89" x1="434.894" y1="-2.57397" x2="434.894" y2="174.224" gradientUnits="userSpaceOnUse">
<stop stop-color="#6769D0"/>
<stop offset="1" stop-color="#8F6AC0"/>
</linearGradient>
<linearGradient id="paint4_linear_1_89" x1="112.15" y1="-0.568549" x2="112.15" y2="187.583" gradientUnits="userSpaceOnUse">
<stop stop-color="#6769D0"/>
<stop offset="1" stop-color="#8F6AC0"/>
</linearGradient>
<linearGradient id="paint5_linear_1_89" x1="108.033" y1="-0.56792" x2="108.033" y2="182.32" gradientUnits="userSpaceOnUse">
<stop stop-color="#6769D0"/>
<stop offset="1" stop-color="#8F6AC0"/>
</linearGradient>
<linearGradient id="paint6_linear_1_89" x1="103.283" y1="-0.568027" x2="103.283" y2="177.776" gradientUnits="userSpaceOnUse">
<stop stop-color="#6769D0"/>
<stop offset="1" stop-color="#8F6AC0"/>
</linearGradient>
<linearGradient id="paint7_linear_1_89" x1="96.3167" y1="-0.568016" x2="96.3167" y2="174.369" gradientUnits="userSpaceOnUse">
<stop stop-color="#6769D0"/>
<stop offset="1" stop-color="#8F6AC0"/>
</linearGradient>
<linearGradient id="paint8_linear_1_89" x1="415" y1="818.156" x2="415" y2="624" gradientUnits="userSpaceOnUse">
<stop stop-color="#6769D0"/>
<stop offset="1" stop-color="#8F6AC0"/>
</linearGradient>
<linearGradient id="paint9_linear_1_89" x1="419.439" y1="818.155" x2="419.439" y2="629.43" gradientUnits="userSpaceOnUse">
<stop stop-color="#6769D0"/>
<stop offset="1" stop-color="#8F6AC0"/>
</linearGradient>
<linearGradient id="paint10_linear_1_89" x1="424.561" y1="818.155" x2="424.561" y2="634.119" gradientUnits="userSpaceOnUse">
<stop stop-color="#6769D0"/>
<stop offset="1" stop-color="#8F6AC0"/>
</linearGradient>
<linearGradient id="paint11_linear_1_89" x1="432.073" y1="818.155" x2="432.073" y2="637.636" gradientUnits="userSpaceOnUse">
<stop stop-color="#6769D0"/>
<stop offset="1" stop-color="#8F6AC0"/>
</linearGradient>
<linearGradient id="paint12_linear_1_89" x1="106.421" y1="815.932" x2="106.421" y2="620" gradientUnits="userSpaceOnUse">
<stop stop-color="#6769D0"/>
<stop offset="1" stop-color="#8F6AC0"/>
</linearGradient>
<linearGradient id="paint13_linear_1_89" x1="102.561" y1="815.931" x2="102.561" y2="625.48" gradientUnits="userSpaceOnUse">
<stop stop-color="#6769D0"/>
<stop offset="1" stop-color="#8F6AC0"/>
</linearGradient>
<linearGradient id="paint14_linear_1_89" x1="98.1064" y1="815.931" x2="98.1064" y2="630.212" gradientUnits="userSpaceOnUse">
<stop stop-color="#6769D0"/>
<stop offset="1" stop-color="#8F6AC0"/>
</linearGradient>
<linearGradient id="paint15_linear_1_89" x1="91.5732" y1="815.931" x2="91.5732" y2="633.76" gradientUnits="userSpaceOnUse">
<stop stop-color="#6769D0"/>
<stop offset="1" stop-color="#8F6AC0"/>
</linearGradient>
<clipPath id="clip0_1_89">
<rect width="508" height="814" fill="white"/>
</clipPath>
<clipPath id="clip1_1_89">
<rect width="224" height="190" fill="white" transform="translate(284 -2)"/>
</clipPath>
<clipPath id="clip2_1_89">
<rect width="228" height="188" fill="white" transform="translate(1)"/>
</clipPath>
<clipPath id="clip3_1_89">
<rect width="224" height="194" fill="white" transform="translate(289 624)"/>
</clipPath>
<clipPath id="clip4_1_89">
<rect width="215" height="194" fill="white" transform="translate(1 620)"/>
</clipPath>
</defs>
</svg>
