<svg width="606" height="602" viewBox="0 0 606 602" fill="none" xmlns="http://www.w3.org/2000/svg">
<g clip-path="url(#clip0_1_89)">
<rect width="606" height="602" fill="white"/>
<g clip-path="url(#clip1_1_89)">
<path d="M645.381 232.457V-0.362488H398.082C399.534 -0.00851629 401.258 0.517344 403.202 1.29816C409.416 3.79378 417.872 8.89023 426.897 19.2864C444.944 40.075 465.249 82.0343 474.5 166.726C477.321 192.558 489.397 209.561 505.931 220.559C522.48 231.565 543.509 236.562 564.22 238.32C584.927 240.078 605.285 238.597 620.47 236.676C628.062 235.715 634.358 234.645 638.756 233.814C640.955 233.4 642.68 233.044 643.854 232.794C644.441 232.668 644.89 232.568 645.192 232.5C645.263 232.484 645.326 232.469 645.381 232.457Z" stroke="url(#paint0_linear_1_89)"/>
<path d="M645.381 225.928V-0.361755H406.89C408.275 -0.0178202 409.911 0.488408 411.751 1.23314C417.749 3.65978 425.908 8.61485 434.616 18.7215C452.029 38.9309 471.619 79.7185 480.544 162.042C483.265 187.149 494.915 203.674 510.863 214.361C526.827 225.059 547.112 229.915 567.092 231.624C587.068 233.333 606.708 231.894 621.358 230.026C628.682 229.092 634.756 228.052 638.999 227.245C641.12 226.841 642.784 226.496 643.917 226.253C644.482 226.13 644.916 226.034 645.208 225.968C645.273 225.952 645.33 225.939 645.381 225.928Z" stroke="url(#paint1_linear_1_89)" stroke-opacity="0.6"/>
<path d="M645.381 220.29V-0.361755H417.026C418.339 -0.0265563 419.883 0.462802 421.617 1.17688C427.364 3.54434 435.182 8.37784 443.524 18.2347C460.205 37.944 478.97 77.7194 487.518 157.998C490.125 182.481 501.283 198.592 516.556 209.012C531.843 219.441 551.271 224.176 570.407 225.842C589.539 227.508 608.351 226.105 622.382 224.284C629.397 223.374 635.215 222.359 639.279 221.572C641.311 221.179 642.904 220.843 643.989 220.604C644.531 220.485 644.946 220.391 645.226 220.327C645.283 220.314 645.335 220.301 645.381 220.29Z" stroke="url(#paint2_linear_1_89)" stroke-opacity="0.4"/>
<path d="M645.381 216.065V-0.361816H431.837C433.056 -0.0330018 434.486 0.444148 436.088 1.13622C441.47 3.46053 448.786 8.20428 456.591 17.8742C472.197 37.2084 489.75 76.2235 497.747 154.966C500.186 178.985 510.626 194.786 524.907 205.003C539.204 215.229 557.371 219.872 575.27 221.506C593.164 223.141 610.759 221.764 623.884 219.978C630.445 219.085 635.887 218.09 639.688 217.318C641.588 216.932 643.078 216.603 644.093 216.369C644.6 216.252 644.988 216.16 645.25 216.096C645.297 216.085 645.341 216.075 645.381 216.065Z" stroke="url(#paint3_linear_1_89)" stroke-opacity="0.2"/>
</g>
<g clip-path="url(#clip2_1_89)">
<path d="M-5.05273 238.3V0.629944H209.589C208.329 0.99129 206.833 1.52811 205.145 2.32519C199.752 4.8728 192.412 10.0754 184.579 20.6882C168.916 41.9099 151.292 84.7434 143.263 171.199C140.814 197.569 130.333 214.927 115.982 226.154C101.619 237.389 83.3667 242.49 65.3907 244.285C47.4185 246.079 29.7487 244.568 16.5685 242.606C9.97934 241.626 4.51422 240.533 0.697042 239.685C-1.21151 239.262 -2.70798 238.899 -3.72689 238.643C-4.23634 238.515 -4.62639 238.413 -4.88885 238.344C-4.95057 238.327 -5.00523 238.312 -5.05273 238.3Z" stroke="url(#paint4_linear_1_89)"/>
<path d="M-5.05273 231.635V0.630676H201.944C200.742 0.981777 199.323 1.49855 197.725 2.2588C192.52 4.73599 185.438 9.79429 177.879 20.1115C162.766 40.7419 145.763 82.3792 138.017 166.418C135.655 192.047 125.543 208.918 111.702 219.827C97.8456 230.748 80.2393 235.705 62.8976 237.449C45.5596 239.194 28.5131 237.725 15.7979 235.818C9.44107 234.865 4.16872 233.803 0.486224 232.979C-1.35499 232.567 -2.79864 232.215 -3.78157 231.966C-4.27303 231.841 -4.6493 231.743 -4.90247 231.675C-4.95865 231.66 -5.00876 231.646 -5.05273 231.635Z" stroke="url(#paint5_linear_1_89)" stroke-opacity="0.6"/>
<path d="M-5.05273 225.88V0.630676H193.146C192.007 0.972859 190.667 1.47241 189.162 2.20136C184.174 4.61815 177.389 9.55235 170.148 19.6146C155.67 39.7345 139.383 80.3385 131.964 162.289C129.701 187.282 120.016 203.73 106.76 214.366C93.4919 225.013 76.6299 229.846 60.0205 231.547C43.4147 233.248 27.0877 231.816 14.9089 229.957C8.82035 229.028 3.77051 227.991 0.24345 227.188C-1.52004 226.787 -2.90274 226.444 -3.84413 226.2C-4.31482 226.079 -4.67517 225.983 -4.91763 225.917C-4.96772 225.903 -5.01278 225.891 -5.05273 225.88Z" stroke="url(#paint6_linear_1_89)" stroke-opacity="0.4"/>
<path d="M-5.05273 221.566V0.630676H180.291C179.233 0.966341 177.992 1.45343 176.602 2.15992C171.931 4.53265 165.581 9.37524 158.806 19.2466C145.261 38.9836 130.026 78.8116 123.086 159.194C120.968 183.714 111.907 199.845 99.5118 210.274C87.1034 220.712 71.3352 225.453 55.8001 227.121C40.2689 228.789 24.9978 227.384 13.606 225.561C7.91097 224.649 3.18753 223.633 -0.11146 222.846C-1.76092 222.452 -3.05416 222.115 -3.93459 221.877C-4.3748 221.758 -4.7118 221.664 -4.93851 221.598C-4.98036 221.587 -5.01845 221.576 -5.05273 221.566Z" stroke="url(#paint7_linear_1_89)" stroke-opacity="0.2"/>
</g>
<g clip-path="url(#clip3_1_89)">
<path d="M632.918 374.068V608.828H392.932C394.341 608.471 396.014 607.941 397.901 607.154C403.931 604.637 412.137 599.498 420.895 589.016C438.408 568.054 458.112 525.745 467.09 440.347C469.827 414.3 481.547 397.155 497.592 386.066C513.651 374.968 534.058 369.93 554.157 368.157C574.251 366.384 594.007 367.877 608.744 369.815C616.11 370.783 622.221 371.863 626.489 372.7C628.623 373.118 630.296 373.476 631.436 373.729C632.005 373.856 632.441 373.956 632.734 374.025C632.803 374.041 632.865 374.056 632.918 374.068Z" stroke="url(#paint8_linear_1_89)"/>
<path d="M632.918 380.652V608.827H401.479C402.823 608.481 404.411 607.97 406.197 607.219C412.017 604.773 419.935 599.776 428.386 589.585C445.283 569.207 464.294 528.08 472.955 445.07C475.596 419.754 486.902 403.091 502.378 392.315C517.87 381.528 537.555 376.632 556.944 374.908C576.329 373.185 595.388 374.637 609.605 376.52C616.713 377.461 622.607 378.51 626.725 379.324C628.783 379.731 630.397 380.079 631.497 380.325C632.046 380.448 632.466 380.545 632.75 380.612C632.813 380.627 632.868 380.64 632.918 380.652Z" stroke="url(#paint9_linear_1_89)" stroke-opacity="0.6"/>
<path d="M632.918 386.336V608.827H411.316C412.59 608.49 414.088 607.996 415.771 607.276C421.348 604.889 428.934 600.015 437.03 590.076C453.217 570.203 471.428 530.096 479.723 449.148C482.253 424.462 493.081 408.215 507.902 397.709C522.737 387.193 541.59 382.419 560.161 380.738C578.727 379.058 596.982 380.473 610.599 382.309C617.406 383.227 623.053 384.251 626.996 385.044C628.968 385.441 630.514 385.78 631.566 386.02C632.093 386.14 632.496 386.235 632.767 386.3C632.823 386.313 632.873 386.326 632.918 386.336Z" stroke="url(#paint10_linear_1_89)" stroke-opacity="0.4"/>
<path d="M632.918 390.597V608.827H425.689C426.872 608.496 428.259 608.014 429.814 607.317C435.037 604.973 442.136 600.19 449.71 590.439C464.855 570.944 481.889 531.604 489.649 452.205C492.017 427.986 502.148 412.053 516.007 401.752C529.88 391.44 547.51 386.758 564.88 385.11C582.245 383.463 599.319 384.85 612.056 386.651C618.423 387.552 623.705 388.555 627.393 389.333C629.237 389.722 630.683 390.055 631.668 390.29C632.16 390.408 632.536 390.501 632.79 390.565C632.837 390.577 632.879 390.588 632.918 390.597Z" stroke="url(#paint11_linear_1_89)" stroke-opacity="0.2"/>
</g>
<g clip-path="url(#clip4_1_89)">
<path d="M-9.87842 369.074V604.023H205.573C204.308 603.666 202.806 603.135 201.112 602.348C195.698 599.829 188.331 594.686 180.468 584.195C164.746 563.216 147.056 520.873 138.996 435.406C136.539 409.338 126.017 392.179 111.613 381.082C97.1949 369.974 78.8743 364.932 60.8306 363.158C42.7906 361.384 25.0542 362.878 11.8243 364.817C5.21032 365.786 -0.275403 366.867 -4.10697 367.704C-6.02271 368.123 -7.52482 368.481 -8.54757 368.735C-9.05894 368.862 -9.45046 368.962 -9.71392 369.031C-9.77587 369.047 -9.83074 369.061 -9.87842 369.074Z" stroke="url(#paint12_linear_1_89)"/>
<path d="M-9.87842 375.663V604.022H197.899C196.692 603.676 195.267 603.164 193.663 602.413C188.439 599.964 181.33 594.964 173.743 584.765C158.573 564.37 141.506 523.21 133.731 440.133C131.359 414.797 121.21 398.12 107.316 387.335C93.4078 376.54 75.7352 371.64 58.3281 369.915C40.9247 368.19 23.8139 369.643 11.0508 371.527C4.67002 372.47 -0.622203 373.52 -4.31858 374.334C-6.16673 374.741 -7.61583 375.089 -8.60246 375.336C-9.09577 375.459 -9.47346 375.556 -9.72759 375.623C-9.78398 375.638 -9.83428 375.651 -9.87842 375.663Z" stroke="url(#paint13_linear_1_89)" stroke-opacity="0.6"/>
<path d="M-9.87842 381.352V604.022H189.068C187.925 603.684 186.579 603.19 185.069 602.47C180.061 600.081 173.251 595.203 165.983 585.256C151.45 565.366 135.102 525.227 127.655 444.215C125.383 419.508 115.662 403.248 102.356 392.734C89.0377 382.209 72.1121 377.431 55.4401 375.749C38.7717 374.068 22.3832 375.484 10.1585 377.322C4.04696 378.241 -1.02192 379.264 -4.56227 380.058C-6.33241 380.455 -7.72032 380.795 -8.66526 381.035C-9.13772 381.155 -9.49943 381.25 -9.7428 381.315C-9.79308 381.329 -9.83831 381.341 -9.87842 381.352Z" stroke="url(#paint14_linear_1_89)" stroke-opacity="0.4"/>
<path d="M-9.87842 385.616V604.022H176.164C175.102 603.69 173.856 603.209 172.461 602.511C167.772 600.165 161.399 595.378 154.598 585.619C141.002 566.108 125.71 526.737 118.743 447.274C116.618 423.036 107.522 407.089 95.0803 396.78C82.6251 386.46 66.7974 381.774 51.2038 380.125C35.614 378.476 20.2854 379.865 8.85063 381.667C3.13415 382.568 -1.60709 383.573 -4.91852 384.351C-6.57419 384.741 -7.87231 385.074 -8.75606 385.309C-9.19793 385.427 -9.5362 385.52 -9.76376 385.584C-9.80577 385.596 -9.844 385.607 -9.87842 385.616Z" stroke="url(#paint15_linear_1_89)" stroke-opacity="0.2"/>
</g>
</g>
<defs>
<linearGradient id="paint0_linear_1_89" x1="519.362" y1="-0.725824" x2="519.362" y2="239.467" gradientUnits="userSpaceOnUse">
<stop stop-color="#6769D0"/>
<stop offset="1" stop-color="#8F6AC0"/>
</linearGradient>
<linearGradient id="paint1_linear_1_89" x1="523.813" y1="-0.725068" x2="523.813" y2="232.749" gradientUnits="userSpaceOnUse">
<stop stop-color="#6769D0"/>
<stop offset="1" stop-color="#8F6AC0"/>
</linearGradient>
<linearGradient id="paint2_linear_1_89" x1="528.95" y1="-0.725049" x2="528.95" y2="226.949" gradientUnits="userSpaceOnUse">
<stop stop-color="#6769D0"/>
<stop offset="1" stop-color="#8F6AC0"/>
</linearGradient>
<linearGradient id="paint3_linear_1_89" x1="536.484" y1="-0.725095" x2="536.484" y2="222.598" gradientUnits="userSpaceOnUse">
<stop stop-color="#6769D0"/>
<stop offset="1" stop-color="#8F6AC0"/>
</linearGradient>
<linearGradient id="paint4_linear_1_89" x1="104.325" y1="0.259038" x2="104.325" y2="245.456" gradientUnits="userSpaceOnUse">
<stop stop-color="#6769D0"/>
<stop offset="1" stop-color="#8F6AC0"/>
</linearGradient>
<linearGradient id="paint5_linear_1_89" x1="100.461" y1="0.259795" x2="100.461" y2="238.598" gradientUnits="userSpaceOnUse">
<stop stop-color="#6769D0"/>
<stop offset="1" stop-color="#8F6AC0"/>
</linearGradient>
<linearGradient id="paint6_linear_1_89" x1="96.0028" y1="0.259814" x2="96.0028" y2="232.677" gradientUnits="userSpaceOnUse">
<stop stop-color="#6769D0"/>
<stop offset="1" stop-color="#8F6AC0"/>
</linearGradient>
<linearGradient id="paint7_linear_1_89" x1="89.4639" y1="0.259829" x2="89.4639" y2="228.236" gradientUnits="userSpaceOnUse">
<stop stop-color="#6769D0"/>
<stop offset="1" stop-color="#8F6AC0"/>
</linearGradient>
<linearGradient id="paint8_linear_1_89" x1="510.625" y1="609.194" x2="510.625" y2="367" gradientUnits="userSpaceOnUse">
<stop stop-color="#6769D0"/>
<stop offset="1" stop-color="#8F6AC0"/>
</linearGradient>
<linearGradient id="paint9_linear_1_89" x1="514.945" y1="609.194" x2="514.945" y2="373.774" gradientUnits="userSpaceOnUse">
<stop stop-color="#6769D0"/>
<stop offset="1" stop-color="#8F6AC0"/>
</linearGradient>
<linearGradient id="paint10_linear_1_89" x1="519.93" y1="609.194" x2="519.93" y2="379.623" gradientUnits="userSpaceOnUse">
<stop stop-color="#6769D0"/>
<stop offset="1" stop-color="#8F6AC0"/>
</linearGradient>
<linearGradient id="paint11_linear_1_89" x1="527.241" y1="609.194" x2="527.241" y2="384.009" gradientUnits="userSpaceOnUse">
<stop stop-color="#6769D0"/>
<stop offset="1" stop-color="#8F6AC0"/>
</linearGradient>
<linearGradient id="paint12_linear_1_89" x1="99.9116" y1="604.39" x2="99.9116" y2="362" gradientUnits="userSpaceOnUse">
<stop stop-color="#6769D0"/>
<stop offset="1" stop-color="#8F6AC0"/>
</linearGradient>
<linearGradient id="paint13_linear_1_89" x1="96.0332" y1="604.389" x2="96.0332" y2="368.779" gradientUnits="userSpaceOnUse">
<stop stop-color="#6769D0"/>
<stop offset="1" stop-color="#8F6AC0"/>
</linearGradient>
<linearGradient id="paint14_linear_1_89" x1="91.5581" y1="604.389" x2="91.5581" y2="374.633" gradientUnits="userSpaceOnUse">
<stop stop-color="#6769D0"/>
<stop offset="1" stop-color="#8F6AC0"/>
</linearGradient>
<linearGradient id="paint15_linear_1_89" x1="84.9945" y1="604.389" x2="84.9945" y2="379.023" gradientUnits="userSpaceOnUse">
<stop stop-color="#6769D0"/>
<stop offset="1" stop-color="#8F6AC0"/>
</linearGradient>
<clipPath id="clip0_1_89">
<rect width="606" height="602" fill="white"/>
</clipPath>
<clipPath id="clip1_1_89">
<rect width="213" height="240" fill="white" transform="translate(393)"/>
</clipPath>
<clipPath id="clip2_1_89">
<rect width="214" height="245" fill="white" transform="translate(0 1)"/>
</clipPath>
<clipPath id="clip3_1_89">
<rect width="218" height="242" fill="white" transform="translate(388 367)"/>
</clipPath>
<clipPath id="clip4_1_89">
<rect width="216" height="240" fill="white" transform="translate(-6 362)"/>
</clipPath>
</defs>
</svg>
