<svg width="606" height="977" viewBox="0 0 606 977" fill="none" xmlns="http://www.w3.org/2000/svg">
<g clip-path="url(#clip0_1_89)">
<rect width="606" height="977" fill="white"/>
<g clip-path="url(#clip1_1_89)">
<path d="M652.222 246.986V-0.385132H361.965C363.669 -0.00903711 365.692 0.54969 367.974 1.37931C375.268 4.03091 385.193 9.44588 395.786 20.4919C416.967 42.5797 440.799 87.1615 451.657 177.146C454.968 204.592 469.142 222.659 488.548 234.344C507.972 246.038 532.654 251.347 556.962 253.215C581.266 255.083 605.161 253.509 622.984 251.468C631.894 250.447 639.285 249.31 644.446 248.428C647.027 247.987 649.052 247.61 650.429 247.343C651.118 247.21 651.646 247.104 652 247.031C652.084 247.014 652.158 246.999 652.222 246.986Z" stroke="url(#paint0_linear_1_89)"/>
<path d="M652.222 240.048V-0.384399H372.303C373.928 -0.0189682 375.848 0.518899 378.009 1.31017C385.048 3.88848 394.625 9.15324 404.846 19.8916C425.283 41.3641 448.276 84.7008 458.751 172.17C461.945 198.845 475.619 216.404 494.337 227.759C513.074 239.125 536.883 244.285 560.334 246.1C583.78 247.916 606.831 246.387 624.026 244.402C632.622 243.41 639.752 242.305 644.732 241.447C647.221 241.019 649.174 240.652 650.503 240.393C651.167 240.263 651.676 240.161 652.019 240.091C652.095 240.074 652.162 240.061 652.222 240.048Z" stroke="url(#paint1_linear_1_89)" stroke-opacity="0.6"/>
<path d="M652.222 234.058V-0.384399H384.2C385.741 -0.0282504 387.553 0.491693 389.588 1.2504C396.333 3.76583 405.509 8.90142 415.3 19.3744C434.879 40.3155 456.904 82.5769 466.937 167.872C469.997 193.886 483.093 211.004 501.019 222.075C518.961 233.156 541.764 238.187 564.224 239.957C586.68 241.728 608.759 240.237 625.228 238.302C633.461 237.335 640.29 236.256 645.06 235.421C647.445 235.003 649.314 234.645 650.588 234.392C651.224 234.266 651.711 234.166 652.039 234.097C652.107 234.083 652.168 234.07 652.222 234.058Z" stroke="url(#paint2_linear_1_89)" stroke-opacity="0.4"/>
<path d="M652.222 229.569V-0.384399H401.584C403.015 -0.0350339 404.693 0.471937 406.573 1.20726C412.89 3.67684 421.476 8.71708 430.637 18.9913C448.954 39.5339 469.556 80.9875 478.942 164.651C481.806 190.171 494.059 206.961 510.821 217.815C527.601 228.68 548.924 233.614 569.932 235.35C590.934 237.087 611.585 235.625 626.99 233.726C634.691 232.778 641.079 231.72 645.54 230.901C647.77 230.491 649.519 230.14 650.71 229.892C651.306 229.768 651.761 229.67 652.068 229.602C652.124 229.59 652.175 229.579 652.222 229.569Z" stroke="url(#paint3_linear_1_89)" stroke-opacity="0.2"/>
</g>
<g clip-path="url(#clip2_1_89)">
<path d="M0.00268555 246.017V-0.383667H254.765C253.269 -0.00904722 251.493 0.547489 249.49 1.37385C243.088 4.01505 234.377 9.40879 225.08 20.4114C206.488 42.4127 185.571 86.8196 176.041 176.452C173.135 203.79 160.694 221.786 143.661 233.424C126.613 245.073 104.949 250.361 83.6131 252.222C62.2817 254.082 41.309 252.515 25.6653 250.482C17.8445 249.465 11.3579 248.332 6.82719 247.454C4.5619 247.015 2.78571 246.639 1.57636 246.373C0.971682 246.24 0.508724 246.134 0.1972 246.062C0.123942 246.045 0.0590665 246.03 0.00268555 246.017Z" stroke="url(#paint4_linear_1_89)"/>
<path d="M0.00268555 239.107V-0.382874H245.691C244.264 -0.0188755 242.579 0.516882 240.683 1.30505C234.505 3.87325 226.099 9.11736 217.128 19.8136C199.189 41.2019 179.008 84.3687 169.814 171.494C167.011 198.065 155.009 215.555 138.58 226.866C122.134 238.188 101.237 243.327 80.654 245.135C60.0752 246.944 39.8425 245.421 24.7506 243.444C17.2056 242.456 10.9478 241.354 6.57696 240.5C4.3916 240.074 2.6781 239.708 1.51145 239.451C0.928135 239.321 0.481532 239.219 0.181036 239.149C0.114354 239.133 0.0548755 239.119 0.00268555 239.107Z" stroke="url(#paint5_linear_1_89)" stroke-opacity="0.6"/>
<path d="M0.00268555 233.141V-0.382874H235.248C233.896 -0.0281213 232.305 0.489783 230.52 1.24551C224.599 3.75108 216.545 8.86653 207.951 19.2984C190.767 40.1574 171.436 82.253 162.63 167.214C159.944 193.125 148.449 210.177 132.716 221.204C116.967 232.242 96.9531 237.253 77.2391 239.016C57.5295 240.78 38.1507 239.295 23.6955 237.367C16.4689 236.404 10.4751 235.33 6.28881 234.497C4.1957 234.081 2.55455 233.725 1.4372 233.473C0.878527 233.347 0.450819 233.247 0.163044 233.179C0.103594 233.165 0.050113 233.152 0.00268555 233.141Z" stroke="url(#paint6_linear_1_89)" stroke-opacity="0.4"/>
<path d="M0.00268555 228.668V-0.382874H219.991C218.735 -0.0348781 217.262 0.470105 215.611 1.20255C210.067 3.66244 202.531 8.68291 194.49 18.9169C178.413 39.3789 160.33 80.67 152.092 164.006C149.579 189.426 138.824 206.149 124.112 216.961C109.384 227.784 90.6687 232.698 72.2299 234.427C53.7957 236.157 35.6701 234.701 22.149 232.81C15.3895 231.865 9.78319 230.812 5.86756 229.995C3.9098 229.587 2.37483 229.238 1.32983 228.991C0.807336 228.867 0.40735 228.77 0.138265 228.702C0.0885938 228.69 0.043382 228.679 0.00268555 228.668Z" stroke="url(#paint7_linear_1_89)" stroke-opacity="0.2"/>
</g>
<g clip-path="url(#clip3_1_89)">
<path d="M646.128 740.419V986.82H377.52C379.097 986.445 380.969 985.888 383.081 985.062C389.831 982.421 399.015 977.027 408.818 966.025C428.42 944.023 450.474 899.616 460.522 809.984C463.586 782.646 476.703 764.65 494.662 753.012C512.637 741.363 535.478 736.075 557.973 734.214C580.464 732.354 602.577 733.921 619.071 735.954C627.316 736.971 634.156 738.104 638.932 738.982C641.321 739.422 643.194 739.797 644.469 740.063C645.107 740.196 645.595 740.301 645.923 740.373C646 740.39 646.068 740.406 646.128 740.419Z" stroke="url(#paint8_linear_1_89)"/>
<path d="M646.128 747.329V986.819H387.087C388.591 986.455 390.368 985.919 392.367 985.131C398.881 982.563 407.744 977.319 417.202 966.622C436.115 945.234 457.393 902.067 467.087 814.941C470.043 788.37 482.697 770.881 500.019 759.57C517.358 748.249 539.391 743.109 561.093 741.301C582.791 739.492 604.123 741.015 620.035 742.992C627.99 743.98 634.588 745.081 639.196 745.935C641.5 746.362 643.307 746.727 644.537 746.986C645.152 747.115 645.623 747.217 645.94 747.287C646.01 747.303 646.073 747.317 646.128 747.329Z" stroke="url(#paint9_linear_1_89)" stroke-opacity="0.6"/>
<path d="M646.128 753.295V986.819H398.097C399.522 986.464 401.2 985.946 403.083 985.191C409.325 982.685 417.816 977.57 426.877 967.137C444.996 946.279 465.378 904.183 474.662 819.222C477.494 793.311 489.614 776.259 506.202 765.232C522.807 754.194 543.908 749.183 564.694 747.419C585.475 745.656 605.907 747.141 621.148 749.069C628.767 750.032 635.086 751.106 639.501 751.939C641.707 752.355 643.437 752.711 644.616 752.963C645.205 753.089 645.656 753.189 645.959 753.257C646.022 753.271 646.078 753.284 646.128 753.295Z" stroke="url(#paint10_linear_1_89)" stroke-opacity="0.4"/>
<path d="M646.128 757.767V986.819H414.184C415.508 986.471 417.061 985.966 418.801 985.234C424.646 982.773 432.593 977.753 441.07 967.519C458.021 947.057 477.087 905.766 485.772 822.43C488.422 797.011 499.762 780.287 515.273 769.475C530.802 758.652 550.534 753.738 569.976 752.008C589.411 750.279 608.522 751.736 622.778 753.626C629.905 754.571 635.816 755.624 639.945 756.441C642.008 756.849 643.627 757.198 644.729 757.445C645.28 757.569 645.701 757.667 645.985 757.734C646.037 757.746 646.085 757.757 646.128 757.767Z" stroke="url(#paint11_linear_1_89)" stroke-opacity="0.2"/>
</g>
<g clip-path="url(#clip4_1_89)">
<path d="M-1.47095 732.487V981.141H246.896C245.438 980.763 243.707 980.201 241.754 979.368C235.513 976.702 227.02 971.259 217.957 960.156C199.832 937.953 179.439 893.14 170.149 802.688C167.315 775.1 155.187 756.939 138.581 745.195C121.961 733.439 100.841 728.103 80.0408 726.225C59.2448 724.348 38.7985 725.929 23.5475 727.981C15.923 729.007 9.5992 730.15 5.18225 731.037C2.97383 731.48 1.24222 731.86 0.0632232 732.128C-0.526274 732.262 -0.977611 732.368 -1.28132 732.441C-1.35273 732.458 -1.41598 732.473 -1.47095 732.487Z" stroke="url(#paint12_linear_1_89)"/>
<path d="M-1.47095 739.46V981.14H238.05C236.659 980.773 235.016 980.232 233.168 979.437C227.145 976.846 218.95 971.553 210.204 960.759C192.716 939.175 173.042 895.614 164.078 807.691C161.345 780.877 149.645 763.227 133.628 751.813C117.595 740.388 97.2225 735.202 77.156 733.377C57.0937 731.552 37.3689 733.089 22.6558 735.083C15.3002 736.08 9.19941 737.192 4.93831 738.054C2.8078 738.484 1.13731 738.853 -5.18293e-05 739.114C-0.568728 739.244 -1.00412 739.347 -1.29707 739.418C-1.36208 739.434 -1.42007 739.448 -1.47095 739.46Z" stroke="url(#paint13_linear_1_89)" stroke-opacity="0.6"/>
<path d="M-1.47095 745.481V981.14H227.87C226.552 980.783 225.001 980.26 223.26 979.497C217.487 976.969 209.636 971.807 201.258 961.279C184.505 940.229 165.659 897.749 157.074 812.01C154.455 785.863 143.249 768.654 127.911 757.527C112.557 746.388 93.0459 741.331 73.8268 739.551C54.6118 737.772 35.7195 739.271 21.6272 741.216C14.5819 742.188 8.73863 743.272 4.65739 744.112C2.61681 744.532 1.01686 744.891 -0.0724406 745.145C-0.61709 745.273 -1.03406 745.373 -1.31461 745.442C-1.37257 745.456 -1.42471 745.469 -1.47095 745.481Z" stroke="url(#paint14_linear_1_89)" stroke-opacity="0.4"/>
<path d="M-1.47095 749.994V981.14H212.995C211.771 980.789 210.335 980.279 208.726 979.541C203.321 977.058 195.974 971.992 188.134 961.664C172.461 941.015 154.832 899.346 146.801 815.248C144.351 789.596 133.866 772.719 119.523 761.809C105.165 750.887 86.9192 745.928 68.9433 744.182C50.9718 742.437 33.3012 743.907 20.1195 745.815C13.5297 746.768 8.06405 747.831 4.24671 748.655C2.33809 749.067 0.841651 749.42 -0.177117 749.669C-0.686494 749.793 -1.07644 749.892 -1.33877 749.96C-1.3872 749.972 -1.43127 749.984 -1.47095 749.994Z" stroke="url(#paint15_linear_1_89)" stroke-opacity="0.2"/>
</g>
</g>
<defs>
<linearGradient id="paint0_linear_1_89" x1="504.312" y1="-0.771177" x2="504.312" y2="254.434" gradientUnits="userSpaceOnUse">
<stop stop-color="#6769D0"/>
<stop offset="1" stop-color="#8F6AC0"/>
</linearGradient>
<linearGradient id="paint1_linear_1_89" x1="509.537" y1="-0.770419" x2="509.537" y2="247.296" gradientUnits="userSpaceOnUse">
<stop stop-color="#6769D0"/>
<stop offset="1" stop-color="#8F6AC0"/>
</linearGradient>
<linearGradient id="paint2_linear_1_89" x1="515.566" y1="-0.770399" x2="515.566" y2="241.133" gradientUnits="userSpaceOnUse">
<stop stop-color="#6769D0"/>
<stop offset="1" stop-color="#8F6AC0"/>
</linearGradient>
<linearGradient id="paint3_linear_1_89" x1="524.408" y1="-0.770383" x2="524.408" y2="236.511" gradientUnits="userSpaceOnUse">
<stop stop-color="#6769D0"/>
<stop offset="1" stop-color="#8F6AC0"/>
</linearGradient>
<linearGradient id="paint4_linear_1_89" x1="129.825" y1="-0.768198" x2="129.825" y2="253.436" gradientUnits="userSpaceOnUse">
<stop stop-color="#6769D0"/>
<stop offset="1" stop-color="#8F6AC0"/>
</linearGradient>
<linearGradient id="paint5_linear_1_89" x1="125.239" y1="-0.767379" x2="125.239" y2="246.326" gradientUnits="userSpaceOnUse">
<stop stop-color="#6769D0"/>
<stop offset="1" stop-color="#8F6AC0"/>
</linearGradient>
<linearGradient id="paint6_linear_1_89" x1="119.947" y1="-0.767359" x2="119.947" y2="240.187" gradientUnits="userSpaceOnUse">
<stop stop-color="#6769D0"/>
<stop offset="1" stop-color="#8F6AC0"/>
</linearGradient>
<linearGradient id="paint7_linear_1_89" x1="112.186" y1="-0.767344" x2="112.186" y2="235.583" gradientUnits="userSpaceOnUse">
<stop stop-color="#6769D0"/>
<stop offset="1" stop-color="#8F6AC0"/>
</linearGradient>
<linearGradient id="paint8_linear_1_89" x1="509.25" y1="987.204" x2="509.25" y2="733" gradientUnits="userSpaceOnUse">
<stop stop-color="#6769D0"/>
<stop offset="1" stop-color="#8F6AC0"/>
</linearGradient>
<linearGradient id="paint9_linear_1_89" x1="514.085" y1="987.203" x2="514.085" y2="740.11" gradientUnits="userSpaceOnUse">
<stop stop-color="#6769D0"/>
<stop offset="1" stop-color="#8F6AC0"/>
</linearGradient>
<linearGradient id="paint10_linear_1_89" x1="519.665" y1="987.203" x2="519.665" y2="746.249" gradientUnits="userSpaceOnUse">
<stop stop-color="#6769D0"/>
<stop offset="1" stop-color="#8F6AC0"/>
</linearGradient>
<linearGradient id="paint11_linear_1_89" x1="527.848" y1="987.203" x2="527.848" y2="750.853" gradientUnits="userSpaceOnUse">
<stop stop-color="#6769D0"/>
<stop offset="1" stop-color="#8F6AC0"/>
</linearGradient>
<linearGradient id="paint12_linear_1_89" x1="125.093" y1="981.529" x2="125.093" y2="725" gradientUnits="userSpaceOnUse">
<stop stop-color="#6769D0"/>
<stop offset="1" stop-color="#8F6AC0"/>
</linearGradient>
<linearGradient id="paint13_linear_1_89" x1="120.622" y1="981.528" x2="120.622" y2="732.175" gradientUnits="userSpaceOnUse">
<stop stop-color="#6769D0"/>
<stop offset="1" stop-color="#8F6AC0"/>
</linearGradient>
<linearGradient id="paint14_linear_1_89" x1="115.463" y1="981.528" x2="115.463" y2="738.37" gradientUnits="userSpaceOnUse">
<stop stop-color="#6769D0"/>
<stop offset="1" stop-color="#8F6AC0"/>
</linearGradient>
<linearGradient id="paint15_linear_1_89" x1="107.896" y1="981.528" x2="107.896" y2="743.016" gradientUnits="userSpaceOnUse">
<stop stop-color="#6769D0"/>
<stop offset="1" stop-color="#8F6AC0"/>
</linearGradient>
<clipPath id="clip0_1_89">
<rect width="606" height="977" fill="white"/>
</clipPath>
<clipPath id="clip1_1_89">
<rect width="250" height="255" fill="white" transform="translate(356)"/>
</clipPath>
<clipPath id="clip2_1_89">
<rect width="254" height="254" fill="white" transform="translate(6)"/>
</clipPath>
<clipPath id="clip3_1_89">
<rect width="244" height="254" fill="white" transform="translate(372 733)"/>
</clipPath>
<clipPath id="clip4_1_89">
<rect width="249" height="254" fill="white" transform="translate(3 725)"/>
</clipPath>
</defs>
</svg>
