<svg width="751" height="977" viewBox="0 0 751 977" fill="none" xmlns="http://www.w3.org/2000/svg">
<g clip-path="url(#clip0_1_89)">
<rect width="751" height="977" fill="white"/>
<g clip-path="url(#clip1_1_89)">
<path d="M809.24 260.263V-9.41986H443.515C445.663 -9.00984 448.212 -8.40072 451.088 -7.49628C460.278 -4.60551 472.783 1.29787 486.13 13.3401C512.818 37.4202 542.847 86.0231 556.528 184.124C560.699 214.046 578.559 233.742 603.011 246.48C627.485 259.23 658.583 265.017 689.212 267.054C719.835 269.09 749.943 267.375 772.4 265.149C783.626 264.036 792.939 262.797 799.442 261.835C802.694 261.355 805.245 260.943 806.981 260.653C807.849 260.507 808.513 260.391 808.96 260.312C809.065 260.294 809.159 260.277 809.24 260.263Z" stroke="url(#paint0_linear_1_89)"/>
<path d="M809.24 252.7V-9.41907H456.542C458.589 -9.02068 461.009 -8.4343 463.731 -7.57165C472.6 -4.76079 484.667 0.978834 497.545 12.6857C523.296 36.0949 552.267 83.3405 565.466 178.699C569.491 207.78 586.72 226.923 610.304 239.302C633.913 251.693 663.912 257.318 693.46 259.298C723.002 261.277 752.047 259.61 773.712 257.447C784.544 256.365 793.527 255.16 799.802 254.225C802.939 253.758 805.399 253.358 807.074 253.076C807.911 252.934 808.552 252.822 808.983 252.746C809.08 252.728 809.165 252.713 809.24 252.7Z" stroke="url(#paint1_linear_1_89)" stroke-opacity="0.6"/>
<path d="M809.24 246.17V-9.41907H471.532C473.473 -9.0308 475.757 -8.46396 478.321 -7.63682C486.82 -4.89451 498.381 0.704299 510.719 12.1219C535.387 34.9518 563.138 81.025 575.78 174.014C579.636 202.373 596.138 221.036 618.723 233.105C641.331 245.186 670.062 250.671 698.363 252.601C726.657 254.531 754.476 252.905 775.228 250.796C785.601 249.742 794.206 248.566 800.216 247.655C803.22 247.199 805.576 246.81 807.18 246.533C807.983 246.396 808.596 246.286 809.01 246.212C809.095 246.196 809.172 246.182 809.24 246.17Z" stroke="url(#paint2_linear_1_89)" stroke-opacity="0.4"/>
<path d="M809.24 241.275V-9.41907H493.435C495.238 -9.03819 497.353 -8.48549 499.722 -7.68385C507.681 -4.99152 518.5 0.50333 530.043 11.7043C553.122 34.0998 579.081 79.2923 590.907 170.502C594.515 198.324 609.954 216.628 631.074 228.462C652.217 240.306 679.084 245.685 705.554 247.578C732.017 249.471 758.037 247.877 777.448 245.808C787.151 244.774 795.199 243.621 800.821 242.727C803.63 242.28 805.834 241.898 807.334 241.628C808.085 241.492 808.658 241.386 809.045 241.312C809.116 241.298 809.181 241.287 809.24 241.275Z" stroke="url(#paint3_linear_1_89)" stroke-opacity="0.2"/>
</g>
<g clip-path="url(#clip2_1_89)">
<path d="M-1.4375 266.357V-0.415344H314.508C312.653 -0.00975195 310.45 0.592797 307.966 1.48748C300.027 4.34705 289.224 10.1867 277.694 22.099C254.637 45.9193 228.696 93.9977 216.878 191.04C213.274 220.639 197.845 240.122 176.721 252.723C155.579 265.335 128.713 271.06 102.253 273.075C75.7982 275.089 49.7889 273.392 30.3882 271.191C20.6892 270.09 12.6447 268.864 7.02596 267.912C4.21665 267.437 2.01389 267.03 0.5141 266.743C-0.235792 266.599 -0.809932 266.484 -1.19627 266.406C-1.28712 266.388 -1.36758 266.371 -1.4375 266.357Z" stroke="url(#paint4_linear_1_89)"/>
<path d="M-1.4375 258.875V-0.414551H303.254C301.485 -0.0204585 299.395 0.559594 297.043 1.41293C289.382 4.19345 278.957 9.87114 267.831 21.4517C245.585 44.6083 220.558 91.344 209.156 185.673C205.678 214.441 190.795 233.377 170.42 245.622C150.025 257.88 124.109 263.444 98.5829 265.402C73.0619 267.361 47.9702 265.711 29.2538 263.571C19.8968 262.501 12.1361 261.309 6.71564 260.384C4.00545 259.922 1.88044 259.527 0.433609 259.248C-0.289797 259.107 -0.843655 258.997 -1.21632 258.921C-1.29901 258.904 -1.37278 258.889 -1.4375 258.875Z" stroke="url(#paint5_linear_1_89)" stroke-opacity="0.6"/>
<path d="M-1.4375 252.416V-0.414551H290.304C288.628 -0.0304686 286.655 0.530254 284.44 1.34846C277.097 4.06118 267.11 9.59957 256.451 20.8939C235.141 43.4775 211.166 89.0535 200.246 181.039C196.914 209.092 182.659 227.554 163.147 239.493C143.617 251.443 118.796 256.868 94.3479 258.777C69.9048 260.687 45.8721 259.079 27.9453 256.992C18.9832 255.949 11.55 254.786 6.35829 253.885C3.76249 253.434 1.72721 253.049 0.341524 252.776C-0.351319 252.639 -0.881744 252.531 -1.23863 252.457C-1.31236 252.442 -1.37868 252.428 -1.4375 252.416Z" stroke="url(#paint6_linear_1_89)" stroke-opacity="0.4"/>
<path d="M-1.4375 247.574V-0.414551H271.382C269.825 -0.0377841 267.998 0.50895 265.951 1.30195C259.075 3.96522 249.73 9.40077 239.757 20.4809C219.819 42.6346 197.394 87.3395 187.177 177.565C184.061 205.087 170.723 223.193 152.478 234.899C134.213 246.616 111.003 251.937 88.1356 253.809C65.2743 255.682 42.7958 254.105 26.0274 252.058C17.6446 251.035 10.6919 249.894 5.83587 249.01C3.40793 248.568 1.50433 248.19 0.208366 247.923C-0.439606 247.789 -0.935653 247.684 -1.26936 247.61C-1.33096 247.597 -1.38703 247.586 -1.4375 247.574Z" stroke="url(#paint7_linear_1_89)" stroke-opacity="0.2"/>
</g>
<g clip-path="url(#clip3_1_89)">
<path d="M811.142 709.266V983.799H462.171C464.22 983.382 466.653 982.761 469.397 981.841C478.166 978.898 490.098 972.889 502.833 960.63C528.299 936.117 556.952 886.639 570.006 786.774C573.987 756.314 591.029 736.264 614.36 723.297C637.713 710.317 667.387 704.426 696.613 702.353C725.833 700.28 754.561 702.026 775.99 704.291C786.702 705.424 795.588 706.686 801.793 707.665C804.897 708.155 807.33 708.573 808.987 708.87C809.815 709.018 810.449 709.135 810.875 709.215C810.976 709.234 811.064 709.251 811.142 709.266Z" stroke="url(#paint8_linear_1_89)"/>
<path d="M811.142 716.965V983.798H474.601C476.555 983.393 478.863 982.795 481.461 981.917C489.923 979.057 501.438 973.214 513.726 961.296C538.297 937.466 565.941 889.37 578.535 792.297C582.376 762.692 598.816 743.206 621.32 730.604C643.847 717.99 672.472 712.264 700.666 710.248C728.855 708.233 756.569 709.93 777.242 712.133C787.577 713.234 796.149 714.461 802.136 715.412C805.129 715.888 807.477 716.295 809.075 716.582C809.874 716.726 810.486 716.84 810.897 716.918C810.989 716.936 811.07 716.951 811.142 716.965Z" stroke="url(#paint9_linear_1_89)" stroke-opacity="0.6"/>
<path d="M811.142 723.612V983.798H488.905C490.757 983.403 492.936 982.826 495.382 981.984C503.492 979.192 514.524 973.493 526.296 961.87C549.834 938.629 576.314 891.727 588.377 797.066C592.056 768.197 607.802 749.198 629.353 736.912C650.925 724.614 678.34 719.031 705.344 717.066C732.342 715.101 758.887 716.756 778.688 718.903C788.587 719.977 796.797 721.173 802.532 722.101C805.398 722.565 807.646 722.961 809.177 723.242C809.942 723.382 810.528 723.494 810.922 723.57C811.004 723.585 811.077 723.6 811.142 723.612Z" stroke="url(#paint10_linear_1_89)" stroke-opacity="0.4"/>
<path d="M811.142 728.595V983.798H509.804C511.525 983.41 513.542 982.848 515.803 982.032C523.397 979.291 533.721 973.697 544.735 962.295C566.757 939.496 591.526 893.491 602.811 800.641C606.253 772.319 620.985 753.686 641.138 741.639C661.312 729.581 686.948 724.106 712.206 722.179C737.457 720.252 762.285 721.875 780.806 723.981C790.065 725.034 797.745 726.207 803.108 727.117C805.789 727.572 807.892 727.961 809.324 728.236C810.04 728.374 810.587 728.483 810.956 728.557C811.024 728.571 811.086 728.584 811.142 728.595Z" stroke="url(#paint11_linear_1_89)" stroke-opacity="0.2"/>
</g>
<g clip-path="url(#clip4_1_89)">
<path d="M0.343994 709.076V977.31H314.543C312.699 976.902 310.509 976.296 308.038 975.397C300.143 972.521 289.399 966.65 277.933 954.672C255.004 930.721 229.206 882.38 217.453 784.806C213.869 755.045 198.525 735.454 177.518 722.785C156.493 710.104 129.775 704.348 103.461 702.322C77.153 700.296 51.2873 702.002 31.9938 704.216C22.3484 705.323 14.3484 706.556 8.76069 707.512C5.9669 707.991 3.77632 708.4 2.28481 708.689C1.53906 708.834 0.968095 708.948 0.58389 709.027C0.493541 709.045 0.413529 709.062 0.343994 709.076Z" stroke="url(#paint12_linear_1_89)"/>
<path d="M0.343994 716.599V977.309H303.352C301.593 976.913 299.515 976.329 297.176 975.471C289.557 972.676 279.189 966.967 268.125 955.323C246.002 932.04 221.113 885.048 209.774 790.202C206.316 761.276 191.514 742.237 171.252 729.924C150.97 717.6 125.197 712.005 99.8118 710.036C74.4318 708.067 49.4787 709.725 30.8658 711.877C21.5605 712.953 13.8426 714.152 8.45209 715.081C5.75687 715.546 3.6436 715.944 2.20477 716.225C1.48536 716.365 0.934558 716.477 0.563955 716.553C0.481715 716.57 0.40836 716.585 0.343994 716.599Z" stroke="url(#paint13_linear_1_89)" stroke-opacity="0.6"/>
<path d="M0.343994 723.094V977.309H290.474C288.807 976.923 286.844 976.359 284.642 975.536C277.34 972.809 267.407 967.24 256.808 955.883C235.615 933.177 211.773 887.351 200.913 794.862C197.6 766.655 183.423 748.092 164.02 736.088C144.597 724.072 119.913 718.617 95.6002 716.697C71.2921 714.778 47.3922 716.394 29.5645 718.492C20.6518 719.541 13.2597 720.71 8.09671 721.617C5.51526 722.07 3.49122 722.458 2.11319 722.732C1.42417 722.869 0.89668 722.977 0.541766 723.052C0.468445 723.067 0.402487 723.081 0.343994 723.094Z" stroke="url(#paint14_linear_1_89)" stroke-opacity="0.4"/>
<path d="M0.343994 727.962V977.309H271.657C270.108 976.93 268.291 976.38 266.255 975.583C259.418 972.905 250.123 967.44 240.206 956.299C220.378 934.024 198.077 889.074 187.917 798.354C184.817 770.682 171.553 752.477 153.409 740.707C135.245 728.925 112.163 723.576 89.4223 721.693C66.6872 719.81 44.3329 721.396 27.6572 723.453C19.3207 724.482 12.4063 725.629 7.57718 726.518C5.16266 726.962 3.26957 727.342 1.98077 727.611C1.33637 727.746 0.843069 727.852 0.511205 727.925C0.449946 727.939 0.394185 727.951 0.343994 727.962Z" stroke="url(#paint15_linear_1_89)" stroke-opacity="0.2"/>
</g>
</g>
<defs>
<linearGradient id="paint0_linear_1_89" x1="622.873" y1="-9.84073" x2="622.873" y2="268.383" gradientUnits="userSpaceOnUse">
<stop stop-color="#6769D0"/>
<stop offset="1" stop-color="#8F6AC0"/>
</linearGradient>
<linearGradient id="paint1_linear_1_89" x1="629.457" y1="-9.8399" x2="629.457" y2="260.601" gradientUnits="userSpaceOnUse">
<stop stop-color="#6769D0"/>
<stop offset="1" stop-color="#8F6AC0"/>
</linearGradient>
<linearGradient id="paint2_linear_1_89" x1="637.053" y1="-9.83988" x2="637.053" y2="253.882" gradientUnits="userSpaceOnUse">
<stop stop-color="#6769D0"/>
<stop offset="1" stop-color="#8F6AC0"/>
</linearGradient>
<linearGradient id="paint3_linear_1_89" x1="648.195" y1="-9.83987" x2="648.195" y2="248.843" gradientUnits="userSpaceOnUse">
<stop stop-color="#6769D0"/>
<stop offset="1" stop-color="#8F6AC0"/>
</linearGradient>
<linearGradient id="paint4_linear_1_89" x1="159.563" y1="-0.831667" x2="159.563" y2="274.389" gradientUnits="userSpaceOnUse">
<stop stop-color="#6769D0"/>
<stop offset="1" stop-color="#8F6AC0"/>
</linearGradient>
<linearGradient id="paint5_linear_1_89" x1="153.875" y1="-0.830846" x2="153.875" y2="266.692" gradientUnits="userSpaceOnUse">
<stop stop-color="#6769D0"/>
<stop offset="1" stop-color="#8F6AC0"/>
</linearGradient>
<linearGradient id="paint6_linear_1_89" x1="147.312" y1="-0.830824" x2="147.312" y2="260.045" gradientUnits="userSpaceOnUse">
<stop stop-color="#6769D0"/>
<stop offset="1" stop-color="#8F6AC0"/>
</linearGradient>
<linearGradient id="paint7_linear_1_89" x1="137.688" y1="-0.830808" x2="137.688" y2="255.06" gradientUnits="userSpaceOnUse">
<stop stop-color="#6769D0"/>
<stop offset="1" stop-color="#8F6AC0"/>
</linearGradient>
<linearGradient id="paint8_linear_1_89" x1="633.313" y1="984.227" x2="633.313" y2="701" gradientUnits="userSpaceOnUse">
<stop stop-color="#6769D0"/>
<stop offset="1" stop-color="#8F6AC0"/>
</linearGradient>
<linearGradient id="paint9_linear_1_89" x1="639.595" y1="984.227" x2="639.595" y2="708.921" gradientUnits="userSpaceOnUse">
<stop stop-color="#6769D0"/>
<stop offset="1" stop-color="#8F6AC0"/>
</linearGradient>
<linearGradient id="paint10_linear_1_89" x1="646.843" y1="984.227" x2="646.843" y2="715.761" gradientUnits="userSpaceOnUse">
<stop stop-color="#6769D0"/>
<stop offset="1" stop-color="#8F6AC0"/>
</linearGradient>
<linearGradient id="paint11_linear_1_89" x1="657.474" y1="984.227" x2="657.474" y2="720.891" gradientUnits="userSpaceOnUse">
<stop stop-color="#6769D0"/>
<stop offset="1" stop-color="#8F6AC0"/>
</linearGradient>
<linearGradient id="paint12_linear_1_89" x1="160.455" y1="977.728" x2="160.455" y2="701" gradientUnits="userSpaceOnUse">
<stop stop-color="#6769D0"/>
<stop offset="1" stop-color="#8F6AC0"/>
</linearGradient>
<linearGradient id="paint13_linear_1_89" x1="154.798" y1="977.727" x2="154.798" y2="708.74" gradientUnits="userSpaceOnUse">
<stop stop-color="#6769D0"/>
<stop offset="1" stop-color="#8F6AC0"/>
</linearGradient>
<linearGradient id="paint14_linear_1_89" x1="148.272" y1="977.727" x2="148.272" y2="715.423" gradientUnits="userSpaceOnUse">
<stop stop-color="#6769D0"/>
<stop offset="1" stop-color="#8F6AC0"/>
</linearGradient>
<linearGradient id="paint15_linear_1_89" x1="138.7" y1="977.727" x2="138.7" y2="720.435" gradientUnits="userSpaceOnUse">
<stop stop-color="#6769D0"/>
<stop offset="1" stop-color="#8F6AC0"/>
</linearGradient>
<clipPath id="clip0_1_89">
<rect width="751" height="977" fill="white"/>
</clipPath>
<clipPath id="clip1_1_89">
<rect width="315" height="278" fill="white" transform="translate(436 -9)"/>
</clipPath>
<clipPath id="clip2_1_89">
<rect width="315" height="275" fill="white" transform="translate(6)"/>
</clipPath>
<clipPath id="clip3_1_89">
<rect width="317" height="283" fill="white" transform="translate(455 701)"/>
</clipPath>
<clipPath id="clip4_1_89">
<rect width="315" height="274" fill="white" transform="translate(6 701)"/>
</clipPath>
</defs>
</svg>
