<svg width="812" height="924" viewBox="0 0 812 924" fill="none" xmlns="http://www.w3.org/2000/svg">
<g clip-path="url(#clip0_1_89)">
<rect width="812" height="924" fill="white"/>
<path d="M-1 316.895V-2H288C286.303 -1.51516 284.289 -0.794886 282.016 0.274603C274.755 3.69288 264.872 10.6735 254.326 24.9133C233.236 53.3876 209.507 110.86 198.696 226.863C195.4 262.244 181.287 285.535 161.965 300.598C142.625 315.673 118.05 322.517 93.847 324.926C69.6488 327.333 45.8576 325.305 28.1115 322.673C19.2396 321.357 11.8812 319.891 6.74166 318.754C4.17194 318.186 2.15705 317.699 0.78516 317.356C0.0992213 317.184 -0.425954 317.047 -0.779344 316.954C-0.862447 316.932 -0.936042 316.912 -1 316.895Z" stroke="url(#paint0_linear_1_89)"/>
<path d="M-1 309.12V-2H278C276.38 -1.52713 274.467 -0.831133 272.313 0.192776C265.297 3.5291 255.752 10.3417 245.564 24.2371C225.194 52.0225 202.277 108.1 191.836 221.285C188.652 255.803 175.023 278.524 156.367 293.217C137.691 307.925 113.961 314.602 90.5866 316.951C67.2176 319.301 44.2416 317.322 27.1034 314.754C18.5354 313.47 11.4291 312.039 6.46567 310.93C3.984 310.376 2.03817 309.901 0.713337 309.566C0.0509282 309.398 -0.456228 309.265 -0.797468 309.174C-0.873191 309.154 -0.940734 309.136 -1 309.12Z" stroke="url(#paint1_linear_1_89)" stroke-opacity="0.6"/>
<path d="M-1 300.373V-2H266C264.466 -1.54066 262.66 -0.87006 260.633 0.108477C253.913 3.35276 244.773 9.97639 235.018 23.4839C215.515 50.4927 193.574 104.999 183.579 215.009C180.53 248.56 167.484 270.639 149.627 284.917C131.752 299.209 109.037 305.697 86.6621 307.981C64.292 310.264 42.2974 308.341 25.891 305.845C17.6889 304.598 10.8861 303.207 6.13465 302.129C3.759 301.591 1.89632 301.13 0.628151 300.803C-0.00593395 300.64 -0.491376 300.511 -0.817996 300.422C-0.885471 300.404 -0.946171 300.388 -1 300.373Z" stroke="url(#paint2_linear_1_89)" stroke-opacity="0.4"/>
<path d="M0 592.466V924H288C286.309 923.496 284.302 922.747 282.037 921.636C274.8 918.082 264.952 910.824 254.442 896.02C233.425 866.417 209.779 806.667 199.005 686.067C195.72 649.282 181.656 625.069 162.401 609.41C143.128 593.736 118.638 586.621 94.5188 584.117C70.4043 581.614 46.6954 583.722 29.0107 586.459C20.1696 587.827 12.8366 589.351 7.71487 590.533C5.15404 591.124 3.14612 591.63 1.77898 591.987C1.09542 592.166 0.57206 592.308 0.219892 592.405C0.137077 592.428 0.0637368 592.448 0 592.466Z" stroke="url(#paint3_linear_1_89)"/>
<path d="M0 601.213V924H278C276.386 923.51 274.479 922.787 272.333 921.725C265.343 918.264 255.831 911.196 245.68 896.779C225.383 867.952 202.548 809.771 192.145 692.342C188.972 656.529 175.392 632.956 156.803 617.712C138.194 602.453 114.549 595.526 91.2584 593.088C67.9731 590.651 45.0794 592.703 28.0027 595.367C19.4654 596.699 12.3846 598.184 7.4389 599.335C4.96613 599.91 3.02728 600.402 1.7072 600.75C1.04716 600.924 0.541823 601.062 0.201806 601.157C0.126355 601.178 0.0590538 601.197 0 601.213Z" stroke="url(#paint4_linear_1_89)" stroke-opacity="0.6"/>
<path d="M0 608.988V924H266C264.471 923.522 262.672 922.823 260.653 921.803C253.958 918.424 244.852 911.523 235.134 897.451C215.704 869.313 193.845 812.528 183.888 697.92C180.851 662.967 167.853 639.965 150.063 625.09C132.255 610.2 109.625 603.441 87.3338 601.062C65.0474 598.683 43.1353 600.686 26.7903 603.286C18.6189 604.586 11.8415 606.035 7.10793 607.158C4.74117 607.72 2.88547 608.2 1.62205 608.54C0.990343 608.709 0.50672 608.844 0.181323 608.936C0.114101 608.955 0.0536278 608.973 0 608.988Z" stroke="url(#paint5_linear_1_89)" stroke-opacity="0.4"/>
<g clip-path="url(#clip1_1_89)">
<path d="M853.622 592.96V923.758H580.61C582.213 923.255 584.116 922.507 586.263 921.399C593.123 917.853 602.458 910.611 612.422 895.84C632.345 866.303 654.761 806.686 664.973 686.353C668.088 649.65 681.42 625.491 699.673 609.866C717.943 594.227 741.158 587.128 764.022 584.63C786.882 582.132 809.357 584.236 826.121 586.966C834.502 588.331 841.453 589.852 846.308 591.031C848.736 591.621 850.64 592.126 851.936 592.482C852.584 592.661 853.08 592.802 853.413 592.899C853.492 592.922 853.561 592.942 853.622 592.96Z" stroke="url(#paint6_linear_1_89)"/>
<path d="M853.622 602.237V923.757H590.334C591.863 923.269 593.669 922.548 595.701 921.49C602.322 918.043 611.33 911.003 620.943 896.643C640.166 867.929 661.793 809.976 671.646 693.008C674.651 657.335 687.512 633.855 705.118 618.671C722.741 603.472 745.136 596.572 767.193 594.144C789.246 591.716 810.928 593.761 827.101 596.414C835.187 597.741 841.893 599.219 846.577 600.366C848.918 600.939 850.755 601.429 852.005 601.776C852.63 601.949 853.109 602.087 853.431 602.181C853.502 602.202 853.566 602.221 853.622 602.237Z" stroke="url(#paint7_linear_1_89)" stroke-opacity="0.6"/>
<path d="M853.622 610.247V923.757H601.525C602.974 923.281 604.678 922.586 606.592 921.571C612.937 918.207 621.568 911.34 630.777 897.334C649.192 869.331 669.908 812.817 679.345 698.755C682.224 663.969 694.542 641.076 711.402 626.272C728.279 611.454 749.727 604.726 770.853 602.358C791.974 599.991 812.741 601.985 828.232 604.572C835.976 605.866 842.399 607.308 846.886 608.425C849.128 608.984 850.887 609.462 852.085 609.801C852.684 609.97 853.142 610.104 853.45 610.195C853.514 610.214 853.571 610.231 853.622 610.247Z" stroke="url(#paint8_linear_1_89)" stroke-opacity="0.4"/>
<path d="M853.622 616.251V923.757H617.875C619.221 923.289 620.8 922.611 622.569 921.628C628.509 918.326 636.586 911.586 645.203 897.846C662.431 870.375 681.809 814.942 690.638 703.062C693.331 668.935 704.856 646.483 720.622 631.968C736.405 617.438 756.461 610.841 776.221 608.519C795.976 606.198 815.4 608.153 829.89 610.691C837.133 611.959 843.141 613.373 847.337 614.47C849.435 615.018 851.08 615.487 852.2 615.818C852.76 615.984 853.188 616.115 853.477 616.205C853.53 616.222 853.578 616.237 853.622 616.251Z" stroke="url(#paint9_linear_1_89)" stroke-opacity="0.2"/>
</g>
<g clip-path="url(#clip2_1_89)">
<path d="M872.55 315.691V-2.49542H561.394C563.221 -2.01166 565.39 -1.29299 567.836 -0.225871C575.655 3.18481 586.295 10.15 597.65 24.3581C620.356 52.7692 645.905 110.114 657.544 225.859C661.094 261.162 676.289 284.401 697.092 299.43C717.914 314.472 744.373 321.301 770.431 323.704C796.485 326.106 822.1 324.083 841.207 321.457C850.758 320.144 858.681 318.681 864.214 317.546C866.981 316.98 869.151 316.494 870.628 316.151C871.367 315.98 871.932 315.843 872.312 315.75C872.402 315.728 872.481 315.708 872.55 315.691Z" stroke="url(#paint10_linear_1_89)"/>
<path d="M872.55 306.768V-2.49442H572.477C574.219 -2.02437 576.277 -1.33253 578.593 -0.314729C586.139 3.00168 596.406 9.77361 607.362 23.5861C629.271 51.2056 653.92 106.949 665.149 219.457C668.573 253.77 683.232 276.355 703.297 290.96C723.383 305.581 748.906 312.217 774.046 314.553C799.18 316.888 823.891 314.921 842.324 312.369C851.539 311.092 859.182 309.67 864.52 308.567C867.189 308.016 869.282 307.545 870.707 307.212C871.419 307.044 871.965 306.913 872.332 306.822C872.414 306.802 872.486 306.784 872.55 306.768Z" stroke="url(#paint11_linear_1_89)" stroke-opacity="0.6"/>
<path d="M872.55 299.063V-2.49445H585.231C586.882 -2.03634 588.825 -1.36755 591.006 -0.391651C598.237 2.84389 608.074 9.44967 618.57 22.9208C639.558 49.8568 663.169 104.216 673.924 213.93C677.205 247.39 691.244 269.41 710.46 283.649C729.695 297.903 754.139 304.374 778.216 306.651C802.289 308.928 825.958 307.011 843.613 304.521C852.439 303.278 859.759 301.89 864.873 300.815C867.429 300.278 869.433 299.818 870.798 299.492C871.48 299.33 872.003 299.201 872.354 299.113C872.427 299.095 872.492 299.078 872.55 299.063Z" stroke="url(#paint12_linear_1_89)" stroke-opacity="0.4"/>
<path d="M872.55 293.288V-2.49445H603.866C605.4 -2.04507 607.199 -1.39296 609.215 -0.447133C615.986 2.72942 625.191 9.21256 635.011 22.4281C654.647 48.8515 676.732 102.172 686.794 209.787C689.863 242.613 702.999 264.208 720.968 278.17C738.956 292.146 761.814 298.492 784.335 300.725C806.849 302.959 828.987 301.078 845.502 298.636C853.757 297.416 860.604 296.056 865.387 295.002C867.778 294.474 869.653 294.023 870.929 293.704C871.567 293.545 872.055 293.419 872.384 293.332C872.445 293.316 872.5 293.302 872.55 293.288Z" stroke="url(#paint13_linear_1_89)" stroke-opacity="0.2"/>
</g>
<path d="M0 592.463V924H302C300.246 923.496 298.175 922.754 295.844 921.663C288.25 918.108 277.918 910.849 266.89 896.041C244.841 866.432 220.034 806.674 208.733 686.062C205.286 649.278 190.534 625.067 170.34 609.409C150.124 593.736 124.438 586.621 99.1368 584.117C73.8413 581.614 48.9712 583.722 30.4202 586.459C21.1459 587.827 13.4537 589.351 8.08111 590.533C5.39486 591.124 3.28863 591.63 1.85458 591.988C1.13756 592.166 0.588599 592.308 0.219229 592.405C0.137263 592.427 0.064152 592.446 0 592.463Z" stroke="url(#paint14_linear_1_89)" stroke-opacity="0.6"/>
</g>
<defs>
<linearGradient id="paint0_linear_1_89" x1="146.269" y1="-2.49766" x2="146.269" y2="326.497" gradientUnits="userSpaceOnUse">
<stop stop-color="#6769D0"/>
<stop offset="1" stop-color="#8F6AC0"/>
</linearGradient>
<linearGradient id="paint1_linear_1_89" x1="141.217" y1="-2.49951" x2="141.217" y2="318.498" gradientUnits="userSpaceOnUse">
<stop stop-color="#6769D0"/>
<stop offset="1" stop-color="#8F6AC0"/>
</linearGradient>
<linearGradient id="paint2_linear_1_89" x1="135.135" y1="-2.49784" x2="135.135" y2="309.497" gradientUnits="userSpaceOnUse">
<stop stop-color="#6769D0"/>
<stop offset="1" stop-color="#8F6AC0"/>
</linearGradient>
<linearGradient id="paint3_linear_1_89" x1="146.76" y1="924.517" x2="146.76" y2="582.484" gradientUnits="userSpaceOnUse">
<stop stop-color="#6769D0"/>
<stop offset="1" stop-color="#8F6AC0"/>
</linearGradient>
<linearGradient id="paint4_linear_1_89" x1="141.707" y1="924.518" x2="141.707" y2="591.483" gradientUnits="userSpaceOnUse">
<stop stop-color="#6769D0"/>
<stop offset="1" stop-color="#8F6AC0"/>
</linearGradient>
<linearGradient id="paint5_linear_1_89" x1="135.625" y1="924.519" x2="135.625" y2="599.482" gradientUnits="userSpaceOnUse">
<stop stop-color="#6769D0"/>
<stop offset="1" stop-color="#8F6AC0"/>
</linearGradient>
<linearGradient id="paint6_linear_1_89" x1="714.5" y1="924.274" x2="714.5" y2="583" gradientUnits="userSpaceOnUse">
<stop stop-color="#6769D0"/>
<stop offset="1" stop-color="#8F6AC0"/>
</linearGradient>
<linearGradient id="paint7_linear_1_89" x1="719.415" y1="924.273" x2="719.415" y2="592.545" gradientUnits="userSpaceOnUse">
<stop stop-color="#6769D0"/>
<stop offset="1" stop-color="#8F6AC0"/>
</linearGradient>
<linearGradient id="paint8_linear_1_89" x1="725.085" y1="924.273" x2="725.085" y2="600.787" gradientUnits="userSpaceOnUse">
<stop stop-color="#6769D0"/>
<stop offset="1" stop-color="#8F6AC0"/>
</linearGradient>
<linearGradient id="paint9_linear_1_89" x1="733.402" y1="924.273" x2="733.402" y2="606.968" gradientUnits="userSpaceOnUse">
<stop stop-color="#6769D0"/>
<stop offset="1" stop-color="#8F6AC0"/>
</linearGradient>
<linearGradient id="paint10_linear_1_89" x1="713.99" y1="-2.99198" x2="713.99" y2="325.272" gradientUnits="userSpaceOnUse">
<stop stop-color="#6769D0"/>
<stop offset="1" stop-color="#8F6AC0"/>
</linearGradient>
<linearGradient id="paint11_linear_1_89" x1="719.592" y1="-2.99094" x2="719.592" y2="316.091" gradientUnits="userSpaceOnUse">
<stop stop-color="#6769D0"/>
<stop offset="1" stop-color="#8F6AC0"/>
</linearGradient>
<linearGradient id="paint12_linear_1_89" x1="726.055" y1="-2.99095" x2="726.055" y2="308.163" gradientUnits="userSpaceOnUse">
<stop stop-color="#6769D0"/>
<stop offset="1" stop-color="#8F6AC0"/>
</linearGradient>
<linearGradient id="paint13_linear_1_89" x1="735.534" y1="-2.99093" x2="735.534" y2="302.218" gradientUnits="userSpaceOnUse">
<stop stop-color="#6769D0"/>
<stop offset="1" stop-color="#8F6AC0"/>
</linearGradient>
<linearGradient id="paint14_linear_1_89" x1="153.94" y1="924.532" x2="153.94" y2="582.469" gradientUnits="userSpaceOnUse">
<stop stop-color="#6769D0"/>
<stop offset="1" stop-color="#8F6AC0"/>
</linearGradient>
<clipPath id="clip0_1_89">
<rect width="812" height="924" fill="white"/>
</clipPath>
<clipPath id="clip1_1_89">
<rect width="248" height="341" fill="white" transform="translate(575 583)"/>
</clipPath>
<clipPath id="clip2_1_89">
<rect width="268" height="328" fill="white" transform="translate(555 -2)"/>
</clipPath>
</defs>
</svg>
