<svg width="812" height="556" viewBox="0 0 812 556" fill="none" xmlns="http://www.w3.org/2000/svg">
<g clip-path="url(#clip0_1_89)">
<rect width="812" height="556" fill="white"/>
<g clip-path="url(#clip1_1_89)">
<path d="M859.886 251.828V-0.3927H559.179C560.945 -0.00923107 563.041 0.560451 565.405 1.40633C572.962 4.10993 583.244 9.63108 594.218 20.8936C616.162 43.4146 640.852 88.8705 652.1 180.62C655.531 208.604 670.215 227.025 690.32 238.938C710.443 250.862 736.013 256.275 761.197 258.18C786.376 260.084 811.131 258.48 829.595 256.399C838.826 255.358 846.483 254.198 851.83 253.299C854.504 252.85 856.601 252.465 858.029 252.193C858.742 252.057 859.289 251.949 859.656 251.875C859.743 251.858 859.819 251.842 859.886 251.828Z" stroke="url(#paint0_linear_1_89)"/>
<path d="M859.886 244.755V-0.391968H569.89C571.573 -0.0193713 573.563 0.529042 575.801 1.33583C583.093 3.96469 593.015 9.33269 603.604 20.2816C624.777 42.1751 648.598 86.3616 659.45 175.546C662.759 202.744 676.925 220.647 696.317 232.225C715.729 243.814 740.394 249.074 764.69 250.926C788.98 252.777 812.861 251.218 830.675 249.195C839.581 248.183 846.967 247.056 852.126 246.181C854.705 245.745 856.728 245.371 858.105 245.107C858.793 244.974 859.32 244.87 859.675 244.798C859.754 244.782 859.824 244.768 859.886 244.755Z" stroke="url(#paint1_linear_1_89)" stroke-opacity="0.6"/>
<path d="M859.886 238.648V-0.391968H582.215C583.811 -0.0288355 585.689 0.501303 587.797 1.27488C594.785 3.83964 604.291 9.07593 614.435 19.7542C634.718 41.106 657.536 84.196 667.93 171.164C671.101 197.687 684.669 215.142 703.239 226.429C721.828 237.728 745.451 242.857 768.72 244.662C791.985 246.467 814.858 244.948 831.92 242.974C840.45 241.989 847.525 240.889 852.466 240.037C854.936 239.611 856.874 239.246 858.193 238.988C858.852 238.859 859.357 238.757 859.697 238.687C859.767 238.673 859.83 238.66 859.886 238.648Z" stroke="url(#paint2_linear_1_89)" stroke-opacity="0.4"/>
<path d="M859.886 234.07V-0.391968H600.225C601.707 -0.035752 603.446 0.48116 605.394 1.2309C611.938 3.7489 620.833 8.88797 630.324 19.3637C649.301 40.3091 670.644 82.5755 680.368 167.88C683.335 193.9 696.029 211.019 713.394 222.086C730.778 233.164 752.869 238.195 774.633 239.965C796.392 241.736 817.786 240.245 833.746 238.309C841.724 237.342 848.342 236.264 852.964 235.428C855.274 235.01 857.086 234.653 858.319 234.4C858.937 234.273 859.408 234.174 859.726 234.104C859.784 234.092 859.838 234.081 859.886 234.07Z" stroke="url(#paint3_linear_1_89)" stroke-opacity="0.2"/>
</g>
<g clip-path="url(#clip2_1_89)">
<path d="M-1.4375 266.357V-0.415405H314.508C312.653 -0.00981298 310.45 0.592736 307.966 1.48742C300.027 4.34699 289.224 10.1867 277.694 22.099C254.637 45.9192 228.696 93.9976 216.878 191.04C213.274 220.639 197.845 240.122 176.721 252.723C155.579 265.335 128.713 271.06 102.253 273.075C75.7982 275.089 49.7889 273.392 30.3882 271.191C20.6892 270.09 12.6447 268.864 7.02596 267.912C4.21665 267.437 2.01389 267.03 0.5141 266.742C-0.235792 266.599 -0.809932 266.484 -1.19627 266.406C-1.28712 266.388 -1.36758 266.371 -1.4375 266.357Z" stroke="url(#paint4_linear_1_89)"/>
<path d="M-1.4375 258.875V-0.414551H303.254C301.485 -0.0204585 299.395 0.559594 297.043 1.41293C289.382 4.19345 278.957 9.87114 267.831 21.4517C245.585 44.6083 220.558 91.344 209.156 185.673C205.678 214.441 190.795 233.377 170.42 245.622C150.025 257.88 124.109 263.444 98.5829 265.402C73.0619 267.361 47.9702 265.711 29.2538 263.571C19.8968 262.501 12.1361 261.309 6.71564 260.384C4.00545 259.922 1.88044 259.527 0.433609 259.248C-0.289797 259.107 -0.843655 258.997 -1.21632 258.921C-1.29901 258.904 -1.37278 258.889 -1.4375 258.875Z" stroke="url(#paint5_linear_1_89)" stroke-opacity="0.6"/>
<path d="M-1.4375 252.416V-0.414551H290.304C288.628 -0.0304686 286.655 0.530254 284.44 1.34846C277.097 4.06118 267.11 9.59957 256.451 20.8939C235.141 43.4775 211.166 89.0535 200.246 181.039C196.914 209.092 182.659 227.554 163.147 239.493C143.617 251.443 118.796 256.868 94.3479 258.777C69.9048 260.687 45.8721 259.079 27.9453 256.992C18.9832 255.949 11.55 254.786 6.35829 253.885C3.76249 253.434 1.72721 253.049 0.341524 252.776C-0.351319 252.639 -0.881744 252.531 -1.23863 252.457C-1.31236 252.442 -1.37868 252.428 -1.4375 252.416Z" stroke="url(#paint6_linear_1_89)" stroke-opacity="0.4"/>
<path d="M-1.4375 247.574V-0.414551H271.382C269.825 -0.0377841 267.998 0.50895 265.951 1.30195C259.075 3.96522 249.73 9.40077 239.757 20.4809C219.819 42.6346 197.394 87.3395 187.177 177.565C184.061 205.087 170.723 223.193 152.478 234.899C134.213 246.616 111.003 251.937 88.1356 253.809C65.2743 255.682 42.7958 254.105 26.0274 252.058C17.6446 251.035 10.6919 249.894 5.83587 249.01C3.40793 248.568 1.50433 248.19 0.208366 247.923C-0.439606 247.789 -0.935653 247.684 -1.26936 247.61C-1.33096 247.597 -1.38703 247.586 -1.4375 247.574Z" stroke="url(#paint7_linear_1_89)" stroke-opacity="0.2"/>
</g>
<g clip-path="url(#clip3_1_89)">
<path d="M853.709 359.9V555.857H553.176C554.94 555.559 557.036 555.116 559.398 554.459C566.95 552.359 577.226 548.069 588.194 539.319C610.125 521.822 634.801 486.506 646.043 415.224C649.472 393.482 664.148 379.17 684.241 369.915C704.352 360.651 729.908 356.446 755.077 354.966C780.241 353.486 804.982 354.732 823.436 356.349C832.661 357.158 840.314 358.059 845.658 358.758C848.33 359.107 850.426 359.406 851.853 359.617C852.566 359.723 853.112 359.807 853.479 359.864C853.566 359.877 853.642 359.889 853.709 359.9Z" stroke="url(#paint8_linear_1_89)"/>
<path d="M853.709 365.396V555.856H563.88C565.563 555.567 567.551 555.14 569.788 554.513C577.076 552.471 586.992 548.301 597.575 539.794C618.736 522.785 642.542 488.455 653.388 419.166C656.696 398.034 670.854 384.126 690.234 375.131C709.635 366.127 734.286 362.04 758.567 360.601C782.844 359.163 806.711 360.374 824.514 361.946C833.415 362.732 840.797 363.608 845.953 364.287C848.531 364.627 850.553 364.917 851.929 365.122C852.617 365.225 853.144 365.307 853.498 365.362C853.577 365.375 853.647 365.386 853.709 365.396Z" stroke="url(#paint9_linear_1_89)" stroke-opacity="0.6"/>
<path d="M853.709 370.14V555.856H576.198C577.793 555.574 579.67 555.162 581.777 554.561C588.761 552.568 598.262 548.5 608.4 540.204C628.671 523.615 651.476 490.138 661.864 422.57C665.033 401.964 678.593 388.403 697.152 379.633C715.731 370.855 739.34 366.87 762.596 365.467C785.847 364.065 808.707 365.246 825.76 366.779C834.284 367.545 841.355 368.399 846.294 369.061C848.762 369.392 850.698 369.676 852.017 369.876C852.676 369.976 853.18 370.055 853.52 370.11C853.59 370.121 853.653 370.131 853.709 370.14Z" stroke="url(#paint10_linear_1_89)" stroke-opacity="0.4"/>
<path d="M853.709 373.697V555.856H594.197C595.679 555.579 597.416 555.177 599.364 554.595C605.903 552.639 614.794 548.646 624.279 540.507C643.245 524.234 664.576 491.397 674.295 425.122C677.259 404.906 689.946 391.606 707.302 383.008C724.675 374.4 746.754 370.492 768.505 369.117C790.251 367.742 811.633 368.9 827.584 370.403C835.558 371.155 842.171 371.992 846.791 372.642C849.099 372.967 850.911 373.244 852.143 373.441C852.76 373.539 853.231 373.617 853.549 373.67C853.607 373.68 853.66 373.689 853.709 373.697Z" stroke="url(#paint11_linear_1_89)" stroke-opacity="0.2"/>
</g>
<g clip-path="url(#clip4_1_89)">
<path d="M-6.8894 328.72V551.922H320.277C318.356 551.583 316.076 551.078 313.503 550.33C305.282 547.938 294.095 543.052 282.156 533.085C258.28 513.155 231.418 472.929 219.18 391.736C215.447 366.971 199.471 350.67 177.597 340.128C155.703 329.575 127.883 324.786 100.483 323.1C73.0895 321.414 46.1564 322.834 26.0666 324.676C16.0231 325.597 7.69295 326.623 1.87465 327.419C-1.03444 327.817 -3.31543 328.157 -4.86849 328.398C-5.64502 328.518 -6.23955 328.614 -6.63961 328.679C-6.73369 328.695 -6.817 328.708 -6.8894 328.72Z" stroke="url(#paint12_linear_1_89)"/>
<path d="M-6.8894 334.98V551.921H308.624C306.792 551.592 304.628 551.106 302.193 550.392C294.259 548.066 283.464 543.316 271.943 533.626C248.907 514.252 222.991 475.149 211.183 396.227C207.583 372.157 192.17 356.314 171.072 346.068C149.953 335.813 123.116 331.158 96.6834 329.519C70.256 327.881 44.2731 329.261 24.892 331.051C15.2027 331.946 7.16633 332.944 1.55331 333.717C-1.25314 334.104 -3.45362 334.435 -4.95184 334.669C-5.70094 334.786 -6.27447 334.879 -6.66037 334.942C-6.746 334.956 -6.82238 334.969 -6.8894 334.98Z" stroke="url(#paint13_linear_1_89)" stroke-opacity="0.6"/>
<path d="M-6.8894 340.384V551.921H295.214C293.478 551.6 291.435 551.131 289.141 550.446C281.538 548.177 271.196 543.543 260.159 534.093C238.091 515.198 213.266 477.066 201.957 400.104C198.507 376.632 183.746 361.186 163.541 351.197C143.316 341.199 117.615 336.659 92.298 335.062C66.9867 333.465 42.1005 334.81 23.537 336.556C14.2565 337.429 6.55936 338.401 1.18326 339.155C-1.50472 339.533 -3.61229 339.855 -5.04719 340.083C-5.76464 340.197 -6.31391 340.288 -6.68347 340.35C-6.75982 340.362 -6.8285 340.374 -6.8894 340.384Z" stroke="url(#paint14_linear_1_89)" stroke-opacity="0.4"/>
<path d="M-6.8894 344.436V551.921H275.62C274.007 551.606 272.115 551.148 269.996 550.485C262.876 548.257 253.198 543.709 242.872 534.438C222.226 515.903 199.004 478.5 188.425 403.01C185.197 379.984 171.386 364.835 152.492 355.041C133.579 345.237 109.544 340.786 85.8651 339.219C62.1918 337.652 38.9149 338.972 21.551 340.684C12.8704 341.54 5.67076 342.494 0.642292 343.234C-1.87187 343.604 -3.84309 343.92 -5.18508 344.144C-5.85607 344.255 -6.36973 344.344 -6.71529 344.405C-6.77908 344.416 -6.83714 344.426 -6.8894 344.436Z" stroke="url(#paint15_linear_1_89)" stroke-opacity="0.2"/>
</g>
</g>
<defs>
<linearGradient id="paint0_linear_1_89" x1="706.651" y1="-0.786314" x2="706.651" y2="259.423" gradientUnits="userSpaceOnUse">
<stop stop-color="#6769D0"/>
<stop offset="1" stop-color="#8F6AC0"/>
</linearGradient>
<linearGradient id="paint1_linear_1_89" x1="712.064" y1="-0.785556" x2="712.064" y2="252.145" gradientUnits="userSpaceOnUse">
<stop stop-color="#6769D0"/>
<stop offset="1" stop-color="#8F6AC0"/>
</linearGradient>
<linearGradient id="paint2_linear_1_89" x1="718.31" y1="-0.785536" x2="718.31" y2="245.861" gradientUnits="userSpaceOnUse">
<stop stop-color="#6769D0"/>
<stop offset="1" stop-color="#8F6AC0"/>
</linearGradient>
<linearGradient id="paint3_linear_1_89" x1="727.471" y1="-0.78552" x2="727.471" y2="241.148" gradientUnits="userSpaceOnUse">
<stop stop-color="#6769D0"/>
<stop offset="1" stop-color="#8F6AC0"/>
</linearGradient>
<linearGradient id="paint4_linear_1_89" x1="159.563" y1="-0.831728" x2="159.563" y2="274.389" gradientUnits="userSpaceOnUse">
<stop stop-color="#6769D0"/>
<stop offset="1" stop-color="#8F6AC0"/>
</linearGradient>
<linearGradient id="paint5_linear_1_89" x1="153.875" y1="-0.830846" x2="153.875" y2="266.692" gradientUnits="userSpaceOnUse">
<stop stop-color="#6769D0"/>
<stop offset="1" stop-color="#8F6AC0"/>
</linearGradient>
<linearGradient id="paint6_linear_1_89" x1="147.312" y1="-0.830824" x2="147.312" y2="260.045" gradientUnits="userSpaceOnUse">
<stop stop-color="#6769D0"/>
<stop offset="1" stop-color="#8F6AC0"/>
</linearGradient>
<linearGradient id="paint7_linear_1_89" x1="137.688" y1="-0.830808" x2="137.688" y2="255.06" gradientUnits="userSpaceOnUse">
<stop stop-color="#6769D0"/>
<stop offset="1" stop-color="#8F6AC0"/>
</linearGradient>
<linearGradient id="paint8_linear_1_89" x1="700.563" y1="556.162" x2="700.563" y2="354" gradientUnits="userSpaceOnUse">
<stop stop-color="#6769D0"/>
<stop offset="1" stop-color="#8F6AC0"/>
</linearGradient>
<linearGradient id="paint9_linear_1_89" x1="705.972" y1="556.162" x2="705.972" y2="359.654" gradientUnits="userSpaceOnUse">
<stop stop-color="#6769D0"/>
<stop offset="1" stop-color="#8F6AC0"/>
</linearGradient>
<linearGradient id="paint10_linear_1_89" x1="712.215" y1="556.162" x2="712.215" y2="364.536" gradientUnits="userSpaceOnUse">
<stop stop-color="#6769D0"/>
<stop offset="1" stop-color="#8F6AC0"/>
</linearGradient>
<linearGradient id="paint11_linear_1_89" x1="721.37" y1="556.162" x2="721.37" y2="368.198" gradientUnits="userSpaceOnUse">
<stop stop-color="#6769D0"/>
<stop offset="1" stop-color="#8F6AC0"/>
</linearGradient>
<linearGradient id="paint12_linear_1_89" x1="159.829" y1="552.27" x2="159.829" y2="322" gradientUnits="userSpaceOnUse">
<stop stop-color="#6769D0"/>
<stop offset="1" stop-color="#8F6AC0"/>
</linearGradient>
<linearGradient id="paint13_linear_1_89" x1="153.939" y1="552.27" x2="153.939" y2="328.44" gradientUnits="userSpaceOnUse">
<stop stop-color="#6769D0"/>
<stop offset="1" stop-color="#8F6AC0"/>
</linearGradient>
<linearGradient id="paint14_linear_1_89" x1="147.144" y1="552.27" x2="147.144" y2="334.001" gradientUnits="userSpaceOnUse">
<stop stop-color="#6769D0"/>
<stop offset="1" stop-color="#8F6AC0"/>
</linearGradient>
<linearGradient id="paint15_linear_1_89" x1="137.177" y1="552.27" x2="137.177" y2="338.172" gradientUnits="userSpaceOnUse">
<stop stop-color="#6769D0"/>
<stop offset="1" stop-color="#8F6AC0"/>
</linearGradient>
<clipPath id="clip0_1_89">
<rect width="812" height="556" fill="white"/>
</clipPath>
<clipPath id="clip1_1_89">
<rect width="259" height="260" fill="white" transform="translate(553)"/>
</clipPath>
<clipPath id="clip2_1_89">
<rect width="315" height="275" fill="white" transform="translate(6)"/>
</clipPath>
<clipPath id="clip3_1_89">
<rect width="273" height="202" fill="white" transform="translate(547 354)"/>
</clipPath>
<clipPath id="clip4_1_89">
<rect width="328" height="228" fill="white" transform="translate(-1 322)"/>
</clipPath>
</defs>
</svg>
