<svg width="952" height="775" viewBox="0 0 952 775" fill="none" xmlns="http://www.w3.org/2000/svg">
<g clip-path="url(#clip0_1_89)">
<rect width="952" height="775" fill="white"/>
<g clip-path="url(#clip1_1_89)">
<path d="M1012.6 294.446V-0.459167H613.207C615.552 -0.0108036 618.337 0.655286 621.477 1.64432C631.513 4.80544 645.169 11.2609 659.745 24.4295C688.89 50.7617 721.683 103.91 736.624 211.186C741.18 243.906 760.684 265.444 787.386 279.374C814.113 293.316 848.075 299.645 881.524 301.872C914.966 304.098 947.845 302.223 972.37 299.789C984.63 298.572 994.8 297.216 1001.9 296.165C1005.45 295.64 1008.24 295.19 1010.13 294.872C1011.08 294.713 1011.81 294.586 1012.3 294.5C1012.41 294.48 1012.51 294.461 1012.6 294.446Z" stroke="url(#paint0_linear_1_89)"/>
<path d="M1012.6 286.175V-0.458221H627.433C629.669 -0.0225702 632.311 0.618651 635.284 1.56198C644.97 4.63572 658.148 10.9121 672.211 23.7139C700.333 49.3125 731.971 100.977 746.385 205.253C750.781 237.055 769.596 257.988 795.351 271.524C821.134 285.075 853.894 291.226 886.163 293.39C918.425 295.555 950.144 293.732 973.803 291.366C985.632 290.183 995.442 288.865 1002.29 287.843C1005.72 287.332 1008.41 286.895 1010.24 286.587C1011.15 286.431 1011.85 286.309 1012.32 286.226C1012.43 286.206 1012.52 286.19 1012.6 286.175Z" stroke="url(#paint1_linear_1_89)" stroke-opacity="0.6"/>
<path d="M1012.6 279.034V-0.458252H643.803C645.923 -0.0336665 648.417 0.586187 651.217 1.49068C660.499 4.48947 673.125 10.6119 686.597 23.0973C713.537 48.0624 743.843 98.4446 757.649 200.13C761.86 231.142 779.88 251.55 804.545 264.748C829.235 277.959 860.611 283.956 891.517 286.067C922.416 288.177 952.796 286.4 975.458 284.093C986.787 282.94 996.183 281.655 1002.75 280.658C1006.03 280.16 1008.6 279.734 1010.35 279.432C1011.23 279.281 1011.9 279.162 1012.35 279.08C1012.44 279.064 1012.53 279.048 1012.6 279.034Z" stroke="url(#paint2_linear_1_89)" stroke-opacity="0.4"/>
<path d="M1012.6 273.682V-0.458282H667.723C669.692 -0.041784 672.001 0.562605 674.589 1.43923C683.28 4.38335 695.095 10.3921 707.701 22.6406C732.905 47.1306 761.253 96.5498 774.168 196.29C778.108 226.714 794.969 246.73 818.033 259.67C841.122 272.623 870.463 278.504 899.37 280.575C928.269 282.645 956.685 280.901 977.883 278.638C988.479 277.508 997.268 276.247 1003.41 275.27C1006.48 274.781 1008.88 274.363 1010.52 274.067C1011.34 273.92 1011.97 273.803 1012.39 273.722C1012.47 273.707 1012.54 273.695 1012.6 273.682Z" stroke="url(#paint3_linear_1_89)" stroke-opacity="0.2"/>
</g>
<g clip-path="url(#clip2_1_89)">
<path d="M-8.54724 296.383V-0.462189H354.539C352.407 -0.0108751 349.876 0.659597 347.021 1.65514C337.898 4.83706 325.482 11.335 312.232 24.5902C285.736 51.0956 255.924 104.594 242.342 212.576C238.2 245.511 220.469 267.191 196.194 281.212C171.897 295.246 141.022 301.616 110.614 303.858C80.2125 306.099 50.3224 304.211 28.027 301.761C16.8808 300.536 7.63611 299.172 1.17902 298.113C-2.04946 297.585 -4.58088 297.132 -6.30445 296.812C-7.16623 296.652 -7.82604 296.524 -8.27002 296.437C-8.37443 296.417 -8.46689 296.398 -8.54724 296.383Z" stroke="url(#paint4_linear_1_89)"/>
<path d="M-8.54724 288.058V-0.461243H341.606C339.573 -0.0227253 337.172 0.622715 334.469 1.57224C325.664 4.66621 313.684 10.9839 300.898 23.8699C275.333 49.6369 246.571 101.641 233.468 206.604C229.472 238.614 212.367 259.685 188.953 273.311C165.514 286.95 135.732 293.142 106.397 295.321C77.068 297.499 48.2324 295.664 26.7234 293.283C15.9703 292.092 7.05167 290.766 0.822398 289.737C-2.29217 289.223 -4.73425 288.783 -6.39695 288.472C-7.22829 288.316 -7.86479 288.193 -8.29306 288.109C-8.38809 288.089 -8.47286 288.073 -8.54724 288.058Z" stroke="url(#paint5_linear_1_89)" stroke-opacity="0.6"/>
<path d="M-8.54724 280.87V-0.461273H326.724C324.797 -0.0338945 322.53 0.590037 319.985 1.50048C311.546 4.519 300.069 10.6817 287.82 23.2493C263.33 48.3786 235.779 99.0922 223.228 201.447C219.4 232.663 203.018 253.205 180.595 266.49C158.15 279.788 129.626 285.824 101.53 287.949C73.4397 290.073 45.8212 288.284 25.2197 285.962C14.9203 284.802 6.37806 283.508 0.411724 282.505C-2.57138 282.003 -4.91034 281.575 -6.50278 281.27C-7.29899 281.119 -7.90856 280.999 -8.3187 280.916C-8.40343 280.9 -8.47965 280.884 -8.54724 280.87Z" stroke="url(#paint6_linear_1_89)" stroke-opacity="0.4"/>
<path d="M-8.54724 275.482V-0.461304H304.979C303.189 -0.0420651 301.089 0.566301 298.737 1.44869C290.836 4.41218 280.095 10.4605 268.635 22.7896C245.723 47.4407 219.951 97.185 208.21 197.582C204.629 228.206 189.301 248.353 168.333 261.379C147.343 274.416 120.67 280.337 94.3908 282.42C68.1183 284.504 42.2859 282.75 23.0156 280.472C13.382 279.334 5.3919 278.064 -0.188638 277.081C-2.97884 276.589 -5.16647 276.168 -6.6558 275.871C-7.40046 275.722 -7.97052 275.604 -8.35401 275.523C-8.42481 275.508 -8.48924 275.495 -8.54724 275.482Z" stroke="url(#paint7_linear_1_89)" stroke-opacity="0.2"/>
</g>
<g clip-path="url(#clip3_1_89)">
<path d="M1003.7 482.879V777.784H605.189C607.529 777.336 610.307 776.669 613.44 775.681C623.454 772.52 637.08 766.064 651.623 752.896C680.705 726.563 713.425 673.415 728.332 566.139C732.878 533.418 752.339 511.88 778.982 497.951C805.65 484.009 839.537 477.68 872.911 475.453C906.279 473.226 939.086 475.102 963.556 477.536C975.789 478.752 985.936 480.108 993.022 481.16C996.566 481.686 999.345 482.135 1001.24 482.453C1002.18 482.612 1002.91 482.739 1003.39 482.825C1003.51 482.845 1003.61 482.863 1003.7 482.879Z" stroke="url(#paint8_linear_1_89)"/>
<path d="M1003.7 491.15V777.783H619.383C621.614 777.348 624.251 776.706 627.217 775.763C636.881 772.69 650.03 766.413 664.062 753.611C692.122 728.013 723.69 676.348 738.072 572.072C742.458 540.27 761.231 519.337 786.93 505.8C812.655 492.25 845.343 486.099 877.54 483.935C909.73 481.77 941.379 483.593 964.986 485.959C976.789 487.141 986.577 488.459 993.414 489.482C996.832 489.993 999.513 490.43 1001.34 490.739C1002.25 490.893 1002.95 491.016 1003.42 491.1C1003.52 491.118 1003.62 491.135 1003.7 491.15Z" stroke="url(#paint9_linear_1_89)" stroke-opacity="0.6"/>
<path d="M1003.7 498.29V777.783H635.717C637.832 777.359 640.321 776.739 643.114 775.834C652.376 772.836 664.974 766.713 678.417 754.227C705.297 729.263 735.536 678.88 749.31 577.195C753.512 546.183 771.493 525.774 796.103 512.577C820.738 499.366 852.044 493.369 882.882 491.258C913.712 489.147 944.026 490.925 966.637 493.232C977.941 494.385 987.317 495.67 993.866 496.667C997.139 497.165 999.706 497.591 1001.45 497.893C1002.33 498.043 1003 498.163 1003.45 498.245C1003.54 498.261 1003.62 498.277 1003.7 498.29Z" stroke="url(#paint10_linear_1_89)" stroke-opacity="0.4"/>
<path d="M1003.7 503.643V777.783H659.584C661.549 777.366 663.853 776.762 666.435 775.886C675.106 772.941 686.896 766.933 699.473 754.684C724.622 730.194 752.907 680.775 765.794 581.035C769.725 550.611 786.548 530.595 809.561 517.655C832.599 504.702 861.875 498.82 890.718 496.75C919.553 494.681 947.906 496.424 969.057 498.686C979.63 499.817 988.399 501.078 994.525 502.055C997.586 502.544 999.988 502.962 1001.62 503.257C1002.44 503.405 1003.06 503.522 1003.49 503.602C1003.56 503.617 1003.63 503.631 1003.7 503.643Z" stroke="url(#paint11_linear_1_89)" stroke-opacity="0.2"/>
</g>
<g clip-path="url(#clip4_1_89)">
<path d="M-15.5 482.96V780.563H345.58C343.46 780.11 340.943 779.438 338.104 778.44C329.031 775.25 316.684 768.735 303.507 755.447C277.157 728.873 247.51 675.239 234.003 566.981C229.884 533.962 212.251 512.227 188.11 498.17C163.947 484.1 133.243 477.714 103.003 475.466C72.7694 473.219 43.0444 475.112 20.8722 477.568C9.7876 478.796 0.59394 480.164 -5.82748 481.225C-9.03812 481.756 -11.5555 482.21 -13.2696 482.531C-14.1266 482.691 -14.7828 482.819 -15.2243 482.906C-15.3281 482.926 -15.4201 482.944 -15.5 482.96Z" stroke="url(#paint12_linear_1_89)"/>
<path d="M-15.5 491.307V780.562H332.719C330.697 780.122 328.309 779.475 325.621 778.523C316.865 775.422 304.951 769.088 292.236 756.169C266.812 730.336 238.209 678.199 225.178 572.969C221.204 540.876 204.194 519.752 180.909 506.091C157.6 492.417 127.982 486.21 98.809 484.025C69.6422 481.841 40.9659 483.681 19.5758 486.068C8.8821 487.262 0.0127301 488.592 -6.18213 489.623C-9.27949 490.139 -11.7081 490.58 -13.3616 490.892C-14.1883 491.048 -14.8213 491.171 -15.2472 491.256C-15.3417 491.275 -15.426 491.292 -15.5 491.307Z" stroke="url(#paint13_linear_1_89)" stroke-opacity="0.6"/>
<path d="M-15.5 498.513V780.562H317.919C316.003 780.134 313.748 779.508 311.217 778.595C302.825 775.569 291.411 769.391 279.23 756.79C254.875 731.597 227.476 680.754 214.995 578.139C211.188 546.843 194.896 526.248 172.597 512.93C150.276 499.598 121.91 493.546 93.969 491.416C66.034 489.286 38.5681 491.08 18.0804 493.408C7.8379 494.571 -0.65716 495.868 -6.59053 496.874C-9.55715 497.377 -11.8832 497.807 -13.4668 498.111C-14.2586 498.263 -14.8648 498.384 -15.2727 498.466C-15.357 498.483 -15.4328 498.499 -15.5 498.513Z" stroke="url(#paint14_linear_1_89)" stroke-opacity="0.4"/>
<path d="M-15.5 503.914V780.562H296.294C294.514 780.141 292.426 779.531 290.087 778.647C282.229 775.676 271.548 769.612 260.151 757.251C237.365 732.537 211.736 682.666 200.06 582.014C196.498 551.312 181.255 531.113 160.403 518.054C139.529 504.983 113.003 499.047 86.8693 496.958C60.742 494.87 35.0523 496.629 15.8885 498.912C6.3081 500.053 -1.63787 501.325 -7.18758 502.312C-9.96236 502.805 -12.1379 503.227 -13.619 503.525C-14.3595 503.674 -14.9265 503.792 -15.3078 503.873C-15.3782 503.888 -15.4423 503.902 -15.5 503.914Z" stroke="url(#paint15_linear_1_89)" stroke-opacity="0.2"/>
</g>
</g>
<defs>
<linearGradient id="paint0_linear_1_89" x1="809.077" y1="-0.919393" x2="809.077" y2="303.325" gradientUnits="userSpaceOnUse">
<stop stop-color="#6769D0"/>
<stop offset="1" stop-color="#8F6AC0"/>
</linearGradient>
<linearGradient id="paint1_linear_1_89" x1="816.267" y1="-0.918417" x2="816.267" y2="294.816" gradientUnits="userSpaceOnUse">
<stop stop-color="#6769D0"/>
<stop offset="1" stop-color="#8F6AC0"/>
</linearGradient>
<linearGradient id="paint2_linear_1_89" x1="824.563" y1="-0.918423" x2="824.563" y2="287.468" gradientUnits="userSpaceOnUse">
<stop stop-color="#6769D0"/>
<stop offset="1" stop-color="#8F6AC0"/>
</linearGradient>
<linearGradient id="paint3_linear_1_89" x1="836.73" y1="-0.918436" x2="836.73" y2="281.958" gradientUnits="userSpaceOnUse">
<stop stop-color="#6769D0"/>
<stop offset="1" stop-color="#8F6AC0"/>
</linearGradient>
<linearGradient id="paint4_linear_1_89" x1="176.475" y1="-0.925442" x2="176.475" y2="305.321" gradientUnits="userSpaceOnUse">
<stop stop-color="#6769D0"/>
<stop offset="1" stop-color="#8F6AC0"/>
</linearGradient>
<linearGradient id="paint5_linear_1_89" x1="169.939" y1="-0.924466" x2="169.939" y2="296.755" gradientUnits="userSpaceOnUse">
<stop stop-color="#6769D0"/>
<stop offset="1" stop-color="#8F6AC0"/>
</linearGradient>
<linearGradient id="paint6_linear_1_89" x1="162.397" y1="-0.924472" x2="162.397" y2="289.36" gradientUnits="userSpaceOnUse">
<stop stop-color="#6769D0"/>
<stop offset="1" stop-color="#8F6AC0"/>
</linearGradient>
<linearGradient id="paint7_linear_1_89" x1="151.336" y1="-0.924484" x2="151.336" y2="283.813" gradientUnits="userSpaceOnUse">
<stop stop-color="#6769D0"/>
<stop offset="1" stop-color="#8F6AC0"/>
</linearGradient>
<linearGradient id="paint8_linear_1_89" x1="800.625" y1="778.244" x2="800.625" y2="474" gradientUnits="userSpaceOnUse">
<stop stop-color="#6769D0"/>
<stop offset="1" stop-color="#8F6AC0"/>
</linearGradient>
<linearGradient id="paint9_linear_1_89" x1="807.799" y1="778.243" x2="807.799" y2="482.509" gradientUnits="userSpaceOnUse">
<stop stop-color="#6769D0"/>
<stop offset="1" stop-color="#8F6AC0"/>
</linearGradient>
<linearGradient id="paint10_linear_1_89" x1="816.076" y1="778.243" x2="816.076" y2="489.857" gradientUnits="userSpaceOnUse">
<stop stop-color="#6769D0"/>
<stop offset="1" stop-color="#8F6AC0"/>
</linearGradient>
<linearGradient id="paint11_linear_1_89" x1="828.216" y1="778.243" x2="828.216" y2="495.367" gradientUnits="userSpaceOnUse">
<stop stop-color="#6769D0"/>
<stop offset="1" stop-color="#8F6AC0"/>
</linearGradient>
<linearGradient id="paint12_linear_1_89" x1="168.5" y1="781.027" x2="168.5" y2="474" gradientUnits="userSpaceOnUse">
<stop stop-color="#6769D0"/>
<stop offset="1" stop-color="#8F6AC0"/>
</linearGradient>
<linearGradient id="paint13_linear_1_89" x1="162" y1="781.026" x2="162" y2="482.587" gradientUnits="userSpaceOnUse">
<stop stop-color="#6769D0"/>
<stop offset="1" stop-color="#8F6AC0"/>
</linearGradient>
<linearGradient id="paint14_linear_1_89" x1="154.5" y1="781.026" x2="154.5" y2="490.002" gradientUnits="userSpaceOnUse">
<stop stop-color="#6769D0"/>
<stop offset="1" stop-color="#8F6AC0"/>
</linearGradient>
<linearGradient id="paint15_linear_1_89" x1="143.5" y1="781.026" x2="143.5" y2="495.563" gradientUnits="userSpaceOnUse">
<stop stop-color="#6769D0"/>
<stop offset="1" stop-color="#8F6AC0"/>
</linearGradient>
<clipPath id="clip0_1_89">
<rect width="952" height="775" fill="white"/>
</clipPath>
<clipPath id="clip1_1_89">
<rect width="344" height="304" fill="white" transform="translate(605)"/>
</clipPath>
<clipPath id="clip2_1_89">
<rect width="362" height="306" fill="white"/>
</clipPath>
<clipPath id="clip3_1_89">
<rect width="362" height="304" fill="white" transform="translate(597 474)"/>
</clipPath>
<clipPath id="clip4_1_89">
<rect width="362" height="304" fill="white" transform="translate(-9 474)"/>
</clipPath>
</defs>
</svg>
