<svg width="952" height="994" viewBox="0 0 952 994" fill="none" xmlns="http://www.w3.org/2000/svg">
<rect width="952" height="994" fill="white"/>
<g clip-path="url(#clip0_1_89)">
<path d="M1012.6 294.446V-0.459106H613.207C615.552 -0.0107426 618.337 0.655347 621.477 1.64438C631.513 4.8055 645.169 11.261 659.745 24.4295C688.89 50.7617 721.683 103.91 736.624 211.186C741.18 243.906 760.684 265.444 787.386 279.374C814.113 293.316 848.075 299.645 881.524 301.872C914.966 304.098 947.845 302.223 972.37 299.789C984.63 298.572 994.8 297.217 1001.9 296.165C1005.45 295.64 1008.24 295.19 1010.13 294.872C1011.08 294.713 1011.81 294.586 1012.3 294.5C1012.41 294.48 1012.51 294.461 1012.6 294.446Z" stroke="url(#paint0_linear_1_89)"/>
<path d="M1012.6 286.175V-0.458252H627.433C629.669 -0.0226008 632.311 0.618621 635.284 1.56194C644.97 4.63569 658.148 10.9121 672.211 23.7139C700.333 49.3125 731.971 100.977 746.385 205.253C750.781 237.055 769.596 257.988 795.351 271.524C821.134 285.075 853.894 291.226 886.163 293.39C918.425 295.555 950.144 293.732 973.803 291.366C985.632 290.183 995.442 288.865 1002.29 287.843C1005.72 287.332 1008.41 286.895 1010.24 286.587C1011.15 286.431 1011.85 286.309 1012.32 286.226C1012.43 286.206 1012.52 286.19 1012.6 286.175Z" stroke="url(#paint1_linear_1_89)" stroke-opacity="0.6"/>
<path d="M1012.6 279.034V-0.458252H643.803C645.923 -0.0336665 648.417 0.586187 651.217 1.49068C660.499 4.48947 673.125 10.6119 686.597 23.0973C713.537 48.0624 743.843 98.4446 757.649 200.13C761.86 231.142 779.88 251.55 804.545 264.748C829.235 277.959 860.611 283.956 891.517 286.067C922.416 288.177 952.796 286.4 975.458 284.093C986.787 282.94 996.183 281.655 1002.75 280.658C1006.03 280.16 1008.6 279.734 1010.35 279.432C1011.23 279.281 1011.9 279.162 1012.35 279.08C1012.44 279.064 1012.53 279.048 1012.6 279.034Z" stroke="url(#paint2_linear_1_89)" stroke-opacity="0.4"/>
<path d="M1012.6 273.682V-0.458252H667.723C669.692 -0.0417535 672.001 0.562636 674.589 1.43926C683.28 4.38338 695.095 10.3921 707.701 22.6407C732.905 47.1307 761.253 96.5499 774.168 196.29C778.108 226.714 794.969 246.73 818.033 259.67C841.122 272.623 870.463 278.504 899.37 280.575C928.269 282.645 956.685 280.902 977.883 278.639C988.479 277.508 997.268 276.247 1003.41 275.27C1006.48 274.781 1008.88 274.363 1010.52 274.068C1011.34 273.92 1011.97 273.803 1012.39 273.722C1012.47 273.707 1012.54 273.695 1012.6 273.682Z" stroke="url(#paint3_linear_1_89)" stroke-opacity="0.2"/>
</g>
<g clip-path="url(#clip1_1_89)">
<path d="M-8.54724 296.383V-0.462158H354.539C352.407 -0.0108446 349.876 0.659628 347.021 1.65517C337.898 4.83709 325.482 11.3351 312.232 24.5902C285.736 51.0956 255.924 104.594 242.342 212.576C238.2 245.511 220.469 267.191 196.194 281.212C171.897 295.246 141.022 301.616 110.614 303.858C80.2125 306.099 50.3224 304.211 28.027 301.761C16.8808 300.536 7.63611 299.172 1.17902 298.113C-2.04946 297.585 -4.58088 297.132 -6.30445 296.812C-7.16623 296.652 -7.82604 296.524 -8.27002 296.437C-8.37443 296.417 -8.46689 296.398 -8.54724 296.383Z" stroke="url(#paint4_linear_1_89)"/>
<path d="M-8.54724 288.058V-0.461304H341.606C339.573 -0.0227864 337.172 0.622654 334.469 1.57218C325.664 4.66615 313.684 10.9839 300.898 23.8699C275.333 49.6368 246.571 101.641 233.468 206.604C229.472 238.614 212.367 259.685 188.953 273.311C165.514 286.95 135.732 293.141 106.397 295.32C77.068 297.499 48.2324 295.664 26.7234 293.283C15.9703 292.092 7.05167 290.766 0.822398 289.737C-2.29217 289.223 -4.73425 288.783 -6.39695 288.472C-7.22829 288.316 -7.86479 288.193 -8.29306 288.109C-8.38809 288.089 -8.47286 288.073 -8.54724 288.058Z" stroke="url(#paint5_linear_1_89)" stroke-opacity="0.6"/>
<path d="M-8.54724 280.87V-0.461304H326.724C324.797 -0.033925 322.53 0.590007 319.985 1.50045C311.546 4.51897 300.069 10.6817 287.82 23.2492C263.33 48.3786 235.779 99.0922 223.228 201.447C219.4 232.663 203.018 253.205 180.595 266.49C158.15 279.788 129.626 285.824 101.53 287.949C73.4397 290.073 45.8212 288.284 25.2197 285.962C14.9203 284.802 6.37806 283.508 0.411724 282.505C-2.57138 282.003 -4.91034 281.575 -6.50278 281.27C-7.29899 281.119 -7.90856 280.999 -8.3187 280.916C-8.40343 280.9 -8.47965 280.884 -8.54724 280.87Z" stroke="url(#paint6_linear_1_89)" stroke-opacity="0.4"/>
<path d="M-8.54724 275.482V-0.461304H304.979C303.189 -0.0420651 301.089 0.566301 298.737 1.44869C290.836 4.41218 280.095 10.4605 268.635 22.7896C245.723 47.4407 219.951 97.185 208.21 197.582C204.629 228.206 189.301 248.353 168.333 261.379C147.343 274.416 120.67 280.337 94.3908 282.42C68.1183 284.504 42.2859 282.75 23.0156 280.472C13.382 279.334 5.3919 278.064 -0.188638 277.081C-2.97884 276.589 -5.16647 276.168 -6.6558 275.871C-7.40046 275.722 -7.97052 275.604 -8.35401 275.523C-8.42481 275.508 -8.48924 275.495 -8.54724 275.482Z" stroke="url(#paint7_linear_1_89)" stroke-opacity="0.2"/>
</g>
<g clip-path="url(#clip2_1_89)">
<path d="M993.698 698.879V993.784H595.189C597.529 993.336 600.307 992.669 603.44 991.681C613.454 988.52 627.08 982.064 641.623 968.896C670.705 942.563 703.425 889.415 718.332 782.139C722.878 749.419 742.339 727.88 768.982 713.951C795.65 700.009 829.537 693.68 862.911 691.453C896.279 689.226 929.086 691.102 953.556 693.536C965.789 694.752 975.936 696.108 983.022 697.16C986.566 697.686 989.345 698.135 991.237 698.453C992.183 698.612 992.907 698.739 993.394 698.825C993.508 698.845 993.61 698.863 993.698 698.879Z" stroke="url(#paint8_linear_1_89)"/>
<path d="M993.698 707.15V993.783H609.383C611.614 993.348 614.251 992.706 617.217 991.763C626.881 988.69 640.03 982.413 654.062 969.611C682.122 944.013 713.69 892.348 728.072 788.072C732.458 756.27 751.231 735.337 776.93 721.8C802.655 708.25 835.343 702.099 867.54 699.935C899.73 697.77 931.379 699.593 954.986 701.959C966.789 703.141 976.577 704.459 983.414 705.481C986.832 705.993 989.513 706.43 991.339 706.739C992.25 706.893 992.949 707.016 993.419 707.1C993.524 707.118 993.616 707.135 993.698 707.15Z" stroke="url(#paint9_linear_1_89)" stroke-opacity="0.6"/>
<path d="M993.698 714.29V993.783H625.717C627.832 993.359 630.321 992.739 633.114 991.834C642.376 988.836 654.974 982.713 668.417 970.227C695.297 945.263 725.536 894.88 739.31 793.195C743.512 762.183 761.493 741.774 786.103 728.577C810.738 715.366 842.044 709.369 872.882 707.258C903.712 705.147 934.026 706.925 956.637 709.232C967.941 710.385 977.317 711.67 983.866 712.667C987.139 713.165 989.706 713.591 991.454 713.893C992.329 714.043 992.997 714.163 993.448 714.245C993.54 714.261 993.624 714.277 993.698 714.29Z" stroke="url(#paint10_linear_1_89)" stroke-opacity="0.4"/>
<path d="M993.698 719.643V993.783H649.584C651.549 993.366 653.853 992.762 656.435 991.886C665.107 988.941 676.896 982.933 689.473 970.684C714.622 946.194 742.907 896.775 755.794 797.035C759.725 766.611 776.548 746.595 799.561 733.655C822.599 720.702 851.875 714.82 880.718 712.75C909.553 710.681 937.906 712.424 959.057 714.686C969.63 715.817 978.399 717.078 984.525 718.055C987.586 718.544 989.988 718.962 991.622 719.257C992.44 719.405 993.065 719.522 993.486 719.602C993.564 719.617 993.634 719.631 993.698 719.643Z" stroke="url(#paint11_linear_1_89)" stroke-opacity="0.2"/>
</g>
<g clip-path="url(#clip3_1_89)">
<path d="M-6.5 698.96V996.563H354.58C352.46 996.11 349.943 995.438 347.104 994.44C338.031 991.25 325.684 984.735 312.507 971.447C286.157 944.873 256.51 891.239 243.003 782.981C238.884 749.962 221.251 728.227 197.11 714.17C172.947 700.1 142.243 693.714 112.003 691.466C81.7694 689.219 52.0444 691.112 29.8722 693.568C18.7876 694.796 9.59394 696.164 3.17252 697.225C-0.0381219 697.756 -2.55555 698.21 -4.2696 698.531C-5.12662 698.691 -5.78278 698.819 -6.22431 698.906C-6.32814 698.926 -6.42009 698.944 -6.5 698.96Z" stroke="url(#paint12_linear_1_89)"/>
<path d="M-6.5 707.307V996.562H341.719C339.697 996.122 337.309 995.475 334.621 994.523C325.865 991.422 313.951 985.088 301.236 972.169C275.812 946.336 247.209 894.199 234.178 788.969C230.204 756.876 213.194 735.752 189.909 722.091C166.6 708.417 136.982 702.21 107.809 700.025C78.6422 697.841 49.9659 699.681 28.5758 702.068C17.8821 703.262 9.01273 704.592 2.81787 705.623C-0.27949 706.139 -2.70807 706.58 -4.36159 706.892C-5.18834 707.048 -5.82132 707.171 -6.24722 707.256C-6.34173 707.275 -6.42603 707.292 -6.5 707.307Z" stroke="url(#paint13_linear_1_89)" stroke-opacity="0.6"/>
<path d="M-6.5 714.513V996.562H326.919C325.003 996.134 322.748 995.508 320.217 994.595C311.825 991.569 300.411 985.391 288.23 972.79C263.875 947.597 236.476 896.754 223.995 794.139C220.188 762.843 203.896 742.248 181.597 728.93C159.276 715.598 130.91 709.546 102.969 707.416C75.034 705.286 47.5681 707.08 27.0804 709.408C16.8379 710.571 8.34284 711.868 2.40947 712.874C-0.557151 713.377 -2.88319 713.807 -4.46683 714.111C-5.25865 714.263 -5.86485 714.384 -6.27272 714.466C-6.35698 714.483 -6.43278 714.499 -6.5 714.513Z" stroke="url(#paint14_linear_1_89)" stroke-opacity="0.4"/>
<path d="M-6.5 719.914V996.562H305.294C303.514 996.141 301.426 995.531 299.087 994.647C291.229 991.676 280.548 985.612 269.151 973.251C246.365 948.537 220.736 898.666 209.06 798.014C205.498 767.312 190.255 747.113 169.403 734.054C148.529 720.983 122.003 715.047 95.8693 712.958C69.742 710.87 44.0523 712.629 24.8885 714.912C15.3081 716.053 7.36213 717.325 1.81242 718.312C-0.962357 718.805 -3.13791 719.227 -4.61901 719.525C-5.35955 719.674 -5.92646 719.792 -6.30784 719.873C-6.37824 719.888 -6.44232 719.902 -6.5 719.914Z" stroke="url(#paint15_linear_1_89)" stroke-opacity="0.2"/>
</g>
<defs>
<linearGradient id="paint0_linear_1_89" x1="809.077" y1="-0.919332" x2="809.077" y2="303.325" gradientUnits="userSpaceOnUse">
<stop stop-color="#6769D0"/>
<stop offset="1" stop-color="#8F6AC0"/>
</linearGradient>
<linearGradient id="paint1_linear_1_89" x1="816.267" y1="-0.918447" x2="816.267" y2="294.816" gradientUnits="userSpaceOnUse">
<stop stop-color="#6769D0"/>
<stop offset="1" stop-color="#8F6AC0"/>
</linearGradient>
<linearGradient id="paint2_linear_1_89" x1="824.563" y1="-0.918423" x2="824.563" y2="287.468" gradientUnits="userSpaceOnUse">
<stop stop-color="#6769D0"/>
<stop offset="1" stop-color="#8F6AC0"/>
</linearGradient>
<linearGradient id="paint3_linear_1_89" x1="836.73" y1="-0.918405" x2="836.73" y2="281.958" gradientUnits="userSpaceOnUse">
<stop stop-color="#6769D0"/>
<stop offset="1" stop-color="#8F6AC0"/>
</linearGradient>
<linearGradient id="paint4_linear_1_89" x1="176.475" y1="-0.925412" x2="176.475" y2="305.321" gradientUnits="userSpaceOnUse">
<stop stop-color="#6769D0"/>
<stop offset="1" stop-color="#8F6AC0"/>
</linearGradient>
<linearGradient id="paint5_linear_1_89" x1="169.939" y1="-0.924527" x2="169.939" y2="296.755" gradientUnits="userSpaceOnUse">
<stop stop-color="#6769D0"/>
<stop offset="1" stop-color="#8F6AC0"/>
</linearGradient>
<linearGradient id="paint6_linear_1_89" x1="162.397" y1="-0.924503" x2="162.397" y2="289.359" gradientUnits="userSpaceOnUse">
<stop stop-color="#6769D0"/>
<stop offset="1" stop-color="#8F6AC0"/>
</linearGradient>
<linearGradient id="paint7_linear_1_89" x1="151.336" y1="-0.924484" x2="151.336" y2="283.813" gradientUnits="userSpaceOnUse">
<stop stop-color="#6769D0"/>
<stop offset="1" stop-color="#8F6AC0"/>
</linearGradient>
<linearGradient id="paint8_linear_1_89" x1="790.625" y1="994.244" x2="790.625" y2="690" gradientUnits="userSpaceOnUse">
<stop stop-color="#6769D0"/>
<stop offset="1" stop-color="#8F6AC0"/>
</linearGradient>
<linearGradient id="paint9_linear_1_89" x1="797.799" y1="994.243" x2="797.799" y2="698.509" gradientUnits="userSpaceOnUse">
<stop stop-color="#6769D0"/>
<stop offset="1" stop-color="#8F6AC0"/>
</linearGradient>
<linearGradient id="paint10_linear_1_89" x1="806.076" y1="994.243" x2="806.076" y2="705.857" gradientUnits="userSpaceOnUse">
<stop stop-color="#6769D0"/>
<stop offset="1" stop-color="#8F6AC0"/>
</linearGradient>
<linearGradient id="paint11_linear_1_89" x1="818.217" y1="994.243" x2="818.217" y2="711.367" gradientUnits="userSpaceOnUse">
<stop stop-color="#6769D0"/>
<stop offset="1" stop-color="#8F6AC0"/>
</linearGradient>
<linearGradient id="paint12_linear_1_89" x1="177.5" y1="997.027" x2="177.5" y2="690" gradientUnits="userSpaceOnUse">
<stop stop-color="#6769D0"/>
<stop offset="1" stop-color="#8F6AC0"/>
</linearGradient>
<linearGradient id="paint13_linear_1_89" x1="171" y1="997.026" x2="171" y2="698.587" gradientUnits="userSpaceOnUse">
<stop stop-color="#6769D0"/>
<stop offset="1" stop-color="#8F6AC0"/>
</linearGradient>
<linearGradient id="paint14_linear_1_89" x1="163.5" y1="997.026" x2="163.5" y2="706.002" gradientUnits="userSpaceOnUse">
<stop stop-color="#6769D0"/>
<stop offset="1" stop-color="#8F6AC0"/>
</linearGradient>
<linearGradient id="paint15_linear_1_89" x1="152.5" y1="997.026" x2="152.5" y2="711.563" gradientUnits="userSpaceOnUse">
<stop stop-color="#6769D0"/>
<stop offset="1" stop-color="#8F6AC0"/>
</linearGradient>
<clipPath id="clip0_1_89">
<rect width="344" height="304" fill="white" transform="translate(605)"/>
</clipPath>
<clipPath id="clip1_1_89">
<rect width="362" height="306" fill="white"/>
</clipPath>
<clipPath id="clip2_1_89">
<rect width="362" height="304" fill="white" transform="translate(587 690)"/>
</clipPath>
<clipPath id="clip3_1_89">
<rect width="362" height="304" fill="white" transform="translate(0 690)"/>
</clipPath>
</defs>
</svg>
