<svg width="926" height="1002" viewBox="0 0 926 1002" fill="none" xmlns="http://www.w3.org/2000/svg">
<g clip-path="url(#clip0_1_66)">
<rect width="926" height="1002" fill="white"/>
<rect x="-1" y="-2" width="922" height="1006" fill="white"/>
<path d="M-1 682.168V1003.27H360.08C357.96 1002.78 355.443 1002.05 352.604 1000.98C343.531 997.533 331.184 990.504 318.007 976.166C291.657 947.495 262.01 889.626 248.503 772.822C244.384 737.196 226.751 713.745 202.61 698.578C178.447 683.398 147.743 676.507 117.503 674.082C87.2694 671.658 57.5444 673.7 35.3722 676.35C24.2876 677.675 15.0939 679.151 8.67252 680.296C5.46188 680.868 2.94445 681.358 1.2304 681.704C0.37338 681.877 -0.28278 682.015 -0.72431 682.109C-0.82814 682.131 -0.92009 682.151 -1 682.168Z" stroke="url(#paint0_linear_1_66)"/>
<path d="M-1 691.173V1003.26H347.219C345.197 1002.79 342.809 1002.09 340.121 1001.06C331.365 997.718 319.451 990.884 306.736 976.945C281.312 949.073 252.709 892.82 239.678 779.282C235.704 744.656 218.694 721.864 195.409 707.125C172.1 692.371 142.482 685.674 113.309 683.317C84.1422 680.96 55.4659 682.945 34.0758 685.521C23.3821 686.809 14.5127 688.244 8.31787 689.357C5.22051 689.913 2.79193 690.389 1.13841 690.725C0.31166 690.894 -0.32132 691.027 -0.74722 691.118C-0.84173 691.139 -0.92603 691.157 -1 691.173Z" stroke="url(#paint1_linear_1_66)" stroke-opacity="0.6"/>
<path d="M-1 698.948V1003.26H332.419C330.503 1002.8 328.248 1002.13 325.717 1001.14C317.325 997.877 305.911 991.211 293.73 977.616C269.375 950.434 241.976 895.577 229.495 784.86C225.688 751.094 209.396 728.873 187.097 714.503C164.776 700.119 136.41 693.589 108.469 691.291C80.534 688.993 53.0681 690.928 32.5804 693.44C22.3379 694.695 13.8428 696.095 7.90947 697.18C4.94285 697.722 2.61681 698.186 1.03317 698.515C0.24135 698.679 -0.36485 698.809 -0.77272 698.898C-0.85698 698.916 -0.93278 698.933 -1 698.948Z" stroke="url(#paint2_linear_1_66)" stroke-opacity="0.4"/>
<path d="M-1 704.776V1003.26H310.794C309.014 1002.81 306.926 1002.15 304.587 1001.2C296.729 997.992 286.048 991.45 274.651 978.113C251.865 951.448 226.236 897.64 214.56 789.041C210.998 755.915 195.755 734.122 174.903 720.032C154.029 705.929 127.503 699.525 101.369 697.271C75.242 695.017 49.5523 696.915 30.3885 699.379C20.8081 700.61 12.8621 701.983 7.31242 703.047C4.53764 703.579 2.36209 704.034 0.88099 704.356C0.14045 704.517 -0.42646 704.644 -0.80784 704.732C-0.87824 704.748 -0.94232 704.762 -1 704.776Z" stroke="url(#paint3_linear_1_66)" stroke-opacity="0.2"/>
<g clip-path="url(#clip1_1_66)">
<path d="M969.5 681.668V1002.76H608.42C610.54 1002.28 613.057 1001.55 615.896 1000.47C624.97 997.033 637.316 990.004 650.493 975.666C676.843 946.995 706.49 889.126 719.997 772.322C724.116 736.696 741.749 713.245 765.89 698.078C790.053 682.898 820.757 676.007 850.997 673.582C881.231 671.158 910.956 673.2 933.128 675.85C944.212 677.175 953.406 678.651 959.827 679.796C963.038 680.368 965.556 680.858 967.27 681.204C968.127 681.377 968.783 681.515 969.224 681.609C969.328 681.631 969.42 681.65 969.5 681.668Z" stroke="url(#paint4_linear_1_66)"/>
<path d="M969.5 690.673V1002.76H621.281C623.302 1002.29 625.691 1001.59 628.379 1000.56C637.135 997.218 649.049 990.384 661.764 976.445C687.188 948.573 715.791 892.32 728.822 778.782C732.796 744.155 749.806 721.364 773.091 706.625C796.4 691.871 826.018 685.174 855.191 682.817C884.358 680.46 913.034 682.445 934.424 685.021C945.118 686.309 953.987 687.744 960.182 688.856C963.279 689.413 965.708 689.889 967.362 690.225C968.188 690.394 968.821 690.527 969.247 690.618C969.342 690.639 969.426 690.657 969.5 690.673Z" stroke="url(#paint5_linear_1_66)" stroke-opacity="0.6"/>
<path d="M969.5 698.448V1002.76H636.081C637.997 1002.3 640.252 1001.63 642.783 1000.64C651.175 997.377 662.589 990.711 674.77 977.116C699.125 949.934 726.524 895.077 739.005 784.36C742.812 750.594 759.104 728.373 781.403 714.003C803.724 699.619 832.09 693.089 860.031 690.791C887.966 688.493 915.432 690.428 935.92 692.94C946.162 694.195 954.657 695.595 960.591 696.68C963.557 697.222 965.883 697.686 967.467 698.015C968.259 698.179 968.865 698.309 969.273 698.398C969.357 698.416 969.433 698.433 969.5 698.448Z" stroke="url(#paint6_linear_1_66)" stroke-opacity="0.4"/>
<path d="M969.5 704.276V1002.76H657.706C659.486 1002.31 661.574 1001.65 663.913 1000.7C671.771 997.492 682.452 990.95 693.849 977.613C716.635 950.948 742.264 897.14 753.94 788.541C757.502 755.415 772.745 733.622 793.597 719.532C814.471 705.428 840.997 699.025 867.131 696.771C893.258 694.517 918.948 696.415 938.112 698.879C947.692 700.11 955.638 701.482 961.188 702.547C963.962 703.079 966.138 703.534 967.619 703.856C968.36 704.017 968.926 704.144 969.308 704.231C969.378 704.248 969.442 704.262 969.5 704.276Z" stroke="url(#paint7_linear_1_66)" stroke-opacity="0.2"/>
</g>
<path d="M-1 319.097V-2H360.08C357.96 -1.51181 355.443 -0.786565 352.604 0.290309C343.531 3.73219 331.184 10.761 318.007 25.0991C291.657 53.77 262.01 111.639 248.503 228.443C244.384 264.069 226.751 287.52 202.61 302.687C178.447 317.867 147.743 324.758 117.503 327.183C87.2694 329.607 57.5444 327.565 35.3722 324.915C24.2876 323.59 15.0939 322.114 8.67252 320.969C5.46188 320.397 2.94445 319.907 1.2304 319.561C0.37338 319.388 -0.28278 319.25 -0.72431 319.156C-0.82814 319.134 -0.92009 319.114 -1 319.097Z" stroke="url(#paint8_linear_1_66)"/>
<path d="M-1 310.092V-1.99902H347.219C345.197 -1.52468 342.809 -0.826507 340.121 0.200599C331.365 3.54734 319.451 10.3812 306.736 24.32C281.312 52.1921 252.709 108.445 239.678 221.983C235.704 256.609 218.694 279.401 195.409 294.14C172.1 308.894 142.482 315.591 113.309 317.948C84.1422 320.305 55.4659 318.32 34.0758 315.744C23.3821 314.456 14.5127 313.021 8.31787 311.908C5.22051 311.352 2.79193 310.876 1.13841 310.54C0.31166 310.371 -0.32132 310.238 -0.74722 310.147C-0.84173 310.126 -0.92603 310.108 -1 310.092Z" stroke="url(#paint9_linear_1_66)" stroke-opacity="0.6"/>
<path d="M-1 302.317V-1.99902H332.419C330.503 -1.53673 328.248 -0.861822 325.717 0.123004C317.325 3.38813 305.911 10.0543 293.73 23.6486C269.375 50.831 241.976 105.688 229.495 216.405C225.688 250.171 209.396 272.392 187.097 286.762C164.776 301.146 136.41 307.676 108.469 309.974C80.534 312.272 53.0681 310.337 32.5804 307.825C22.3379 306.57 13.8428 305.17 7.90947 304.085C4.94285 303.543 2.61681 303.079 1.03317 302.75C0.24135 302.586 -0.36485 302.456 -0.77272 302.367C-0.85698 302.349 -0.93278 302.332 -1 302.317Z" stroke="url(#paint10_linear_1_66)" stroke-opacity="0.4"/>
<g clip-path="url(#clip2_1_66)">
<path d="M969.5 318.597V-2.49994H608.42C610.54 -2.01175 613.057 -1.2865 615.896 -0.20963C624.97 3.23225 637.316 10.2611 650.493 24.5992C676.843 53.2701 706.49 111.139 719.997 227.943C724.116 263.569 741.749 287.02 765.89 302.187C790.053 317.367 820.757 324.258 850.997 326.683C881.231 329.107 910.956 327.065 933.128 324.415C944.212 323.09 953.406 321.614 959.827 320.469C963.038 319.897 965.556 319.407 967.27 319.061C968.127 318.888 968.783 318.75 969.224 318.656C969.328 318.634 969.42 318.614 969.5 318.597Z" stroke="url(#paint11_linear_1_66)"/>
<path d="M969.5 309.592V-2.49893H621.281C623.302 -2.02459 625.691 -1.32642 628.379 -0.29931C637.135 3.04743 649.049 9.8813 661.764 23.8201C687.188 51.6922 715.791 107.945 728.822 221.483C732.796 256.109 749.806 278.901 773.091 293.64C796.4 308.394 826.018 315.091 855.191 317.448C884.358 319.805 913.034 317.82 934.424 315.244C945.118 313.956 953.987 312.521 960.182 311.408C963.279 310.852 965.708 310.376 967.362 310.04C968.188 309.871 968.821 309.738 969.247 309.647C969.342 309.626 969.426 309.608 969.5 309.592Z" stroke="url(#paint12_linear_1_66)" stroke-opacity="0.6"/>
<path d="M969.5 301.817V-2.49896H636.081C637.997 -2.03667 640.252 -1.36176 642.783 -0.376935C651.175 2.8882 662.589 9.5544 674.77 23.1487C699.125 50.3311 726.524 105.188 739.005 215.905C742.812 249.671 759.104 271.892 781.403 286.262C803.724 300.646 832.09 307.176 860.031 309.474C887.966 311.772 915.432 309.837 935.92 307.325C946.162 306.07 954.657 304.67 960.591 303.585C963.557 303.043 965.883 302.579 967.467 302.25C968.259 302.086 968.865 301.956 969.273 301.867C969.357 301.849 969.433 301.832 969.5 301.817Z" stroke="url(#paint13_linear_1_66)" stroke-opacity="0.4"/>
<path d="M969.5 295.989V-2.49898H657.706C659.486 -2.04549 661.574 -1.38742 663.913 -0.43294C671.771 2.77267 682.452 9.3151 693.849 22.6515C716.635 49.3166 742.264 103.125 753.94 211.724C757.502 244.85 772.745 266.643 793.597 280.733C814.471 294.836 840.997 301.24 867.131 303.494C893.258 305.748 918.948 303.85 938.112 301.386C947.692 300.155 955.638 298.782 961.188 297.718C963.962 297.186 966.138 296.731 967.619 296.409C968.36 296.248 968.926 296.121 969.308 296.033C969.378 296.017 969.442 296.003 969.5 295.989Z" stroke="url(#paint14_linear_1_66)" stroke-opacity="0.2"/>
</g>
</g>
<defs>
<linearGradient id="paint0_linear_1_66" x1="183" y1="1003.77" x2="183" y2="672.5" gradientUnits="userSpaceOnUse">
<stop stop-color="#6769D0"/>
<stop offset="1" stop-color="#8F6AC0"/>
</linearGradient>
<linearGradient id="paint1_linear_1_66" x1="176.5" y1="1003.77" x2="176.5" y2="681.765" gradientUnits="userSpaceOnUse">
<stop stop-color="#6769D0"/>
<stop offset="1" stop-color="#8F6AC0"/>
</linearGradient>
<linearGradient id="paint2_linear_1_66" x1="169" y1="1003.77" x2="169" y2="689.765" gradientUnits="userSpaceOnUse">
<stop stop-color="#6769D0"/>
<stop offset="1" stop-color="#8F6AC0"/>
</linearGradient>
<linearGradient id="paint3_linear_1_66" x1="158" y1="1003.77" x2="158" y2="695.765" gradientUnits="userSpaceOnUse">
<stop stop-color="#6769D0"/>
<stop offset="1" stop-color="#8F6AC0"/>
</linearGradient>
<linearGradient id="paint4_linear_1_66" x1="785.5" y1="1003.27" x2="785.5" y2="672" gradientUnits="userSpaceOnUse">
<stop stop-color="#6769D0"/>
<stop offset="1" stop-color="#8F6AC0"/>
</linearGradient>
<linearGradient id="paint5_linear_1_66" x1="792" y1="1003.27" x2="792" y2="681.265" gradientUnits="userSpaceOnUse">
<stop stop-color="#6769D0"/>
<stop offset="1" stop-color="#8F6AC0"/>
</linearGradient>
<linearGradient id="paint6_linear_1_66" x1="799.5" y1="1003.27" x2="799.5" y2="689.265" gradientUnits="userSpaceOnUse">
<stop stop-color="#6769D0"/>
<stop offset="1" stop-color="#8F6AC0"/>
</linearGradient>
<linearGradient id="paint7_linear_1_66" x1="810.5" y1="1003.26" x2="810.5" y2="695.265" gradientUnits="userSpaceOnUse">
<stop stop-color="#6769D0"/>
<stop offset="1" stop-color="#8F6AC0"/>
</linearGradient>
<linearGradient id="paint8_linear_1_66" x1="183" y1="-2.5011" x2="183" y2="328.765" gradientUnits="userSpaceOnUse">
<stop stop-color="#6769D0"/>
<stop offset="1" stop-color="#8F6AC0"/>
</linearGradient>
<linearGradient id="paint9_linear_1_66" x1="176.5" y1="-2.50009" x2="176.5" y2="319.5" gradientUnits="userSpaceOnUse">
<stop stop-color="#6769D0"/>
<stop offset="1" stop-color="#8F6AC0"/>
</linearGradient>
<linearGradient id="paint10_linear_1_66" x1="169" y1="-2.50007" x2="169" y2="311.5" gradientUnits="userSpaceOnUse">
<stop stop-color="#6769D0"/>
<stop offset="1" stop-color="#8F6AC0"/>
</linearGradient>
<linearGradient id="paint11_linear_1_66" x1="785.5" y1="-3.00104" x2="785.5" y2="328.265" gradientUnits="userSpaceOnUse">
<stop stop-color="#6769D0"/>
<stop offset="1" stop-color="#8F6AC0"/>
</linearGradient>
<linearGradient id="paint12_linear_1_66" x1="792" y1="-3" x2="792" y2="319" gradientUnits="userSpaceOnUse">
<stop stop-color="#6769D0"/>
<stop offset="1" stop-color="#8F6AC0"/>
</linearGradient>
<linearGradient id="paint13_linear_1_66" x1="799.5" y1="-3" x2="799.5" y2="311" gradientUnits="userSpaceOnUse">
<stop stop-color="#6769D0"/>
<stop offset="1" stop-color="#8F6AC0"/>
</linearGradient>
<linearGradient id="paint14_linear_1_66" x1="810.5" y1="-3" x2="810.5" y2="305" gradientUnits="userSpaceOnUse">
<stop stop-color="#6769D0"/>
<stop offset="1" stop-color="#8F6AC0"/>
</linearGradient>
<clipPath id="clip0_1_66">
<rect width="926" height="1002" fill="white"/>
</clipPath>
<clipPath id="clip1_1_66">
<rect width="328" height="331" fill="white" transform="translate(601 672)"/>
</clipPath>
<clipPath id="clip2_1_66">
<rect width="311" height="331" fill="white" transform="translate(601 -2)"/>
</clipPath>
</defs>
</svg>
