<svg width="22" height="22" viewBox="0 0 22 22" fill="none" xmlns="http://www.w3.org/2000/svg">
<path d="M10.9998 14.5521C10.9082 14.5521 10.8241 14.5368 10.7478 14.5063C10.6714 14.4757 10.595 14.4222 10.5186 14.3458L7.05817 10.8854C6.92067 10.7479 6.85574 10.5837 6.86338 10.3927C6.87102 10.2017 6.94359 10.0375 7.08109 9.9C7.21859 9.7625 7.38282 9.69375 7.5738 9.69375C7.76477 9.69375 7.929 9.7625 8.0665 9.9L10.3123 12.1688V4.35417C10.3123 4.15556 10.3773 3.99132 10.5071 3.86146C10.637 3.7316 10.8012 3.66667 10.9998 3.66667C11.1984 3.66667 11.3627 3.7316 11.4925 3.86146C11.6224 3.99132 11.6873 4.15556 11.6873 4.35417V12.1688L13.9561 9.9C14.0936 9.7625 14.2578 9.69375 14.4488 9.69375C14.6398 9.69375 14.804 9.7625 14.9415 9.9C15.079 10.0375 15.1478 10.2017 15.1478 10.3927C15.1478 10.5837 15.079 10.7479 14.9415 10.8854L11.4811 14.3458C11.4047 14.4222 11.3283 14.4757 11.2519 14.5063C11.1755 14.5368 11.0915 14.5521 10.9998 14.5521ZM5.0415 18.3333C4.67484 18.3333 4.354 18.1958 4.079 17.9208C3.804 17.6458 3.6665 17.325 3.6665 16.9583V14.3688C3.6665 14.1701 3.73143 14.0059 3.8613 13.876C3.99116 13.7462 4.15539 13.6813 4.354 13.6813C4.55262 13.6813 4.71685 13.7462 4.84671 13.876C4.97657 14.0059 5.0415 14.1701 5.0415 14.3688V16.9583H16.9582V14.3688C16.9582 14.1701 17.0231 14.0059 17.153 13.876C17.2828 13.7462 17.4471 13.6813 17.6457 13.6813C17.8443 13.6813 18.0085 13.7462 18.1384 13.876C18.2682 14.0059 18.3332 14.1701 18.3332 14.3688V16.9583C18.3332 17.325 18.1957 17.6458 17.9207 17.9208C17.6457 18.1958 17.3248 18.3333 16.9582 18.3333H5.0415Z" fill="url(#paint0_linear_197_348)"/>
<defs>
<linearGradient id="paint0_linear_197_348" x1="-7.72064" y1="15.7714" x2="29.7203" y2="15.7714" gradientUnits="userSpaceOnUse">
<stop stop-color="#4568DC"/>
<stop offset="1" stop-color="#B06AB3"/>
</linearGradient>
</defs>
</svg>
