<svg width="550" height="400" viewBox="0 0 550 400" fill="none" xmlns="http://www.w3.org/2000/svg">
<path d="M99.1533 320V256.705H89.4155V320H99.1533Z" fill="white"/>
<path d="M123.802 305.952H131.294L137.847 285.915L137.662 319.996H184.481V309.883H147.776V256.702H139.347L127.541 290.407L115.557 256.702H107.319V319.996H117.433L117.057 284.977L123.802 305.952ZM174.367 304.829H184.481L171.744 256.702H163.876L151.139 304.829H161.438L163.684 296.399H172.113L174.367 304.829ZM170.053 286.846H165.56L167.807 275.239L170.053 286.846Z" fill="white"/>
<path d="M210.313 304.455C210.313 305.956 209.751 307.455 208.628 308.578C207.697 309.516 206.191 310.262 204.698 310.262C203.205 310.262 201.705 309.516 200.767 308.578C199.644 307.455 199.082 305.956 199.082 304.455V272.244C199.082 270.744 199.644 269.244 200.767 268.121C201.698 267.183 203.205 266.437 204.698 266.437C206.191 266.437 207.69 267.183 208.628 268.121C209.751 269.244 210.313 270.744 210.313 272.244V274.49H220.051V272.244C220.051 268.128 218.558 264.197 215.558 261.198C212.751 258.39 208.82 256.705 204.698 256.705C200.575 256.705 196.645 258.39 193.837 261.204C190.838 264.197 189.153 268.128 189.153 272.25V304.455C189.153 308.571 190.838 312.502 193.837 315.502C196.645 318.309 200.575 319.994 204.698 319.994C208.82 319.994 212.751 318.309 215.558 315.502C218.551 312.509 220.051 308.578 220.051 304.455V281.611H204.698V291.348H210.313V304.455Z" fill="white"/>
<path d="M255.772 266.443V256.705H227.312V320H255.772V310.262H237.049V293.225H251.094V283.487H237.049V266.443H255.772Z" fill="white"/>
<path d="M268.63 256.705H258.146L271.068 288.356L258.146 320H268.63L276.307 301.272L283.99 320H294.474L281.552 288.356L294.474 256.705H283.99L276.307 275.434L268.63 256.705Z" fill="white"/>
<path d="M297.474 258.575H309.649V320H311.334V258.575H323.502V256.705H297.474L297.474 258.575Z" fill="white"/>
<path d="M364.672 317.55C360.551 316.05 357.93 313.059 356.436 309.122L348.577 289.277L351.2 288.531C353.26 287.97 355.129 286.846 356.628 285.347C358.873 282.91 360.373 279.734 360.373 276.359V269.438C360.373 266.069 358.873 262.887 356.628 260.449C354.198 258.012 351.014 256.704 347.64 256.704H334.537V319.98H335.845V289.099H346.887L355.123 309.875C358.306 318.303 364.481 320.171 372.723 319.987C378.528 319.802 384.142 319.987 389.947 319.987V318.487H373.846C370.662 318.487 367.671 318.487 364.672 317.55ZM335.845 258.21H347.64C350.638 258.21 353.445 259.333 355.505 261.394C357.751 263.64 358.873 266.446 358.873 269.444V276.372C358.873 279.37 357.751 282.177 355.505 284.422C353.445 286.484 350.638 287.606 347.64 287.606H335.845V258.21ZM367.294 294.527H385.641L388.263 304.823H389.947L377.22 256.712H375.536L362.994 304.823H364.494L367.294 294.527ZM376.467 259.888L385.079 292.651H367.855L376.467 259.888Z" fill="white"/>
<path d="M414.562 256.705C411.002 256.705 407.633 258.204 405.387 260.636C402.956 262.882 401.457 266.25 401.457 269.811V306.888C401.457 310.634 402.95 313.811 405.387 316.249C407.633 318.495 411.002 319.994 414.562 319.994C418.123 319.994 421.3 318.495 423.738 316.249C426.175 313.818 427.483 310.634 427.483 306.888V298.274H425.798V306.888C425.798 310.073 424.491 312.88 422.429 314.941C420.369 317.001 417.561 318.124 414.562 318.124C411.378 318.124 408.571 317.001 406.51 314.941C404.45 312.88 403.327 310.073 403.327 306.888V269.811C403.327 266.627 404.45 263.82 406.51 261.759C408.571 259.698 411.378 258.575 414.562 258.575C417.561 258.575 420.369 259.698 422.429 261.759C424.491 263.82 425.798 266.627 425.798 269.811V278.425H427.483V269.811C427.483 266.25 426.175 262.882 423.738 260.636C421.3 258.204 418.123 256.705 414.562 256.705Z" fill="white"/>
<path d="M434.556 258.575H446.732V320H448.416V258.575H460.585V256.705H434.556V258.575Z" fill="white"/>
<path d="M274.11 141.72L264.169 151.66L220.995 108.486L210.907 118.723L202.301 109.97L232.419 80L241.025 88.6051L231.084 98.5456L274.11 141.72ZM347.699 109.97L339.093 118.723L329.153 108.783L231.084 206.852L241.173 216.792L232.419 225.397L202.301 195.428L210.907 186.674L220.995 196.763L265.06 152.55L275.148 142.61L319.213 98.6939L308.976 88.6051L317.729 80L347.699 109.97ZM347.699 195.131L317.729 225.397L308.975 216.792L319.213 206.555L276.187 163.678L286.127 153.737L329.153 196.615L339.093 186.674L347.699 195.131Z" fill="url(#paint0_linear_1_45)"/>
<g opacity="0.04">
<path d="M129.52 335.3C130.855 336.901 131.744 338.826 132.1 340.88C132.262 341.871 132.299 342.879 132.21 343.88C132.122 344.88 131.907 345.864 131.57 346.81C131.215 347.772 130.741 348.685 130.16 349.53C129.558 350.396 128.842 351.177 128.03 351.85C127.228 352.526 126.34 353.094 125.39 353.54C124.459 353.953 123.482 354.255 122.48 354.44C121.488 354.601 120.481 354.641 119.48 354.56C118.481 354.468 117.497 354.253 116.55 353.92C115.587 353.58 114.673 353.116 113.83 352.54C112.104 351.317 110.725 349.667 109.83 347.75C109.409 346.819 109.11 345.838 108.94 344.83C108.773 343.839 108.729 342.831 108.81 341.83C108.896 340.833 109.111 339.851 109.45 338.91C110.152 336.962 111.36 335.237 112.95 333.91C113.758 333.226 114.656 332.657 115.62 332.22C116.549 331.79 117.531 331.484 118.54 331.31C119.529 331.129 120.539 331.089 121.54 331.19C123.569 331.352 125.52 332.042 127.2 333.19C128.072 333.788 128.859 334.501 129.54 335.31M128.14 344.07C127.813 344.882 127.404 345.66 126.92 346.39C126.413 347.138 125.804 347.811 125.11 348.39C124.409 348.99 123.601 349.455 122.73 349.76C121.895 350.054 121.007 350.166 120.125 350.086C119.243 350.007 118.389 349.739 117.62 349.3C115.837 348.274 114.474 346.652 113.77 344.72C113.478 343.865 113.363 342.96 113.43 342.06C113.507 341.191 113.769 340.349 114.2 339.59C114.642 338.78 115.236 338.064 115.95 337.48C116.294 337.185 116.658 336.914 117.04 336.67C117.396 336.431 117.771 336.22 118.16 336.04C118.544 335.856 118.942 335.702 119.35 335.58C119.783 335.433 120.224 335.309 120.67 335.21L122.67 337.59C122.147 337.615 121.626 337.672 121.11 337.76C120.692 337.833 120.281 337.94 119.88 338.08C119.528 338.201 119.192 338.366 118.88 338.57C118.551 338.765 118.239 338.989 117.95 339.24C117.477 339.621 117.085 340.094 116.8 340.63C116.539 341.118 116.385 341.657 116.35 342.21C116.326 342.765 116.414 343.32 116.61 343.84C117.088 345 117.912 345.985 118.97 346.66C119.455 346.934 119.988 347.114 120.54 347.19C121.086 347.248 121.638 347.19 122.16 347.02C122.736 346.827 123.269 346.525 123.73 346.13C124.021 345.882 124.298 345.618 124.56 345.34C124.807 345.052 125.025 344.741 125.21 344.41C125.414 344.042 125.594 343.661 125.75 343.27C125.928 342.783 126.075 342.285 126.19 341.78L128.19 344.11M113.73 348.66C114.497 349.58 115.443 350.336 116.51 350.88C117.536 351.401 118.653 351.72 119.8 351.82C120.943 351.91 122.093 351.785 123.19 351.45C124.332 351.106 125.39 350.531 126.3 349.76C127.222 348.994 127.977 348.048 128.52 346.98C129.058 345.956 129.398 344.84 129.52 343.69C129.679 341.915 129.304 340.133 128.443 338.572C127.583 337.011 126.276 335.743 124.69 334.93C122.606 333.873 120.192 333.669 117.96 334.36C116.819 334.714 115.761 335.292 114.846 336.059C113.931 336.827 113.177 337.768 112.63 338.83C111.573 340.907 111.368 343.314 112.06 345.54C112.408 346.685 112.986 347.747 113.76 348.66" fill="black"/>
<path d="M147 314C146.52 314.12 145.91 314.31 145.18 314.57C144.363 314.86 143.562 315.194 142.78 315.57C141.828 315.995 140.9 316.473 140 317C139.046 317.573 138.14 318.222 137.29 318.94C136.59 319.53 136.01 320.05 135.55 320.51C135.161 320.896 134.794 321.304 134.45 321.73C134.213 322.009 134.015 322.318 133.86 322.65C133.756 322.852 133.682 323.067 133.64 323.29C133.608 323.445 133.608 323.605 133.64 323.76C133.691 323.862 133.751 323.959 133.82 324.05C133.944 324.188 134.1 324.294 134.275 324.358C134.449 324.422 134.636 324.444 134.82 324.42C135.339 324.365 135.847 324.237 136.33 324.04C136.91 323.807 137.56 323.507 138.28 323.14L140.54 321.96C141.34 321.527 142.17 321.097 143.03 320.67C143.9 320.23 144.76 319.84 145.62 319.5C146.466 319.168 147.335 318.897 148.22 318.69C149.023 318.484 149.851 318.386 150.68 318.4C151.451 318.424 152.21 318.59 152.92 318.89C153.657 319.224 154.305 319.728 154.81 320.36C155.479 321.107 155.963 322.001 156.22 322.97C156.44 323.82 156.471 324.707 156.31 325.57C156.148 326.453 155.844 327.304 155.41 328.09C154.935 328.922 154.393 329.715 153.79 330.46C153.168 331.217 152.5 331.935 151.79 332.61C151.07 333.28 150.38 333.9 149.7 334.48C148.046 335.882 146.261 337.121 144.37 338.18C142.8 339.076 141.158 339.839 139.46 340.46L135.85 336.16C137.722 335.78 139.535 335.151 141.24 334.29C143.175 333.322 144.988 332.127 146.64 330.73C147.49 330.035 148.286 329.276 149.02 328.46C149.48 327.943 149.876 327.372 150.2 326.76C150.395 326.395 150.488 325.984 150.47 325.57C150.453 325.301 150.356 325.043 150.19 324.83C150.068 324.687 149.913 324.575 149.74 324.502C149.566 324.429 149.378 324.397 149.19 324.41C148.657 324.427 148.131 324.542 147.64 324.75C146.954 324.997 146.286 325.291 145.64 325.63C144.92 326 144.16 326.4 143.37 326.84L140.92 328.14C140.07 328.59 139.22 328.99 138.36 329.35C137.531 329.687 136.683 329.974 135.82 330.21C135.026 330.416 134.21 330.523 133.39 330.53C132.634 330.526 131.887 330.373 131.19 330.08C130.452 329.756 129.804 329.259 129.3 328.63C128.687 327.936 128.239 327.112 127.99 326.22C127.794 325.432 127.76 324.612 127.89 323.81C128.037 322.98 128.31 322.178 128.7 321.43C129.124 320.638 129.623 319.887 130.19 319.19C130.764 318.469 131.382 317.785 132.04 317.14C132.707 316.473 133.373 315.883 134.04 315.37C134.74 314.78 135.48 314.22 136.27 313.67C137.06 313.12 137.89 312.61 138.71 312.14C139.53 311.67 140.34 311.23 141.14 310.84C141.94 310.45 142.72 310.09 143.44 309.84L147 314Z" fill="black"/>
<path d="M186.76 302.57L176.16 289.94L180.08 308.18L175.42 312.09L158.15 305.09L168.75 317.72L163.89 321.79L148.8 303.79L155.39 298.25L174.08 305.77L169.93 286.06L176.5 280.54L191.59 298.54L186.76 302.59" fill="black"/>
<path d="M208.84 278.24L198.84 286.66L200 291.48L194.56 296L188.88 270.11L194.3 265.56L218.81 275.65L213.39 280.2L208.84 278.2M197.61 281.65L204.18 276.13L195.35 272.26L197.61 281.65Z" fill="black"/>
<path d="M227.49 246.38C227.01 246.5 226.4 246.69 225.67 246.95C224.853 247.24 224.052 247.574 223.27 247.95C222.342 248.387 221.44 248.878 220.57 249.42C219.616 249.993 218.71 250.642 217.86 251.36C217.16 251.95 216.58 252.47 216.12 252.93C215.729 253.314 215.361 253.721 215.02 254.15C214.786 254.427 214.587 254.733 214.43 255.06C214.327 255.266 214.253 255.484 214.21 255.71C214.178 255.865 214.178 256.025 214.21 256.18C214.261 256.282 214.321 256.379 214.39 256.47C214.514 256.608 214.67 256.714 214.845 256.778C215.019 256.842 215.206 256.864 215.39 256.84C215.909 256.785 216.417 256.657 216.9 256.46C217.48 256.233 218.147 255.933 218.9 255.56L221.16 254.38C221.96 253.953 222.79 253.523 223.65 253.09C224.52 252.65 225.38 252.26 226.24 251.92C227.086 251.588 227.955 251.317 228.84 251.11C229.643 250.904 230.471 250.806 231.3 250.82C232.071 250.84 232.831 251.006 233.54 251.31C234.277 251.64 234.925 252.14 235.43 252.77C236.096 253.519 236.579 254.413 236.84 255.38C237.059 256.233 237.09 257.124 236.93 257.99C236.768 258.873 236.464 259.724 236.03 260.51C235.557 261.343 235.012 262.133 234.4 262.87C233.784 263.635 233.115 264.357 232.4 265.03C231.68 265.7 230.99 266.32 230.3 266.89C228.651 268.297 226.87 269.539 224.98 270.6C223.408 271.498 221.762 272.261 220.06 272.88L216.46 268.58C218.332 268.2 220.145 267.571 221.85 266.71C223.785 265.742 225.598 264.547 227.25 263.15C228.1 262.455 228.896 261.696 229.63 260.88C230.09 260.363 230.486 259.792 230.81 259.18C230.975 258.81 231.041 258.403 231 258C230.983 257.731 230.886 257.473 230.72 257.26C230.598 257.117 230.443 257.005 230.27 256.932C230.096 256.859 229.908 256.827 229.72 256.84C229.187 256.857 228.661 256.972 228.17 257.18C227.485 257.429 226.817 257.723 226.17 258.06C225.46 258.43 224.7 258.83 223.91 259.27L221.45 260.57C220.61 261.01 219.75 261.42 218.9 261.78C218.07 262.113 217.222 262.4 216.36 262.64C215.591 262.854 214.798 262.975 214 263C213.244 262.996 212.497 262.843 211.8 262.55C211.062 262.226 210.414 261.729 209.91 261.1C209.297 260.406 208.849 259.582 208.6 258.69C208.398 257.903 208.364 257.082 208.5 256.28C208.643 255.449 208.916 254.646 209.31 253.9C209.736 253.106 210.235 252.353 210.8 251.65C211.375 250.946 211.993 250.278 212.65 249.65C213.317 248.983 213.983 248.393 214.65 247.88C215.35 247.29 216.09 246.73 216.88 246.18C217.67 245.63 218.5 245.12 219.32 244.65C220.14 244.18 220.95 243.74 221.75 243.34C222.55 242.94 223.33 242.6 224.05 242.34L227.55 246.5" fill="black"/>
<path d="M261.64 239.74L255.35 232.24L243 242.61L249.3 250.11L244.44 254.18L229.35 236.18L234.2 232.1L239.69 238.65L252 228.3L246.51 221.75L251.37 217.68L266.46 235.68L261.6 239.76" fill="black"/>
<path d="M272.18 230.9L257.09 212.9L261.95 208.82L277.04 226.82L272.18 230.9Z" fill="black"/>
<path d="M299.65 207.85L277.14 205.67L287.51 218L282.66 222.08L267.56 204.08L272.84 199.65L295.4 201.87L285 189.5L289.83 185.44L304.92 203.44L299.66 207.86" fill="black"/>
<path d="M306.68 170.52C308.315 169.125 310.088 167.899 311.97 166.86C313.616 165.937 315.335 165.151 317.11 164.51L320.8 168.9C319.999 169.057 319.207 169.26 318.43 169.51C317.538 169.783 316.666 170.118 315.82 170.51C314.87 170.949 313.948 171.446 313.06 172C312.08 172.599 311.144 173.267 310.26 174C309.24 174.831 308.302 175.759 307.46 176.77C306.816 177.543 306.266 178.388 305.82 179.29C305.469 179.993 305.239 180.75 305.14 181.53C304.971 182.783 305.202 184.056 305.8 185.17C306.065 185.661 306.38 186.123 306.74 186.55C307.07 186.936 307.431 187.294 307.82 187.62C308.267 187.989 308.761 188.295 309.29 188.53C309.89 188.78 310.523 188.942 311.17 189.01C311.935 189.084 312.706 189.023 313.45 188.83C314.405 188.59 315.325 188.231 316.19 187.76C317.322 187.128 318.387 186.384 319.37 185.54C319.94 185.06 320.43 184.62 320.83 184.23C321.183 183.871 321.516 183.494 321.83 183.1C322.12 182.766 322.391 182.415 322.64 182.05L323.38 180.96L321.56 178.79L316.11 183.36L312.8 179.42L323.11 170.77L330.82 179.96C330.305 180.798 329.748 181.609 329.15 182.39C328.483 183.23 327.783 184.07 327.05 184.91C326.31 185.75 325.55 186.56 324.75 187.35C323.95 188.14 323.17 188.85 322.42 189.49C321.287 190.445 320.087 191.317 318.83 192.1C317.674 192.819 316.456 193.431 315.19 193.93C314.02 194.371 312.801 194.67 311.56 194.82C310.396 194.961 309.217 194.91 308.07 194.67C306.909 194.416 305.8 193.967 304.79 193.34C303.653 192.617 302.64 191.715 301.79 190.67C300.908 189.648 300.205 188.485 299.71 187.23C299.274 186.113 299.034 184.929 299 183.73C298.981 182.54 299.154 181.355 299.51 180.22C299.891 179.018 300.414 177.867 301.07 176.79C301.772 175.623 302.582 174.525 303.49 173.51C304.467 172.436 305.52 171.433 306.64 170.51" fill="black"/>
<path d="M336.91 176.59L321.81 158.59L326.67 154.51L338.46 168.51L351.59 157.51L354.9 161.45L336.9 176.55" fill="black"/>
<path d="M374.54 129.71C375.754 131.098 376.639 132.742 377.13 134.52C377.535 136.162 377.535 137.878 377.13 139.52C376.678 141.319 375.887 143.016 374.8 144.52C373.498 146.329 371.965 147.959 370.24 149.37C368.539 150.829 366.657 152.062 364.64 153.04C362.953 153.853 361.128 154.338 359.26 154.47C357.565 154.58 355.87 154.274 354.32 153.58C352.67 152.768 351.206 151.622 350.023 150.214C348.841 148.805 347.964 147.166 347.45 145.4C347.047 143.758 347.047 142.042 347.45 140.4C347.909 138.597 348.71 136.9 349.81 135.4C351.109 133.574 352.646 131.93 354.38 130.51C356.072 129.052 357.952 127.828 359.97 126.87C361.644 126.053 363.461 125.567 365.32 125.44C367.014 125.336 368.707 125.652 370.25 126.36C371.913 127.15 373.376 128.305 374.53 129.74M369.62 133.85C369.049 133.174 368.373 132.594 367.62 132.13C366.824 131.624 365.912 131.331 364.97 131.28C363.835 131.223 362.701 131.418 361.65 131.85C360.188 132.465 358.836 133.317 357.65 134.37C356.778 135.087 355.98 135.892 355.27 136.77C354.711 137.453 354.244 138.206 353.88 139.01C353.58 139.675 353.391 140.384 353.32 141.11C353.246 141.744 353.28 142.387 353.42 143.01C353.54 143.6 353.746 144.169 354.03 144.7C354.32 145.209 354.655 145.691 355.03 146.14C355.415 146.585 355.836 146.996 356.29 147.37C356.769 147.747 357.297 148.056 357.86 148.29C358.452 148.522 359.076 148.66 359.71 148.7C360.433 148.748 361.159 148.681 361.86 148.5C362.714 148.266 363.536 147.93 364.31 147.5C365.293 146.943 366.221 146.294 367.08 145.56C368.327 144.571 369.402 143.381 370.26 142.04C370.868 141.08 371.257 139.997 371.4 138.87C371.51 137.94 371.383 136.997 371.03 136.13C370.7 135.297 370.241 134.52 369.67 133.83" fill="black"/>
<path d="M382.66 106.76C384.313 105.364 386.102 104.138 388 103.1C389.649 102.175 391.371 101.389 393.15 100.75L396.84 105.15C396.038 105.301 395.247 105.501 394.47 105.75C393.58 106.028 392.708 106.362 391.86 106.75C390.907 107.19 389.982 107.688 389.09 108.24C388.11 108.839 387.174 109.507 386.29 110.24C385.272 111.077 384.334 112.008 383.49 113.02C382.85 113.792 382.3 114.634 381.85 115.53C381.504 116.235 381.275 116.992 381.17 117.77C381.084 118.436 381.105 119.111 381.23 119.77C381.345 120.358 381.551 120.925 381.84 121.45C382.102 121.941 382.414 122.403 382.77 122.83C383.099 123.219 383.461 123.581 383.85 123.91C384.301 124.274 384.799 124.577 385.33 124.81C385.923 125.07 386.555 125.232 387.2 125.29C387.964 125.363 388.735 125.306 389.48 125.12C390.434 124.874 391.355 124.511 392.22 124.04C393.355 123.413 394.42 122.669 395.4 121.82C395.98 121.34 396.46 120.9 396.86 120.51C397.26 120.12 397.61 119.74 397.91 119.39C398.21 119.04 398.48 118.67 398.72 118.33L399.45 117.24L397.63 115.07L392.18 119.64L388.88 115.7L399.18 107.05L406.89 116.24C406.375 117.078 405.818 117.889 405.22 118.67C404.553 119.51 403.853 120.35 403.12 121.19C402.39 122.03 401.62 122.85 400.82 123.63C400.02 124.41 399.25 125.13 398.49 125.77C397.357 126.725 396.158 127.597 394.9 128.38C393.745 129.101 392.527 129.713 391.26 130.21C390.093 130.651 388.878 130.949 387.64 131.1C386.477 131.24 385.298 131.192 384.15 130.96C382.991 130.699 381.883 130.25 380.87 129.63C379.735 128.9 378.723 127.996 377.87 126.95C376.991 125.93 376.288 124.771 375.79 123.52C375.33 122.4 375.062 121.21 375 120C374.982 118.81 375.154 117.625 375.51 116.49C375.892 115.287 376.419 114.135 377.08 113.06C377.781 111.892 378.591 110.794 379.5 109.78C380.473 108.706 381.523 107.703 382.64 106.78" fill="black"/>
<path d="M428.63 84.3101C429.845 85.7011 430.731 87.3488 431.22 89.1301C431.625 90.7721 431.625 92.488 431.22 94.1301C430.767 95.931 429.972 97.6283 428.88 99.1301C427.581 100.944 426.048 102.578 424.32 103.99C422.622 105.449 420.744 106.682 418.73 107.66C417.043 108.472 415.217 108.957 413.35 109.09C411.652 109.194 409.955 108.889 408.4 108.2C406.729 107.418 405.259 106.265 404.1 104.83C402.889 103.444 402.013 101.798 401.54 100.02C401.137 98.3778 401.137 96.6623 401.54 95.0201C401.993 93.2173 402.791 91.5193 403.89 90.0201C406.541 86.401 410.027 83.4749 414.05 81.4901C415.728 80.6726 417.548 80.1871 419.41 80.0601C421.101 79.9563 422.791 80.2723 424.33 80.9801C425.992 81.7668 427.455 82.9188 428.61 84.3501M423.7 88.4701C423.131 87.7922 422.455 87.2113 421.7 86.7501C420.904 86.2439 419.992 85.9481 419.05 85.8901C417.918 85.8425 416.789 86.0404 415.74 86.4701C414.278 87.0854 412.926 87.9368 411.74 88.9901C410.865 89.7049 410.067 90.5093 409.36 91.3901C408.795 92.0705 408.324 92.8239 407.96 93.6301C407.665 94.2966 407.476 95.0052 407.4 95.7301C407.332 96.3647 407.366 97.0061 407.5 97.6301C407.624 98.2205 407.833 98.7897 408.12 99.3201C408.403 99.8333 408.738 100.316 409.12 100.76C409.5 101.209 409.922 101.621 410.38 101.99C410.859 102.367 411.387 102.677 411.95 102.91C412.538 103.143 413.159 103.281 413.79 103.32C414.516 103.368 415.245 103.301 415.95 103.12C416.803 102.884 417.625 102.549 418.4 102.12C419.38 101.563 420.304 100.914 421.16 100.18C422.407 99.1878 423.485 97.9989 424.35 96.6601C424.955 95.6995 425.341 94.6171 425.48 93.4901C425.594 92.561 425.47 91.6182 425.12 90.7501C424.787 89.9162 424.325 89.14 423.75 88.4501" fill="black"/>
</g>
<defs>
<linearGradient id="paint0_linear_1_45" x1="89.4155" y1="200" x2="460.585" y2="200" gradientUnits="userSpaceOnUse">
<stop stop-color="#4568DC"/>
<stop offset="1" stop-color="#B06AB3"/>
</linearGradient>
</defs>
</svg>
