<svg width="165" height="29" viewBox="0 0 165 29" fill="none" xmlns="http://www.w3.org/2000/svg">
<path d="M4.81768 28.4736V0.518372H0.516846V28.4736H4.81768Z" fill="#111111"/>
<path d="M15.7041 22.269H19.0129L21.9076 13.4193L21.8257 28.472H42.5039V24.005H26.2927V0.516785H22.5697L17.3555 15.4034L12.0626 0.516785H8.42438V28.472H12.8913L12.7252 13.0051L15.7041 22.269ZM38.037 21.7729H42.5039L36.8784 0.516785H33.4035L27.7779 21.7729H32.3268L33.3188 18.05H37.0417L38.037 21.7729ZM36.1316 13.8306H34.1475L35.1395 8.70429L36.1316 13.8306Z" fill="#111111"/>
<path d="M53.9132 21.608C53.9132 22.2705 53.6652 22.9327 53.1692 23.4287C52.7578 23.8433 52.0925 24.1727 51.4331 24.1727C50.7737 24.1727 50.1112 23.8433 49.697 23.4287C49.201 22.9327 48.953 22.2705 48.953 21.608V7.38117C48.953 6.71862 49.201 6.05645 49.697 5.56043C50.1084 5.14588 50.7737 4.81641 51.4331 4.81641C52.0925 4.81641 52.7546 5.14589 53.1692 5.56043C53.6652 6.05645 53.9132 6.71862 53.9132 7.38117V8.37321H58.214V7.38117C58.214 5.56323 57.5547 3.82716 56.2299 2.50245C54.9899 1.2624 53.2538 0.518372 51.4331 0.518372C49.6124 0.518372 47.8763 1.26241 46.6362 2.50525C45.3115 3.82717 44.5675 5.56323 44.5675 7.38396V21.608C44.5675 23.4259 45.3115 25.162 46.6362 26.4867C47.8763 27.7268 49.6124 28.4708 51.4331 28.4708C53.2538 28.4708 54.9899 27.7268 56.2299 26.4867C57.5515 25.1648 58.214 23.4287 58.214 21.608V11.5183H51.4331V15.8191H53.9132V21.608Z" fill="#111111"/>
<path d="M73.9908 4.8192V0.518372H61.421V28.4736H73.9908V24.1727H65.7218V16.6478H71.9248V12.347H65.7218V4.8192H73.9908Z" fill="#111111"/>
<path d="M79.6699 0.518372H75.0396L80.7466 14.4976L75.0396 28.4736H79.6699L83.0605 20.2018L86.454 28.4736H91.0843L85.3773 14.4976L91.0843 0.518372H86.454L83.0605 8.79016L79.6699 0.518372Z" fill="#111111"/>
<path d="M92.4092 1.34427H97.7867V28.4736H98.5308V1.34427H103.905V0.518372H92.4092L92.4092 1.34427Z" fill="#111111"/>
<path d="M122.089 27.3915C120.268 26.7291 119.111 25.408 118.451 23.6693L114.98 14.9041L116.138 14.5747C117.048 14.3268 117.874 13.8306 118.536 13.1686C119.527 12.0922 120.19 10.6893 120.19 9.19885V6.1418C120.19 4.65419 119.527 3.24843 118.536 2.17205C117.462 1.09568 116.056 0.517975 114.566 0.517975H108.779V28.4647H109.356V14.8255H114.233L117.871 24.0018C119.277 27.724 122.004 28.5493 125.644 28.4679C128.208 28.386 130.688 28.4679 133.252 28.4679V27.8055H126.14C124.734 27.8055 123.413 27.8055 122.089 27.3915ZM109.356 1.18312H114.566C115.89 1.18312 117.13 1.67898 118.04 2.58927C119.031 3.58101 119.527 4.82067 119.527 6.14459V9.20445C119.527 10.5288 119.031 11.7684 118.04 12.7602C117.13 13.6704 115.89 14.1663 114.566 14.1663H109.356V1.18312ZM123.246 17.223H131.35L132.508 21.7704H133.252L127.631 0.521156H126.887L121.348 21.7704H122.01L123.246 17.223ZM127.298 1.92413L131.102 16.3945H123.494L127.298 1.92413Z" fill="#111111"/>
<path d="M144.123 0.518372C142.551 0.518372 141.063 1.18046 140.071 2.25427C138.997 3.24621 138.335 4.73412 138.335 6.30669V22.6825C138.335 24.3369 138.994 25.7401 140.071 26.8167C141.063 27.8087 142.551 28.4708 144.123 28.4708C145.696 28.4708 147.099 27.8087 148.176 26.8167C149.252 25.7429 149.83 24.3369 149.83 22.6825V18.878H149.086V22.6825C149.086 24.0889 148.508 25.3288 147.598 26.2389C146.688 27.149 145.448 27.645 144.123 27.645C142.717 27.645 141.477 27.149 140.567 26.2389C139.657 25.3288 139.161 24.0889 139.161 22.6825V6.30669C139.161 4.90064 139.657 3.66071 140.567 2.75024C141.477 1.84016 142.717 1.34419 144.123 1.34419C145.448 1.34419 146.688 1.84016 147.598 2.75024C148.508 3.66071 149.086 4.90064 149.086 6.30669V10.1111H149.83V6.30669C149.83 4.73412 149.252 3.24621 148.176 2.25427C147.099 1.18046 145.696 0.518372 144.123 0.518372Z" fill="#111111"/>
<path d="M152.954 1.34427H158.331V28.4736H159.075V1.34427H164.45V0.518372H152.954V1.34427Z" fill="#111111"/>
</svg>
