<svg width="22" height="28" viewBox="0 0 22 28" fill="none" xmlns="http://www.w3.org/2000/svg">
<path d="M10.0666 16.5667V22.2667C10.0666 22.5556 10.161 22.7944 10.3499 22.9833C10.5388 23.1722 10.7777 23.2667 11.0666 23.2667C11.3555 23.2667 11.5944 23.1722 11.7833 22.9833C11.9721 22.7944 12.0666 22.5556 12.0666 22.2667V16.5667L14.0999 18.6C14.1666 18.6667 14.3333 18.6444 14.5999 18.5333C14.8666 18.4222 15.1166 18.3222 15.3499 18.2333C15.5833 18.1444 15.7444 18.1056 15.8333 18.1167C15.9221 18.1278 15.811 18.2889 15.4999 18.6C15.6999 18.4 15.7944 18.1667 15.7833 17.9C15.7721 17.6333 15.6666 17.4 15.4666 17.2L11.6999 13.5333C11.5888 13.4222 11.4777 13.3444 11.3666 13.3C11.2555 13.2556 11.1333 13.2333 10.9999 13.2333C10.8666 13.2333 10.7444 13.2556 10.6333 13.3C10.5221 13.3444 10.411 13.4222 10.2999 13.5333L6.56659 17.2667C6.36659 17.4667 6.26659 17.7 6.26659 17.9667C6.26659 18.2333 6.36659 18.4667 6.56659 18.6667C6.76659 18.8667 6.99992 18.9667 7.26659 18.9667C7.53325 18.9667 7.76659 18.8667 7.96659 18.6667L10.0666 16.5667ZM2.33325 27.3333C1.79992 27.3333 1.33325 27.1333 0.933252 26.7333C0.533252 26.3333 0.333252 25.8667 0.333252 25.3333V2.66666C0.333252 2.13333 0.533252 1.66666 0.933252 1.26666C1.33325 0.866664 1.79992 0.666664 2.33325 0.666664H13.5333C13.7999 0.666664 14.061 0.72222 14.3166 0.833331C14.5721 0.944442 14.7888 1.08889 14.9666 1.26666L21.0666 7.36666C21.2444 7.54444 21.3888 7.76111 21.4999 8.01666C21.611 8.27222 21.6666 8.53333 21.6666 8.8V25.3333C21.6666 25.8667 21.4666 26.3333 21.0666 26.7333C20.6666 27.1333 20.1999 27.3333 19.6666 27.3333H2.33325ZM13.3666 7.86666V2.66666H2.33325V25.3333H19.6666V8.86666H14.3666C14.0777 8.86666 13.8388 8.77222 13.6499 8.58333C13.461 8.39444 13.3666 8.15555 13.3666 7.86666Z" fill="#876AC3"/>
</svg>
