<svg width="40" height="40" viewBox="0 0 40 40" fill="none" xmlns="http://www.w3.org/2000/svg">
<path d="M19.3109 16.5978L16.6377 19.271L5.02722 7.66053L2.31412 10.4135L0 8.05952L8.09941 0L10.4135 2.31412L7.74033 4.98732L19.3109 16.5978ZM39.1006 8.05952L36.7865 10.4135L34.1133 7.74033L7.74033 34.1133L10.4534 36.7865L8.09942 39.1006L4.10344e-06 31.0411L2.31412 28.6871L5.02722 31.4002L16.8771 19.5104L19.5902 16.8372L31.4401 5.02722L28.6871 2.31412L31.0411 2.05172e-06L39.1006 8.05952ZM39.1006 30.9613L31.0411 39.1006L28.6871 36.7865L31.4401 34.0335L19.8695 22.5028L22.5427 19.8296L34.1133 31.3603L36.7865 28.6871L39.1006 30.9613Z" fill="#111111"/>
</svg>
