<svg width="12" height="12" viewBox="0 0 12 12" fill="none" xmlns="http://www.w3.org/2000/svg">
<circle cx="6" cy="6" r="6" fill="#EA8080"/>
<path d="M6 6.4375L3.8125 8.625C3.75 8.6875 3.67708 8.71875 3.59375 8.71875C3.51042 8.71875 3.4375 8.6875 3.375 8.625C3.3125 8.5625 3.28125 8.48958 3.28125 8.40625C3.28125 8.32292 3.3125 8.25 3.375 8.1875L5.5625 6L3.375 3.8125C3.3125 3.75 3.28125 3.67708 3.28125 3.59375C3.28125 3.51042 3.3125 3.4375 3.375 3.375C3.4375 3.3125 3.51042 3.28125 3.59375 3.28125C3.67708 3.28125 3.75 3.3125 3.8125 3.375L6 5.5625L8.1875 3.375C8.25 3.3125 8.32292 3.28125 8.40625 3.28125C8.48958 3.28125 8.5625 3.3125 8.625 3.375C8.6875 3.4375 8.71875 3.51042 8.71875 3.59375C8.71875 3.67708 8.6875 3.75 8.625 3.8125L6.4375 6L8.625 8.1875C8.6875 8.25 8.71875 8.32292 8.71875 8.40625C8.71875 8.48958 8.6875 8.5625 8.625 8.625C8.5625 8.6875 8.48958 8.71875 8.40625 8.71875C8.32292 8.71875 8.25 8.6875 8.1875 8.625L6 6.4375Z" fill="white"/>
</svg>
