<svg width="218" height="40" viewBox="0 0 218 40" fill="none" xmlns="http://www.w3.org/2000/svg">
<path d="M57.8177 33.4736V5.51837H53.5168V33.4736H57.8177Z" fill="url(#paint0_linear_16_37)"/>
<path d="M68.7041 27.2689H72.0129L74.9075 18.4193L74.8256 33.472H95.5039V29.005H79.2926V5.51678H75.5697L70.3555 20.4034L65.0626 5.51678H61.4243V33.472H65.8913L65.7251 18.0051L68.7041 27.2689ZM91.0369 26.7729H95.5039L89.8783 5.51678H86.4034L80.7779 26.7729H85.3267L86.3187 23.05H90.0417L91.0369 26.7729ZM89.1315 18.8306H87.1474L88.1395 13.7043L89.1315 18.8306Z" fill="url(#paint1_linear_16_37)"/>
<path d="M106.913 26.608C106.913 27.2705 106.665 27.9327 106.169 28.4287C105.758 28.8433 105.092 29.1727 104.433 29.1727C103.774 29.1727 103.111 28.8433 102.697 28.4287C102.201 27.9327 101.953 27.2705 101.953 26.608V12.3812C101.953 11.7186 102.201 11.0565 102.697 10.5604C103.108 10.1459 103.774 9.81641 104.433 9.81641C105.092 9.81641 105.755 10.1459 106.169 10.5604C106.665 11.0564 106.913 11.7186 106.913 12.3812V13.3732H111.214V12.3812C111.214 10.5632 110.555 8.82716 109.23 7.50245C107.99 6.2624 106.254 5.51837 104.433 5.51837C102.612 5.51837 100.876 6.26241 99.6362 7.50525C98.3115 8.82717 97.5675 10.5632 97.5675 12.384V26.608C97.5675 28.4259 98.3115 30.162 99.6362 31.4867C100.876 32.7268 102.612 33.4708 104.433 33.4708C106.254 33.4708 107.99 32.7268 109.23 31.4867C110.551 30.1648 111.214 28.4287 111.214 26.608V16.5183H104.433V20.8191H106.913V26.608Z" fill="url(#paint2_linear_16_37)"/>
<path d="M126.991 9.8192V5.51837H114.421V33.4736H126.991V29.1727H118.722V21.6478H124.925V17.347H118.722V9.8192H126.991Z" fill="url(#paint3_linear_16_37)"/>
<path d="M132.67 5.51837H128.04L133.747 19.4976L128.04 33.4736H132.67L136.061 25.2018L139.454 33.4736H144.084L138.377 19.4976L144.084 5.51837H139.454L136.061 13.7902L132.67 5.51837Z" fill="url(#paint4_linear_16_37)"/>
<path d="M145.409 6.34427H150.787V33.4736H151.531V6.34427H156.905V5.51837H145.409L145.409 6.34427Z" fill="black"/>
<path d="M175.089 32.3915C173.268 31.7291 172.111 30.408 171.451 28.6693L167.98 19.9041L169.138 19.5747C170.048 19.3268 170.874 18.8306 171.536 18.1686C172.527 17.0922 173.19 15.6893 173.19 14.1989V11.1418C173.19 9.65419 172.527 8.24843 171.536 7.17205C170.462 6.09568 169.056 5.51797 167.566 5.51797H161.779V33.4647H162.357V19.8255H167.233L170.871 29.0018C172.277 32.7241 175.004 33.5493 178.644 33.4679C181.208 33.386 183.688 33.4679 186.252 33.4679V32.8055H179.14C177.734 32.8055 176.413 32.8055 175.089 32.3915ZM162.357 6.18312H167.566C168.89 6.18312 170.13 6.67898 171.04 7.58927C172.032 8.58101 172.527 9.82067 172.527 11.1446V14.2044C172.527 15.5288 172.032 16.7684 171.04 17.7602C170.13 18.6704 168.89 19.1663 167.566 19.1663H162.357V6.18312ZM176.246 22.223H184.35L185.508 26.7704H186.252L180.631 5.52116H179.887L174.348 26.7704H175.01L176.246 22.223ZM180.298 6.92413L184.102 21.3945H176.494L180.298 6.92413Z" fill="black"/>
<path d="M197.123 5.51837C195.551 5.51837 194.063 6.18046 193.071 7.25427C191.997 8.24621 191.335 9.73412 191.335 11.3067V27.6825C191.335 29.3369 191.994 30.7401 193.071 31.8167C194.063 32.8087 195.551 33.4708 197.123 33.4708C198.696 33.4708 200.099 32.8087 201.176 31.8167C202.252 30.7429 202.83 29.3369 202.83 27.6825V23.878H202.086V27.6825C202.086 29.0889 201.508 30.3288 200.598 31.2389C199.688 32.149 198.448 32.645 197.123 32.645C195.717 32.645 194.477 32.149 193.567 31.2389C192.657 30.3288 192.161 29.0889 192.161 27.6825V11.3067C192.161 9.90064 192.657 8.66071 193.567 7.75024C194.477 6.84016 195.717 6.34419 197.123 6.34419C198.448 6.34419 199.688 6.84016 200.598 7.75024C201.508 8.66071 202.086 9.90064 202.086 11.3067V15.1111H202.83V11.3067C202.83 9.73412 202.252 8.24621 201.176 7.25427C200.099 6.18046 198.696 5.51837 197.123 5.51837Z" fill="black"/>
<path d="M205.954 6.34427H211.331V33.4736H212.075V6.34427H217.45V5.51837H205.954V6.34427Z" fill="black"/>
<path d="M19.3109 16.5978L16.6377 19.271L5.02723 7.66053L2.31412 10.4135L0 8.05952L8.09941 0L10.4135 2.31412L7.74033 4.98732L19.3109 16.5978ZM39.1006 8.05952L36.7865 10.4135L34.1133 7.74033L7.74033 34.1133L10.4534 36.7865L8.09942 39.1006L4.10344e-06 31.0411L2.31412 28.6871L5.02723 31.4002L16.8771 19.5104L19.5902 16.8372L31.4401 5.02722L28.6871 2.31412L31.0411 2.05172e-06L39.1006 8.05952ZM39.1006 30.9613L31.0411 39.1006L28.6871 36.7865L31.4401 34.0335L19.8695 22.5028L22.5427 19.8296L34.1133 31.3603L36.7865 28.6871L39.1006 30.9613Z" fill="url(#paint5_linear_16_37)"/>
<defs>
<linearGradient id="paint0_linear_16_37" x1="50.1777" y1="28.5905" x2="61.1568" y2="28.5905" gradientUnits="userSpaceOnUse">
<stop stop-color="#4568DC"/>
<stop offset="1" stop-color="#B06AB3"/>
</linearGradient>
<linearGradient id="paint1_linear_16_37" x1="34.9651" y1="28.5889" x2="121.963" y2="28.5889" gradientUnits="userSpaceOnUse">
<stop stop-color="#4568DC"/>
<stop offset="1" stop-color="#B06AB3"/>
</linearGradient>
<linearGradient id="paint2_linear_16_37" x1="86.9724" y1="28.5882" x2="121.809" y2="28.5882" gradientUnits="userSpaceOnUse">
<stop stop-color="#4568DC"/>
<stop offset="1" stop-color="#B06AB3"/>
</linearGradient>
<linearGradient id="paint3_linear_16_37" x1="104.662" y1="28.5905" x2="136.75" y2="28.5905" gradientUnits="userSpaceOnUse">
<stop stop-color="#4568DC"/>
<stop offset="1" stop-color="#B06AB3"/>
</linearGradient>
<linearGradient id="paint4_linear_16_37" x1="115.582" y1="28.5905" x2="156.541" y2="28.5905" gradientUnits="userSpaceOnUse">
<stop stop-color="#4568DC"/>
<stop offset="1" stop-color="#B06AB3"/>
</linearGradient>
<linearGradient id="paint5_linear_16_37" x1="-30.3576" y1="32.2707" x2="69.4582" y2="32.2707" gradientUnits="userSpaceOnUse">
<stop stop-color="#4568DC"/>
<stop offset="1" stop-color="#B06AB3"/>
</linearGradient>
</defs>
</svg>
