<svg width="766" height="1168" viewBox="0 0 1366 768" fill="none" xmlns="http://www.w3.org/2000/svg">
<rect width="766" height="1168" fill="white"/>
<path d="M-8.5 320.597V-0.499939H352.58C350.46 -0.0117534 347.943 0.713496 345.104 1.79037C336.031 5.23225 323.684 12.2611 310.507 26.5992C284.157 55.2701 254.51 113.139 241.003 229.943C236.884 265.569 219.251 289.02 195.11 304.187C170.947 319.367 140.243 326.258 110.003 328.683C79.7694 331.107 50.0444 329.065 27.8722 326.415C16.7876 325.09 7.59394 323.614 1.17252 322.469C-2.03812 321.897 -4.55555 321.407 -6.2696 321.061C-7.12662 320.888 -7.78278 320.75 -8.22431 320.656C-8.32814 320.634 -8.42009 320.614 -8.5 320.597Z" stroke="url(#paint0_linear_128_516)"/>
<path d="M-8.5 311.592V-0.498932H339.719C337.697 -0.0245881 335.309 0.673584 332.621 1.70069C323.865 5.04743 311.951 11.8813 299.236 25.8201C273.812 53.6922 245.209 109.945 232.178 223.483C228.204 258.109 211.194 280.901 187.909 295.64C164.6 310.394 134.982 317.091 105.809 319.448C76.6422 321.805 47.9659 319.82 26.5758 317.244C15.8821 315.956 7.01273 314.521 0.817874 313.408C-2.27949 312.852 -4.70807 312.376 -6.36159 312.04C-7.18834 311.871 -7.82132 311.738 -8.24722 311.647C-8.34173 311.626 -8.42603 311.608 -8.5 311.592Z" stroke="url(#paint1_linear_128_516)" stroke-opacity="0.6"/>
<path d="M-8.5 303.817V-0.498958H324.919C323.003 -0.0366627 320.748 0.638244 318.217 1.62307C309.825 4.8882 298.411 11.5544 286.23 25.1487C261.875 52.3311 234.476 107.188 221.995 217.905C218.188 251.671 201.896 273.892 179.597 288.262C157.276 302.646 128.91 309.176 100.969 311.474C73.034 313.772 45.5681 311.837 25.0804 309.325C14.8379 308.07 6.34284 306.67 0.409469 305.585C-2.55715 305.043 -4.88319 304.579 -6.46683 304.25C-7.25865 304.086 -7.86485 303.956 -8.27272 303.867C-8.35698 303.849 -8.43278 303.832 -8.5 303.817Z" stroke="url(#paint2_linear_128_516)" stroke-opacity="0.4"/>
<path d="M-8.5 297.989V-0.498978H303.294C301.514 -0.0454879 299.426 0.612581 297.087 1.56706C289.229 4.77267 278.548 11.3151 267.151 24.6515C244.365 51.3166 218.736 105.125 207.06 213.724C203.498 246.85 188.255 268.643 167.403 282.733C146.529 296.836 120.003 303.24 93.8693 305.494C67.742 307.748 42.0523 305.85 22.8885 303.386C13.3081 302.155 5.36213 300.782 -0.187576 299.718C-2.96236 299.186 -5.13791 298.731 -6.61901 298.409C-7.35955 298.248 -7.92646 298.121 -8.30784 298.033C-8.37824 298.017 -8.44232 298.003 -8.5 297.989Z" stroke="url(#paint3_linear_128_516)" stroke-opacity="0.2"/>
<path d="M1423.5 320.597V-0.499939H1062.42C1064.54 -0.0117534 1067.06 0.713496 1069.9 1.79037C1078.97 5.23225 1091.32 12.2611 1104.49 26.5992C1130.84 55.2701 1160.49 113.139 1174 229.943C1178.12 265.569 1195.75 289.02 1219.89 304.187C1244.05 319.367 1274.76 326.258 1305 328.683C1335.23 331.107 1364.96 329.065 1387.13 326.415C1398.21 325.09 1407.41 323.614 1413.83 322.469C1417.04 321.897 1419.56 321.407 1421.27 321.061C1422.13 320.888 1422.78 320.75 1423.22 320.656C1423.33 320.634 1423.42 320.614 1423.5 320.597Z" stroke="url(#paint4_linear_128_516)"/>
<path d="M1423.5 311.592V-0.498932H1075.28C1077.3 -0.0245881 1079.69 0.673584 1082.38 1.70069C1091.14 5.04743 1103.05 11.8813 1115.76 25.8201C1141.19 53.6922 1169.79 109.945 1182.82 223.483C1186.8 258.109 1203.81 280.901 1227.09 295.64C1250.4 310.394 1280.02 317.091 1309.19 319.448C1338.36 321.805 1367.03 319.82 1388.42 317.244C1399.12 315.956 1407.99 314.521 1414.18 313.408C1417.28 312.852 1419.71 312.376 1421.36 312.04C1422.19 311.871 1422.82 311.738 1423.25 311.647C1423.34 311.626 1423.43 311.608 1423.5 311.592Z" stroke="url(#paint5_linear_128_516)" stroke-opacity="0.6"/>
<path d="M1423.5 303.817V-0.498958H1090.08C1092 -0.0366627 1094.25 0.638244 1096.78 1.62307C1105.17 4.8882 1116.59 11.5544 1128.77 25.1487C1153.13 52.3311 1180.52 107.188 1193 217.905C1196.81 251.671 1213.1 273.892 1235.4 288.262C1257.72 302.646 1286.09 309.176 1314.03 311.474C1341.97 313.772 1369.43 311.837 1389.92 309.325C1400.16 308.07 1408.66 306.67 1414.59 305.585C1417.56 305.043 1419.88 304.579 1421.47 304.25C1422.26 304.086 1422.86 303.956 1423.27 303.867C1423.36 303.849 1423.43 303.832 1423.5 303.817Z" stroke="url(#paint6_linear_128_516)" stroke-opacity="0.4"/>
<path d="M1423.5 297.989V-0.498978H1111.71C1113.49 -0.0454879 1115.57 0.612581 1117.91 1.56706C1125.77 4.77267 1136.45 11.3151 1147.85 24.6515C1170.63 51.3166 1196.26 105.125 1207.94 213.724C1211.5 246.85 1226.74 268.643 1247.6 282.733C1268.47 296.836 1295 303.24 1321.13 305.494C1347.26 307.748 1372.95 305.85 1392.11 303.386C1401.69 302.155 1409.64 300.782 1415.19 299.718C1417.96 299.186 1420.14 298.731 1421.62 298.409C1422.36 298.248 1422.93 298.121 1423.31 298.033C1423.38 298.017 1423.44 298.003 1423.5 297.989Z" stroke="url(#paint7_linear_128_516)" stroke-opacity="0.2"/>
<path d="M1406.5 446.668V767.765H1045.42C1047.54 767.277 1050.06 766.551 1052.9 765.475C1061.97 762.033 1074.32 755.004 1087.49 740.666C1113.84 711.995 1143.49 654.126 1157 537.322C1161.12 501.696 1178.75 478.245 1202.89 463.078C1227.05 447.898 1257.76 441.007 1288 438.582C1318.23 436.158 1347.96 438.2 1370.13 440.85C1381.21 442.175 1390.41 443.651 1396.83 444.796C1400.04 445.368 1402.56 445.858 1404.27 446.204C1405.13 446.377 1405.78 446.515 1406.22 446.609C1406.33 446.631 1406.42 446.65 1406.5 446.668Z" stroke="url(#paint8_linear_128_516)"/>
<path d="M1406.5 455.673V767.764H1058.28C1060.3 767.29 1062.69 766.591 1065.38 765.564C1074.14 762.218 1086.05 755.384 1098.76 741.445C1124.19 713.573 1152.79 657.32 1165.82 543.782C1169.8 509.155 1186.81 486.364 1210.09 471.625C1233.4 456.871 1263.02 450.174 1292.19 447.817C1321.36 445.46 1350.03 447.445 1371.42 450.021C1382.12 451.309 1390.99 452.744 1397.18 453.856C1400.28 454.413 1402.71 454.889 1404.36 455.225C1405.19 455.394 1405.82 455.527 1406.25 455.618C1406.34 455.639 1406.43 455.657 1406.5 455.673Z" stroke="url(#paint9_linear_128_516)" stroke-opacity="0.6"/>
<path d="M1406.5 463.448V767.764H1073.08C1075 767.302 1077.25 766.627 1079.78 765.642C1088.17 762.377 1099.59 755.711 1111.77 742.116C1136.13 714.934 1163.52 660.077 1176 549.36C1179.81 515.594 1196.1 493.373 1218.4 479.003C1240.72 464.619 1269.09 458.089 1297.03 455.791C1324.97 453.493 1352.43 455.428 1372.92 457.94C1383.16 459.195 1391.66 460.595 1397.59 461.68C1400.56 462.222 1402.88 462.686 1404.47 463.015C1405.26 463.179 1405.86 463.309 1406.27 463.398C1406.36 463.416 1406.43 463.433 1406.5 463.448Z" stroke="url(#paint10_linear_128_516)" stroke-opacity="0.4"/>
<path d="M1406.5 469.276V767.764H1094.71C1096.49 767.31 1098.57 766.652 1100.91 765.698C1108.77 762.492 1119.45 755.95 1130.85 742.613C1153.63 715.948 1179.26 662.14 1190.94 553.541C1194.5 520.415 1209.74 498.622 1230.6 484.532C1251.47 470.429 1278 464.025 1304.13 461.771C1330.26 459.517 1355.95 461.415 1375.11 463.879C1384.69 465.11 1392.64 466.482 1398.19 467.547C1400.96 468.079 1403.14 468.534 1404.62 468.856C1405.36 469.017 1405.93 469.144 1406.31 469.232C1406.38 469.248 1406.44 469.262 1406.5 469.276Z" stroke="url(#paint11_linear_128_516)" stroke-opacity="0.2"/>
<path d="M-6.5 449.668V770.765H354.58C352.46 770.277 349.943 769.551 347.104 768.475C338.031 765.033 325.684 758.004 312.507 743.666C286.157 714.995 256.51 657.126 243.003 540.322C238.884 504.696 221.251 481.245 197.11 466.078C172.947 450.898 142.243 444.007 112.003 441.582C81.7694 439.158 52.0444 441.2 29.8722 443.85C18.7876 445.175 9.59394 446.651 3.17252 447.796C-0.0381217 448.368 -2.55555 448.858 -4.2696 449.204C-5.12662 449.377 -5.78278 449.515 -6.22431 449.609C-6.32814 449.631 -6.42009 449.65 -6.5 449.668Z" stroke="url(#paint12_linear_128_516)"/>
<path d="M-6.5 458.673V770.764H341.719C339.697 770.29 337.309 769.591 334.621 768.564C325.865 765.218 313.951 758.384 301.236 744.445C275.812 716.573 247.209 660.32 234.178 546.782C230.204 512.155 213.194 489.364 189.909 474.625C166.6 459.871 136.982 453.174 107.809 450.817C78.6422 448.46 49.9659 450.445 28.5758 453.021C17.8821 454.309 9.01273 455.744 2.81787 456.856C-0.27949 457.413 -2.70807 457.889 -4.36159 458.225C-5.18834 458.394 -5.82132 458.527 -6.24722 458.618C-6.34173 458.639 -6.42603 458.657 -6.5 458.673Z" stroke="url(#paint13_linear_128_516)" stroke-opacity="0.6"/>
<path d="M-6.5 466.448V770.764H326.919C325.003 770.302 322.748 769.627 320.217 768.642C311.825 765.377 300.411 758.711 288.23 745.116C263.875 717.934 236.476 663.077 223.995 552.36C220.188 518.594 203.896 496.373 181.597 482.003C159.276 467.619 130.91 461.089 102.969 458.791C75.034 456.493 47.5681 458.428 27.0804 460.94C16.8379 462.195 8.34284 463.595 2.40947 464.68C-0.557151 465.222 -2.88319 465.686 -4.46683 466.015C-5.25865 466.179 -5.86485 466.309 -6.27272 466.398C-6.35698 466.416 -6.43278 466.433 -6.5 466.448Z" stroke="url(#paint14_linear_128_516)" stroke-opacity="0.4"/>
<path d="M-6.5 472.276V770.764H305.294C303.514 770.31 301.426 769.652 299.087 768.698C291.229 765.492 280.548 758.95 269.151 745.613C246.365 718.948 220.736 665.14 209.06 556.541C205.498 523.415 190.255 501.622 169.403 487.532C148.529 473.429 122.003 467.025 95.8693 464.771C69.742 462.517 44.0523 464.415 24.8885 466.879C15.3081 468.11 7.36213 469.482 1.81242 470.547C-0.962357 471.079 -3.13791 471.534 -4.61901 471.856C-5.35955 472.017 -5.92646 472.144 -6.30784 472.232C-6.37824 472.248 -6.44232 472.262 -6.5 472.276Z" stroke="url(#paint15_linear_128_516)" stroke-opacity="0.2"/>
<defs>
<linearGradient id="paint0_linear_128_516" x1="175.5" y1="-1.00104" x2="175.5" y2="330.265" gradientUnits="userSpaceOnUse">
<stop stop-color="#6769D0"/>
<stop offset="1" stop-color="#8F6AC0"/>
</linearGradient>
<linearGradient id="paint1_linear_128_516" x1="169" y1="-1" x2="169" y2="321" gradientUnits="userSpaceOnUse">
<stop stop-color="#6769D0"/>
<stop offset="1" stop-color="#8F6AC0"/>
</linearGradient>
<linearGradient id="paint2_linear_128_516" x1="161.5" y1="-1" x2="161.5" y2="313" gradientUnits="userSpaceOnUse">
<stop stop-color="#6769D0"/>
<stop offset="1" stop-color="#8F6AC0"/>
</linearGradient>
<linearGradient id="paint3_linear_128_516" x1="150.5" y1="-1" x2="150.5" y2="307" gradientUnits="userSpaceOnUse">
<stop stop-color="#6769D0"/>
<stop offset="1" stop-color="#8F6AC0"/>
</linearGradient>
<linearGradient id="paint4_linear_128_516" x1="1239.5" y1="-1.00104" x2="1239.5" y2="330.265" gradientUnits="userSpaceOnUse">
<stop stop-color="#6769D0"/>
<stop offset="1" stop-color="#8F6AC0"/>
</linearGradient>
<linearGradient id="paint5_linear_128_516" x1="1246" y1="-1" x2="1246" y2="321" gradientUnits="userSpaceOnUse">
<stop stop-color="#6769D0"/>
<stop offset="1" stop-color="#8F6AC0"/>
</linearGradient>
<linearGradient id="paint6_linear_128_516" x1="1253.5" y1="-1" x2="1253.5" y2="313" gradientUnits="userSpaceOnUse">
<stop stop-color="#6769D0"/>
<stop offset="1" stop-color="#8F6AC0"/>
</linearGradient>
<linearGradient id="paint7_linear_128_516" x1="1264.5" y1="-1" x2="1264.5" y2="307" gradientUnits="userSpaceOnUse">
<stop stop-color="#6769D0"/>
<stop offset="1" stop-color="#8F6AC0"/>
</linearGradient>
<linearGradient id="paint8_linear_128_516" x1="1222.5" y1="768.266" x2="1222.5" y2="437" gradientUnits="userSpaceOnUse">
<stop stop-color="#6769D0"/>
<stop offset="1" stop-color="#8F6AC0"/>
</linearGradient>
<linearGradient id="paint9_linear_128_516" x1="1229" y1="768.265" x2="1229" y2="446.265" gradientUnits="userSpaceOnUse">
<stop stop-color="#6769D0"/>
<stop offset="1" stop-color="#8F6AC0"/>
</linearGradient>
<linearGradient id="paint10_linear_128_516" x1="1236.5" y1="768.265" x2="1236.5" y2="454.265" gradientUnits="userSpaceOnUse">
<stop stop-color="#6769D0"/>
<stop offset="1" stop-color="#8F6AC0"/>
</linearGradient>
<linearGradient id="paint11_linear_128_516" x1="1247.5" y1="768.265" x2="1247.5" y2="460.265" gradientUnits="userSpaceOnUse">
<stop stop-color="#6769D0"/>
<stop offset="1" stop-color="#8F6AC0"/>
</linearGradient>
<linearGradient id="paint12_linear_128_516" x1="177.5" y1="771.266" x2="177.5" y2="440" gradientUnits="userSpaceOnUse">
<stop stop-color="#6769D0"/>
<stop offset="1" stop-color="#8F6AC0"/>
</linearGradient>
<linearGradient id="paint13_linear_128_516" x1="171" y1="771.265" x2="171" y2="449.265" gradientUnits="userSpaceOnUse">
<stop stop-color="#6769D0"/>
<stop offset="1" stop-color="#8F6AC0"/>
</linearGradient>
<linearGradient id="paint14_linear_128_516" x1="163.5" y1="771.265" x2="163.5" y2="457.265" gradientUnits="userSpaceOnUse">
<stop stop-color="#6769D0"/>
<stop offset="1" stop-color="#8F6AC0"/>
</linearGradient>
<linearGradient id="paint15_linear_128_516" x1="152.5" y1="771.265" x2="152.5" y2="463.265" gradientUnits="userSpaceOnUse">
<stop stop-color="#6769D0"/>
<stop offset="1" stop-color="#8F6AC0"/>
</linearGradient>
</defs>
</svg>
