<svg width="390" height="844" viewBox="0 0 390 844" fill="none" xmlns="http://www.w3.org/2000/svg">
<rect x="1" width="389" height="843" fill="white"/>
<path d="M433.227 161.667V0.500553H253.621C254.236 0.68761 254.892 0.90953 255.586 1.17279C260.189 2.91899 266.436 6.47885 273.094 13.7238C286.406 28.2084 301.34 57.3939 308.141 116.211C310.205 134.063 319.034 145.802 331.125 153.398C343.239 161.008 358.648 164.471 373.85 165.69C389.045 166.909 403.988 165.882 415.138 164.55C420.712 163.884 425.335 163.141 428.563 162.566C430.177 162.278 431.442 162.032 432.303 161.858C432.698 161.778 433.007 161.714 433.227 161.667Z" stroke="url(#paint0_linear_128_518)"/>
<path d="M433.227 157.135V0.501087H260.06C260.628 0.677286 261.232 0.88442 261.869 1.1279C266.313 2.82638 272.342 6.28833 278.767 13.3324C291.613 27.4149 306.021 55.787 312.583 112.96C314.574 130.309 323.09 141.716 334.751 149.097C346.434 156.492 361.296 159.857 375.961 161.042C390.618 162.226 405.034 161.229 415.791 159.934C421.168 159.286 425.627 158.565 428.741 158.005C430.298 157.726 431.519 157.486 432.349 157.317C432.722 157.242 433.016 157.18 433.227 157.135Z" stroke="url(#paint1_linear_128_518)" stroke-opacity="0.6"/>
<path d="M433.227 153.222V0.501074H267.46C267.983 0.667907 268.538 0.862474 269.121 1.08937C273.381 2.7472 279.159 6.12527 285.315 12.9961C297.622 26.7316 311.423 54.4007 317.708 110.153C319.615 127.07 327.772 138.19 338.936 145.384C350.122 152.593 364.353 155.873 378.397 157.029C392.435 158.183 406.241 157.211 416.543 155.948C421.693 155.317 425.963 154.613 428.946 154.068C430.437 153.795 431.606 153.562 432.401 153.397C432.749 153.325 433.026 153.266 433.227 153.222Z" stroke="url(#paint2_linear_128_518)" stroke-opacity="0.4"/>
<path d="M433.227 150.291V0.501064H278.253C278.728 0.661323 279.231 0.84717 279.76 1.06267C283.753 2.69169 289.161 6.00881 294.922 12.7502C306.437 26.2253 319.346 53.3655 325.226 108.049C327.01 124.649 334.642 135.553 345.078 142.604C355.535 149.67 368.839 152.886 381.971 154.019C395.098 155.151 408.009 154.198 417.645 152.959C422.461 152.34 426.455 151.65 429.244 151.115C430.639 150.848 431.732 150.619 432.475 150.458C432.789 150.389 433.041 150.333 433.227 150.291Z" stroke="url(#paint3_linear_128_518)" stroke-opacity="0.2"/>
<path d="M433.227 682.067V843.233H253.621C254.236 843.046 254.892 842.824 255.586 842.561C260.189 840.815 266.436 837.255 273.094 830.01C286.406 815.526 301.34 786.34 308.141 727.523C310.205 709.671 319.034 697.932 331.125 690.336C343.239 682.726 358.648 679.263 373.85 678.044C389.045 676.825 403.988 677.852 415.138 679.184C420.712 679.85 425.335 680.593 428.563 681.168C430.177 681.456 431.442 681.702 432.303 681.876C432.698 681.956 433.007 682.02 433.227 682.067Z" stroke="url(#paint4_linear_128_518)"/>
<path d="M433.227 686.599V843.233H260.06C260.628 843.057 261.232 842.85 261.869 842.606C266.313 840.908 272.342 837.446 278.767 830.402C291.613 816.319 306.021 787.947 312.583 730.774C314.574 713.425 323.09 702.018 334.751 694.637C346.434 687.242 361.296 683.877 375.961 682.692C390.618 681.508 405.034 682.505 415.791 683.8C421.168 684.448 425.627 685.169 428.741 685.729C430.298 686.008 431.519 686.248 432.349 686.417C432.722 686.492 433.016 686.554 433.227 686.599Z" stroke="url(#paint5_linear_128_518)" stroke-opacity="0.6"/>
<path d="M433.227 690.512V843.233H267.46C267.983 843.066 268.538 842.872 269.121 842.645C273.381 840.987 279.159 837.609 285.315 830.738C297.622 817.002 311.423 789.333 317.708 733.581C319.615 716.664 327.772 705.544 338.936 698.35C350.122 691.141 364.353 687.861 378.397 686.705C392.435 685.551 406.241 686.523 416.543 687.786C421.693 688.417 425.963 689.121 428.946 689.666C430.437 689.939 431.606 690.172 432.401 690.337C432.749 690.409 433.026 690.468 433.227 690.512Z" stroke="url(#paint6_linear_128_518)" stroke-opacity="0.4"/>
<path d="M433.227 693.443V843.233H278.253C278.728 843.073 279.231 842.887 279.76 842.671C283.753 841.042 289.161 837.725 294.922 830.984C306.437 817.509 319.346 790.369 325.226 735.685C327.01 719.085 334.642 708.181 345.078 701.13C355.535 694.065 368.839 690.848 381.971 689.715C395.098 688.583 408.009 689.536 417.645 690.775C422.461 691.394 426.455 692.084 429.244 692.619C430.639 692.886 431.732 693.115 432.475 693.276C432.789 693.345 433.041 693.401 433.227 693.443Z" stroke="url(#paint7_linear_128_518)" stroke-opacity="0.2"/>
<path d="M-38.5 161.667V0.500553H141.105C140.491 0.68761 139.835 0.90953 139.141 1.17279C134.537 2.91899 128.291 6.47885 121.632 13.7238C108.321 28.2084 93.3869 57.3939 86.5858 116.211C84.5216 134.063 75.6926 145.802 63.6014 153.398C51.4875 161.008 36.0789 164.471 20.877 165.69C5.68203 166.909 -9.26159 165.882 -20.4119 164.55C-25.9856 163.884 -30.6082 163.141 -33.8363 162.566C-35.4503 162.278 -36.7155 162.032 -37.5765 161.858C-37.971 161.778 -38.2806 161.714 -38.5 161.667Z" stroke="url(#paint8_linear_128_518)"/>
<path d="M-38.5 157.135V0.501087H134.666C134.099 0.677286 133.494 0.88442 132.857 1.1279C128.413 2.82638 122.385 6.28833 115.959 13.3324C103.113 27.4149 88.7055 55.787 82.1439 112.96C80.1527 130.309 71.6368 141.716 59.9759 149.097C48.2925 156.492 33.4304 159.857 18.7659 161.042C4.10806 162.226 -10.3076 161.229 -21.0642 159.934C-26.4411 159.286 -30.9005 158.565 -34.0145 158.005C-35.5715 157.726 -36.792 157.486 -37.6225 157.317C-37.9951 157.242 -38.2892 157.18 -38.5 157.135Z" stroke="url(#paint9_linear_128_518)" stroke-opacity="0.6"/>
<path d="M-38.5 153.222V0.501074H127.266C126.743 0.667907 126.189 0.862474 125.606 1.08937C121.345 2.7472 115.568 6.12527 109.411 12.9961C97.1044 26.7316 83.3036 54.4007 77.0184 110.153C75.1113 127.07 66.9549 138.19 55.7909 145.384C44.6045 152.593 30.3736 155.873 16.3295 157.029C2.29199 158.183 -11.5141 157.211 -21.8163 155.948C-26.966 155.317 -31.2369 154.613 -34.2193 154.068C-35.7104 153.795 -36.8793 153.562 -37.6746 153.397C-38.0228 153.325 -38.2993 153.266 -38.5 153.222Z" stroke="url(#paint10_linear_128_518)" stroke-opacity="0.4"/>
<path d="M-38.5 150.291V0.501064H116.474C115.998 0.661323 115.495 0.84717 114.967 1.06267C110.974 2.69169 105.565 6.00881 99.8047 12.7502C88.2899 26.2253 75.3804 53.3655 69.5011 108.049C67.7163 124.649 60.0842 135.553 49.6488 142.604C39.1919 149.67 25.888 152.886 12.7552 154.019C-0.371464 155.151 -13.2827 154.198 -22.9181 152.959C-27.7343 152.34 -31.7286 151.65 -34.5177 151.115C-35.9122 150.848 -37.0052 150.619 -37.7489 150.458C-38.0627 150.389 -38.3143 150.333 -38.5 150.291Z" stroke="url(#paint11_linear_128_518)" stroke-opacity="0.2"/>
<path d="M-38.5 682.067V843.233H141.105C140.491 843.046 139.835 842.824 139.141 842.561C134.537 840.815 128.291 837.255 121.632 830.01C108.321 815.526 93.3869 786.34 86.5858 727.523C84.5216 709.671 75.6926 697.932 63.6014 690.336C51.4875 682.726 36.0789 679.263 20.877 678.044C5.68203 676.825 -9.26159 677.852 -20.4119 679.184C-25.9856 679.85 -30.6082 680.593 -33.8363 681.168C-35.4503 681.456 -36.7155 681.702 -37.5765 681.876C-37.971 681.956 -38.2806 682.02 -38.5 682.067Z" stroke="url(#paint12_linear_128_518)"/>
<path d="M-38.5 686.599V843.233H134.666C134.099 843.057 133.494 842.85 132.857 842.606C128.413 840.908 122.385 837.446 115.959 830.402C103.113 816.319 88.7055 787.947 82.1439 730.774C80.1527 713.425 71.6368 702.018 59.9759 694.637C48.2925 687.242 33.4304 683.877 18.7659 682.692C4.10806 681.508 -10.3076 682.505 -21.0642 683.8C-26.4411 684.448 -30.9005 685.169 -34.0145 685.729C-35.5715 686.008 -36.792 686.248 -37.6225 686.417C-37.9951 686.492 -38.2892 686.554 -38.5 686.599Z" stroke="url(#paint13_linear_128_518)" stroke-opacity="0.6"/>
<path d="M-38.5 690.512V843.233H127.266C126.743 843.066 126.189 842.872 125.606 842.645C121.345 840.987 115.568 837.609 109.411 830.738C97.1044 817.002 83.3036 789.333 77.0184 733.581C75.1113 716.664 66.9549 705.544 55.7909 698.35C44.6045 691.141 30.3736 687.861 16.3295 686.705C2.29199 685.551 -11.5141 686.523 -21.8163 687.786C-26.966 688.417 -31.2369 689.121 -34.2193 689.666C-35.7104 689.939 -36.8793 690.172 -37.6746 690.337C-38.0228 690.409 -38.2993 690.468 -38.5 690.512Z" stroke="url(#paint14_linear_128_518)" stroke-opacity="0.4"/>
<path d="M-38.5 693.443V843.233H116.474C115.998 843.073 115.495 842.887 114.967 842.671C110.974 841.042 105.565 837.725 99.8047 830.984C88.2899 817.509 75.3804 790.369 69.5011 735.685C67.7163 719.085 60.0842 708.181 49.6488 701.13C39.1919 694.065 25.888 690.848 12.7552 689.715C-0.371464 688.583 -13.2827 689.536 -22.9181 690.775C-27.7343 691.394 -31.7286 692.084 -34.5177 692.619C-35.9122 692.886 -37.0052 693.115 -37.7489 693.276C-38.0627 693.345 -38.3143 693.401 -38.5 693.443Z" stroke="url(#paint15_linear_128_518)" stroke-opacity="0.2"/>
<defs>
<linearGradient id="paint0_linear_128_518" x1="340.863" y1="0" x2="340.863" y2="166.734" gradientUnits="userSpaceOnUse">
<stop stop-color="#6769D0"/>
<stop offset="1" stop-color="#8F6AC0"/>
</linearGradient>
<linearGradient id="paint1_linear_128_518" x1="344.135" y1="0.000549316" x2="344.135" y2="162.071" gradientUnits="userSpaceOnUse">
<stop stop-color="#6769D0"/>
<stop offset="1" stop-color="#8F6AC0"/>
</linearGradient>
<linearGradient id="paint2_linear_128_518" x1="347.91" y1="0.000549316" x2="347.91" y2="158.044" gradientUnits="userSpaceOnUse">
<stop stop-color="#6769D0"/>
<stop offset="1" stop-color="#8F6AC0"/>
</linearGradient>
<linearGradient id="paint3_linear_128_518" x1="353.446" y1="0.000549316" x2="353.446" y2="155.024" gradientUnits="userSpaceOnUse">
<stop stop-color="#6769D0"/>
<stop offset="1" stop-color="#8F6AC0"/>
</linearGradient>
<linearGradient id="paint4_linear_128_518" x1="340.863" y1="843.734" x2="340.863" y2="677" gradientUnits="userSpaceOnUse">
<stop stop-color="#6769D0"/>
<stop offset="1" stop-color="#8F6AC0"/>
</linearGradient>
<linearGradient id="paint5_linear_128_518" x1="344.135" y1="843.733" x2="344.135" y2="681.663" gradientUnits="userSpaceOnUse">
<stop stop-color="#6769D0"/>
<stop offset="1" stop-color="#8F6AC0"/>
</linearGradient>
<linearGradient id="paint6_linear_128_518" x1="347.91" y1="843.733" x2="347.91" y2="685.69" gradientUnits="userSpaceOnUse">
<stop stop-color="#6769D0"/>
<stop offset="1" stop-color="#8F6AC0"/>
</linearGradient>
<linearGradient id="paint7_linear_128_518" x1="353.446" y1="843.733" x2="353.446" y2="688.71" gradientUnits="userSpaceOnUse">
<stop stop-color="#6769D0"/>
<stop offset="1" stop-color="#8F6AC0"/>
</linearGradient>
<linearGradient id="paint8_linear_128_518" x1="53.8632" y1="0" x2="53.8632" y2="166.734" gradientUnits="userSpaceOnUse">
<stop stop-color="#6769D0"/>
<stop offset="1" stop-color="#8F6AC0"/>
</linearGradient>
<linearGradient id="paint9_linear_128_518" x1="50.5916" y1="0.000549316" x2="50.5916" y2="162.071" gradientUnits="userSpaceOnUse">
<stop stop-color="#6769D0"/>
<stop offset="1" stop-color="#8F6AC0"/>
</linearGradient>
<linearGradient id="paint10_linear_128_518" x1="46.8167" y1="0.000549316" x2="46.8167" y2="158.044" gradientUnits="userSpaceOnUse">
<stop stop-color="#6769D0"/>
<stop offset="1" stop-color="#8F6AC0"/>
</linearGradient>
<linearGradient id="paint11_linear_128_518" x1="41.2801" y1="0.000549316" x2="41.2801" y2="155.024" gradientUnits="userSpaceOnUse">
<stop stop-color="#6769D0"/>
<stop offset="1" stop-color="#8F6AC0"/>
</linearGradient>
<linearGradient id="paint12_linear_128_518" x1="53.8632" y1="843.734" x2="53.8632" y2="677" gradientUnits="userSpaceOnUse">
<stop stop-color="#6769D0"/>
<stop offset="1" stop-color="#8F6AC0"/>
</linearGradient>
<linearGradient id="paint13_linear_128_518" x1="50.5916" y1="843.733" x2="50.5916" y2="681.663" gradientUnits="userSpaceOnUse">
<stop stop-color="#6769D0"/>
<stop offset="1" stop-color="#8F6AC0"/>
</linearGradient>
<linearGradient id="paint14_linear_128_518" x1="46.8167" y1="843.733" x2="46.8167" y2="685.69" gradientUnits="userSpaceOnUse">
<stop stop-color="#6769D0"/>
<stop offset="1" stop-color="#8F6AC0"/>
</linearGradient>
<linearGradient id="paint15_linear_128_518" x1="41.2801" y1="843.733" x2="41.2801" y2="688.71" gradientUnits="userSpaceOnUse">
<stop stop-color="#6769D0"/>
<stop offset="1" stop-color="#8F6AC0"/>
</linearGradient>
</defs>
</svg>
