<svg width="16" height="16" viewBox="0 0 16 16" fill="none" xmlns="http://www.w3.org/2000/svg">
<path d="M8.00008 11.5521C7.90841 11.5521 7.82439 11.5368 7.748 11.5063C7.67161 11.4757 7.59522 11.4222 7.51883 11.3458L4.05841 7.88542C3.92091 7.74792 3.85598 7.58368 3.86362 7.39271C3.87126 7.20174 3.94383 7.0375 4.08133 6.9C4.21883 6.7625 4.38307 6.69375 4.57404 6.69375C4.76501 6.69375 4.92925 6.7625 5.06675 6.9L7.31258 9.16875V1.35417C7.31258 1.15556 7.37751 0.991321 7.50737 0.86146C7.63723 0.731599 7.80147 0.666668 8.00008 0.666668C8.19869 0.666668 8.36293 0.731599 8.49279 0.86146C8.62265 0.991321 8.68758 1.15556 8.68758 1.35417V9.16875L10.9563 6.9C11.0938 6.7625 11.2581 6.69375 11.449 6.69375C11.64 6.69375 11.8042 6.7625 11.9417 6.9C12.0792 7.0375 12.148 7.20174 12.148 7.39271C12.148 7.58368 12.0792 7.74792 11.9417 7.88542L8.48133 11.3458C8.40494 11.4222 8.32855 11.4757 8.25216 11.5063C8.17578 11.5368 8.09175 11.5521 8.00008 11.5521ZM2.04175 15.3333C1.67508 15.3333 1.35425 15.1958 1.07925 14.9208C0.804248 14.6458 0.666748 14.325 0.666748 13.9583V11.3688C0.666748 11.1701 0.731679 11.0059 0.86154 10.876C0.991401 10.7462 1.15564 10.6813 1.35425 10.6813C1.55286 10.6813 1.7171 10.7462 1.84696 10.876C1.97682 11.0059 2.04175 11.1701 2.04175 11.3688V13.9583H13.9584V11.3688C13.9584 11.1701 14.0233 11.0059 14.1532 10.876C14.2831 10.7462 14.4473 10.6813 14.6459 10.6813C14.8445 10.6813 15.0088 10.7462 15.1386 10.876C15.2685 11.0059 15.3334 11.1701 15.3334 11.3688V13.9583C15.3334 14.325 15.1959 14.6458 14.9209 14.9208C14.6459 15.1958 14.3251 15.3333 13.9584 15.3333H2.04175Z" fill="url(#paint0_linear_197_80)"/>
<defs>
<linearGradient id="paint0_linear_197_80" x1="-10.7204" y1="12.7714" x2="26.7206" y2="12.7714" gradientUnits="userSpaceOnUse">
<stop stop-color="#4568DC"/>
<stop offset="1" stop-color="#B06AB3"/>
</linearGradient>
</defs>
</svg>
